G75*
%MOIN*%
%OFA0B0*%
%FSLAX25Y25*%
%IPPOS*%
%LPD*%
%AMOC8*
5,1,8,0,0,1.08239X$1,22.5*
%
%ADD10C,0.00000*%
%ADD11R,0.10000X0.20000*%
D10*
X0035161Y0051300D02*
X0035161Y0349135D01*
X0035161Y0051300D01*
X0072169Y0026300D01*
X0125280Y0026300D01*
X0238075Y0026300D01*
X0346185Y0026300D01*
X0383193Y0051103D01*
X0383193Y0349135D01*
X0354059Y0349135D01*
X0354059Y0416064D01*
X0317445Y0420001D01*
X0228862Y0420001D01*
X0228862Y0380631D01*
X0189492Y0380631D01*
X0189492Y0420001D01*
X0100909Y0420001D01*
X0064295Y0416064D01*
X0064295Y0349135D01*
X0035161Y0349135D01*
X0071775Y0404253D02*
X0071777Y0404401D01*
X0071783Y0404549D01*
X0071793Y0404697D01*
X0071807Y0404844D01*
X0071825Y0404991D01*
X0071846Y0405137D01*
X0071872Y0405283D01*
X0071902Y0405428D01*
X0071935Y0405572D01*
X0071973Y0405715D01*
X0072014Y0405857D01*
X0072059Y0405998D01*
X0072107Y0406138D01*
X0072160Y0406277D01*
X0072216Y0406414D01*
X0072276Y0406549D01*
X0072339Y0406683D01*
X0072406Y0406815D01*
X0072477Y0406945D01*
X0072551Y0407073D01*
X0072628Y0407199D01*
X0072709Y0407323D01*
X0072793Y0407445D01*
X0072880Y0407564D01*
X0072971Y0407681D01*
X0073065Y0407796D01*
X0073161Y0407908D01*
X0073261Y0408018D01*
X0073363Y0408124D01*
X0073469Y0408228D01*
X0073577Y0408329D01*
X0073688Y0408427D01*
X0073801Y0408523D01*
X0073917Y0408615D01*
X0074035Y0408704D01*
X0074156Y0408789D01*
X0074279Y0408872D01*
X0074404Y0408951D01*
X0074531Y0409027D01*
X0074660Y0409099D01*
X0074791Y0409168D01*
X0074924Y0409233D01*
X0075059Y0409294D01*
X0075195Y0409352D01*
X0075332Y0409407D01*
X0075471Y0409457D01*
X0075612Y0409504D01*
X0075753Y0409547D01*
X0075896Y0409587D01*
X0076040Y0409622D01*
X0076184Y0409654D01*
X0076330Y0409681D01*
X0076476Y0409705D01*
X0076623Y0409725D01*
X0076770Y0409741D01*
X0076917Y0409753D01*
X0077065Y0409761D01*
X0077213Y0409765D01*
X0077361Y0409765D01*
X0077509Y0409761D01*
X0077657Y0409753D01*
X0077804Y0409741D01*
X0077951Y0409725D01*
X0078098Y0409705D01*
X0078244Y0409681D01*
X0078390Y0409654D01*
X0078534Y0409622D01*
X0078678Y0409587D01*
X0078821Y0409547D01*
X0078962Y0409504D01*
X0079103Y0409457D01*
X0079242Y0409407D01*
X0079379Y0409352D01*
X0079515Y0409294D01*
X0079650Y0409233D01*
X0079783Y0409168D01*
X0079914Y0409099D01*
X0080043Y0409027D01*
X0080170Y0408951D01*
X0080295Y0408872D01*
X0080418Y0408789D01*
X0080539Y0408704D01*
X0080657Y0408615D01*
X0080773Y0408523D01*
X0080886Y0408427D01*
X0080997Y0408329D01*
X0081105Y0408228D01*
X0081211Y0408124D01*
X0081313Y0408018D01*
X0081413Y0407908D01*
X0081509Y0407796D01*
X0081603Y0407681D01*
X0081694Y0407564D01*
X0081781Y0407445D01*
X0081865Y0407323D01*
X0081946Y0407199D01*
X0082023Y0407073D01*
X0082097Y0406945D01*
X0082168Y0406815D01*
X0082235Y0406683D01*
X0082298Y0406549D01*
X0082358Y0406414D01*
X0082414Y0406277D01*
X0082467Y0406138D01*
X0082515Y0405998D01*
X0082560Y0405857D01*
X0082601Y0405715D01*
X0082639Y0405572D01*
X0082672Y0405428D01*
X0082702Y0405283D01*
X0082728Y0405137D01*
X0082749Y0404991D01*
X0082767Y0404844D01*
X0082781Y0404697D01*
X0082791Y0404549D01*
X0082797Y0404401D01*
X0082799Y0404253D01*
X0082797Y0404105D01*
X0082791Y0403957D01*
X0082781Y0403809D01*
X0082767Y0403662D01*
X0082749Y0403515D01*
X0082728Y0403369D01*
X0082702Y0403223D01*
X0082672Y0403078D01*
X0082639Y0402934D01*
X0082601Y0402791D01*
X0082560Y0402649D01*
X0082515Y0402508D01*
X0082467Y0402368D01*
X0082414Y0402229D01*
X0082358Y0402092D01*
X0082298Y0401957D01*
X0082235Y0401823D01*
X0082168Y0401691D01*
X0082097Y0401561D01*
X0082023Y0401433D01*
X0081946Y0401307D01*
X0081865Y0401183D01*
X0081781Y0401061D01*
X0081694Y0400942D01*
X0081603Y0400825D01*
X0081509Y0400710D01*
X0081413Y0400598D01*
X0081313Y0400488D01*
X0081211Y0400382D01*
X0081105Y0400278D01*
X0080997Y0400177D01*
X0080886Y0400079D01*
X0080773Y0399983D01*
X0080657Y0399891D01*
X0080539Y0399802D01*
X0080418Y0399717D01*
X0080295Y0399634D01*
X0080170Y0399555D01*
X0080043Y0399479D01*
X0079914Y0399407D01*
X0079783Y0399338D01*
X0079650Y0399273D01*
X0079515Y0399212D01*
X0079379Y0399154D01*
X0079242Y0399099D01*
X0079103Y0399049D01*
X0078962Y0399002D01*
X0078821Y0398959D01*
X0078678Y0398919D01*
X0078534Y0398884D01*
X0078390Y0398852D01*
X0078244Y0398825D01*
X0078098Y0398801D01*
X0077951Y0398781D01*
X0077804Y0398765D01*
X0077657Y0398753D01*
X0077509Y0398745D01*
X0077361Y0398741D01*
X0077213Y0398741D01*
X0077065Y0398745D01*
X0076917Y0398753D01*
X0076770Y0398765D01*
X0076623Y0398781D01*
X0076476Y0398801D01*
X0076330Y0398825D01*
X0076184Y0398852D01*
X0076040Y0398884D01*
X0075896Y0398919D01*
X0075753Y0398959D01*
X0075612Y0399002D01*
X0075471Y0399049D01*
X0075332Y0399099D01*
X0075195Y0399154D01*
X0075059Y0399212D01*
X0074924Y0399273D01*
X0074791Y0399338D01*
X0074660Y0399407D01*
X0074531Y0399479D01*
X0074404Y0399555D01*
X0074279Y0399634D01*
X0074156Y0399717D01*
X0074035Y0399802D01*
X0073917Y0399891D01*
X0073801Y0399983D01*
X0073688Y0400079D01*
X0073577Y0400177D01*
X0073469Y0400278D01*
X0073363Y0400382D01*
X0073261Y0400488D01*
X0073161Y0400598D01*
X0073065Y0400710D01*
X0072971Y0400825D01*
X0072880Y0400942D01*
X0072793Y0401061D01*
X0072709Y0401183D01*
X0072628Y0401307D01*
X0072551Y0401433D01*
X0072477Y0401561D01*
X0072406Y0401691D01*
X0072339Y0401823D01*
X0072276Y0401957D01*
X0072216Y0402092D01*
X0072160Y0402229D01*
X0072107Y0402368D01*
X0072059Y0402508D01*
X0072014Y0402649D01*
X0071973Y0402791D01*
X0071935Y0402934D01*
X0071902Y0403078D01*
X0071872Y0403223D01*
X0071846Y0403369D01*
X0071825Y0403515D01*
X0071807Y0403662D01*
X0071793Y0403809D01*
X0071783Y0403957D01*
X0071777Y0404105D01*
X0071775Y0404253D01*
X0335555Y0404253D02*
X0335557Y0404401D01*
X0335563Y0404549D01*
X0335573Y0404697D01*
X0335587Y0404844D01*
X0335605Y0404991D01*
X0335626Y0405137D01*
X0335652Y0405283D01*
X0335682Y0405428D01*
X0335715Y0405572D01*
X0335753Y0405715D01*
X0335794Y0405857D01*
X0335839Y0405998D01*
X0335887Y0406138D01*
X0335940Y0406277D01*
X0335996Y0406414D01*
X0336056Y0406549D01*
X0336119Y0406683D01*
X0336186Y0406815D01*
X0336257Y0406945D01*
X0336331Y0407073D01*
X0336408Y0407199D01*
X0336489Y0407323D01*
X0336573Y0407445D01*
X0336660Y0407564D01*
X0336751Y0407681D01*
X0336845Y0407796D01*
X0336941Y0407908D01*
X0337041Y0408018D01*
X0337143Y0408124D01*
X0337249Y0408228D01*
X0337357Y0408329D01*
X0337468Y0408427D01*
X0337581Y0408523D01*
X0337697Y0408615D01*
X0337815Y0408704D01*
X0337936Y0408789D01*
X0338059Y0408872D01*
X0338184Y0408951D01*
X0338311Y0409027D01*
X0338440Y0409099D01*
X0338571Y0409168D01*
X0338704Y0409233D01*
X0338839Y0409294D01*
X0338975Y0409352D01*
X0339112Y0409407D01*
X0339251Y0409457D01*
X0339392Y0409504D01*
X0339533Y0409547D01*
X0339676Y0409587D01*
X0339820Y0409622D01*
X0339964Y0409654D01*
X0340110Y0409681D01*
X0340256Y0409705D01*
X0340403Y0409725D01*
X0340550Y0409741D01*
X0340697Y0409753D01*
X0340845Y0409761D01*
X0340993Y0409765D01*
X0341141Y0409765D01*
X0341289Y0409761D01*
X0341437Y0409753D01*
X0341584Y0409741D01*
X0341731Y0409725D01*
X0341878Y0409705D01*
X0342024Y0409681D01*
X0342170Y0409654D01*
X0342314Y0409622D01*
X0342458Y0409587D01*
X0342601Y0409547D01*
X0342742Y0409504D01*
X0342883Y0409457D01*
X0343022Y0409407D01*
X0343159Y0409352D01*
X0343295Y0409294D01*
X0343430Y0409233D01*
X0343563Y0409168D01*
X0343694Y0409099D01*
X0343823Y0409027D01*
X0343950Y0408951D01*
X0344075Y0408872D01*
X0344198Y0408789D01*
X0344319Y0408704D01*
X0344437Y0408615D01*
X0344553Y0408523D01*
X0344666Y0408427D01*
X0344777Y0408329D01*
X0344885Y0408228D01*
X0344991Y0408124D01*
X0345093Y0408018D01*
X0345193Y0407908D01*
X0345289Y0407796D01*
X0345383Y0407681D01*
X0345474Y0407564D01*
X0345561Y0407445D01*
X0345645Y0407323D01*
X0345726Y0407199D01*
X0345803Y0407073D01*
X0345877Y0406945D01*
X0345948Y0406815D01*
X0346015Y0406683D01*
X0346078Y0406549D01*
X0346138Y0406414D01*
X0346194Y0406277D01*
X0346247Y0406138D01*
X0346295Y0405998D01*
X0346340Y0405857D01*
X0346381Y0405715D01*
X0346419Y0405572D01*
X0346452Y0405428D01*
X0346482Y0405283D01*
X0346508Y0405137D01*
X0346529Y0404991D01*
X0346547Y0404844D01*
X0346561Y0404697D01*
X0346571Y0404549D01*
X0346577Y0404401D01*
X0346579Y0404253D01*
X0346577Y0404105D01*
X0346571Y0403957D01*
X0346561Y0403809D01*
X0346547Y0403662D01*
X0346529Y0403515D01*
X0346508Y0403369D01*
X0346482Y0403223D01*
X0346452Y0403078D01*
X0346419Y0402934D01*
X0346381Y0402791D01*
X0346340Y0402649D01*
X0346295Y0402508D01*
X0346247Y0402368D01*
X0346194Y0402229D01*
X0346138Y0402092D01*
X0346078Y0401957D01*
X0346015Y0401823D01*
X0345948Y0401691D01*
X0345877Y0401561D01*
X0345803Y0401433D01*
X0345726Y0401307D01*
X0345645Y0401183D01*
X0345561Y0401061D01*
X0345474Y0400942D01*
X0345383Y0400825D01*
X0345289Y0400710D01*
X0345193Y0400598D01*
X0345093Y0400488D01*
X0344991Y0400382D01*
X0344885Y0400278D01*
X0344777Y0400177D01*
X0344666Y0400079D01*
X0344553Y0399983D01*
X0344437Y0399891D01*
X0344319Y0399802D01*
X0344198Y0399717D01*
X0344075Y0399634D01*
X0343950Y0399555D01*
X0343823Y0399479D01*
X0343694Y0399407D01*
X0343563Y0399338D01*
X0343430Y0399273D01*
X0343295Y0399212D01*
X0343159Y0399154D01*
X0343022Y0399099D01*
X0342883Y0399049D01*
X0342742Y0399002D01*
X0342601Y0398959D01*
X0342458Y0398919D01*
X0342314Y0398884D01*
X0342170Y0398852D01*
X0342024Y0398825D01*
X0341878Y0398801D01*
X0341731Y0398781D01*
X0341584Y0398765D01*
X0341437Y0398753D01*
X0341289Y0398745D01*
X0341141Y0398741D01*
X0340993Y0398741D01*
X0340845Y0398745D01*
X0340697Y0398753D01*
X0340550Y0398765D01*
X0340403Y0398781D01*
X0340256Y0398801D01*
X0340110Y0398825D01*
X0339964Y0398852D01*
X0339820Y0398884D01*
X0339676Y0398919D01*
X0339533Y0398959D01*
X0339392Y0399002D01*
X0339251Y0399049D01*
X0339112Y0399099D01*
X0338975Y0399154D01*
X0338839Y0399212D01*
X0338704Y0399273D01*
X0338571Y0399338D01*
X0338440Y0399407D01*
X0338311Y0399479D01*
X0338184Y0399555D01*
X0338059Y0399634D01*
X0337936Y0399717D01*
X0337815Y0399802D01*
X0337697Y0399891D01*
X0337581Y0399983D01*
X0337468Y0400079D01*
X0337357Y0400177D01*
X0337249Y0400278D01*
X0337143Y0400382D01*
X0337041Y0400488D01*
X0336941Y0400598D01*
X0336845Y0400710D01*
X0336751Y0400825D01*
X0336660Y0400942D01*
X0336573Y0401061D01*
X0336489Y0401183D01*
X0336408Y0401307D01*
X0336331Y0401433D01*
X0336257Y0401561D01*
X0336186Y0401691D01*
X0336119Y0401823D01*
X0336056Y0401957D01*
X0335996Y0402092D01*
X0335940Y0402229D01*
X0335887Y0402368D01*
X0335839Y0402508D01*
X0335794Y0402649D01*
X0335753Y0402791D01*
X0335715Y0402934D01*
X0335682Y0403078D01*
X0335652Y0403223D01*
X0335626Y0403369D01*
X0335605Y0403515D01*
X0335587Y0403662D01*
X0335573Y0403809D01*
X0335563Y0403957D01*
X0335557Y0404105D01*
X0335555Y0404253D01*
X0105141Y0097166D02*
X0105143Y0097265D01*
X0105149Y0097364D01*
X0105159Y0097463D01*
X0105173Y0097561D01*
X0105191Y0097658D01*
X0105213Y0097755D01*
X0105238Y0097851D01*
X0105268Y0097945D01*
X0105301Y0098039D01*
X0105338Y0098131D01*
X0105379Y0098221D01*
X0105423Y0098310D01*
X0105471Y0098396D01*
X0105522Y0098481D01*
X0105577Y0098564D01*
X0105635Y0098644D01*
X0105696Y0098722D01*
X0105760Y0098798D01*
X0105827Y0098871D01*
X0105897Y0098941D01*
X0105970Y0099008D01*
X0106046Y0099072D01*
X0106124Y0099133D01*
X0106204Y0099191D01*
X0106287Y0099246D01*
X0106371Y0099297D01*
X0106458Y0099345D01*
X0106547Y0099389D01*
X0106637Y0099430D01*
X0106729Y0099467D01*
X0106823Y0099500D01*
X0106917Y0099530D01*
X0107013Y0099555D01*
X0107110Y0099577D01*
X0107207Y0099595D01*
X0107305Y0099609D01*
X0107404Y0099619D01*
X0107503Y0099625D01*
X0107602Y0099627D01*
X0107701Y0099625D01*
X0107800Y0099619D01*
X0107899Y0099609D01*
X0107997Y0099595D01*
X0108094Y0099577D01*
X0108191Y0099555D01*
X0108287Y0099530D01*
X0108381Y0099500D01*
X0108475Y0099467D01*
X0108567Y0099430D01*
X0108657Y0099389D01*
X0108746Y0099345D01*
X0108832Y0099297D01*
X0108917Y0099246D01*
X0109000Y0099191D01*
X0109080Y0099133D01*
X0109158Y0099072D01*
X0109234Y0099008D01*
X0109307Y0098941D01*
X0109377Y0098871D01*
X0109444Y0098798D01*
X0109508Y0098722D01*
X0109569Y0098644D01*
X0109627Y0098564D01*
X0109682Y0098481D01*
X0109733Y0098397D01*
X0109781Y0098310D01*
X0109825Y0098221D01*
X0109866Y0098131D01*
X0109903Y0098039D01*
X0109936Y0097945D01*
X0109966Y0097851D01*
X0109991Y0097755D01*
X0110013Y0097658D01*
X0110031Y0097561D01*
X0110045Y0097463D01*
X0110055Y0097364D01*
X0110061Y0097265D01*
X0110063Y0097166D01*
X0110061Y0097067D01*
X0110055Y0096968D01*
X0110045Y0096869D01*
X0110031Y0096771D01*
X0110013Y0096674D01*
X0109991Y0096577D01*
X0109966Y0096481D01*
X0109936Y0096387D01*
X0109903Y0096293D01*
X0109866Y0096201D01*
X0109825Y0096111D01*
X0109781Y0096022D01*
X0109733Y0095936D01*
X0109682Y0095851D01*
X0109627Y0095768D01*
X0109569Y0095688D01*
X0109508Y0095610D01*
X0109444Y0095534D01*
X0109377Y0095461D01*
X0109307Y0095391D01*
X0109234Y0095324D01*
X0109158Y0095260D01*
X0109080Y0095199D01*
X0109000Y0095141D01*
X0108917Y0095086D01*
X0108833Y0095035D01*
X0108746Y0094987D01*
X0108657Y0094943D01*
X0108567Y0094902D01*
X0108475Y0094865D01*
X0108381Y0094832D01*
X0108287Y0094802D01*
X0108191Y0094777D01*
X0108094Y0094755D01*
X0107997Y0094737D01*
X0107899Y0094723D01*
X0107800Y0094713D01*
X0107701Y0094707D01*
X0107602Y0094705D01*
X0107503Y0094707D01*
X0107404Y0094713D01*
X0107305Y0094723D01*
X0107207Y0094737D01*
X0107110Y0094755D01*
X0107013Y0094777D01*
X0106917Y0094802D01*
X0106823Y0094832D01*
X0106729Y0094865D01*
X0106637Y0094902D01*
X0106547Y0094943D01*
X0106458Y0094987D01*
X0106372Y0095035D01*
X0106287Y0095086D01*
X0106204Y0095141D01*
X0106124Y0095199D01*
X0106046Y0095260D01*
X0105970Y0095324D01*
X0105897Y0095391D01*
X0105827Y0095461D01*
X0105760Y0095534D01*
X0105696Y0095610D01*
X0105635Y0095688D01*
X0105577Y0095768D01*
X0105522Y0095851D01*
X0105471Y0095935D01*
X0105423Y0096022D01*
X0105379Y0096111D01*
X0105338Y0096201D01*
X0105301Y0096293D01*
X0105268Y0096387D01*
X0105238Y0096481D01*
X0105213Y0096577D01*
X0105191Y0096674D01*
X0105173Y0096771D01*
X0105159Y0096869D01*
X0105149Y0096968D01*
X0105143Y0097067D01*
X0105141Y0097166D01*
X0060259Y0073544D02*
X0060261Y0073643D01*
X0060267Y0073742D01*
X0060277Y0073841D01*
X0060291Y0073939D01*
X0060309Y0074036D01*
X0060331Y0074133D01*
X0060356Y0074229D01*
X0060386Y0074323D01*
X0060419Y0074417D01*
X0060456Y0074509D01*
X0060497Y0074599D01*
X0060541Y0074688D01*
X0060589Y0074774D01*
X0060640Y0074859D01*
X0060695Y0074942D01*
X0060753Y0075022D01*
X0060814Y0075100D01*
X0060878Y0075176D01*
X0060945Y0075249D01*
X0061015Y0075319D01*
X0061088Y0075386D01*
X0061164Y0075450D01*
X0061242Y0075511D01*
X0061322Y0075569D01*
X0061405Y0075624D01*
X0061489Y0075675D01*
X0061576Y0075723D01*
X0061665Y0075767D01*
X0061755Y0075808D01*
X0061847Y0075845D01*
X0061941Y0075878D01*
X0062035Y0075908D01*
X0062131Y0075933D01*
X0062228Y0075955D01*
X0062325Y0075973D01*
X0062423Y0075987D01*
X0062522Y0075997D01*
X0062621Y0076003D01*
X0062720Y0076005D01*
X0062819Y0076003D01*
X0062918Y0075997D01*
X0063017Y0075987D01*
X0063115Y0075973D01*
X0063212Y0075955D01*
X0063309Y0075933D01*
X0063405Y0075908D01*
X0063499Y0075878D01*
X0063593Y0075845D01*
X0063685Y0075808D01*
X0063775Y0075767D01*
X0063864Y0075723D01*
X0063950Y0075675D01*
X0064035Y0075624D01*
X0064118Y0075569D01*
X0064198Y0075511D01*
X0064276Y0075450D01*
X0064352Y0075386D01*
X0064425Y0075319D01*
X0064495Y0075249D01*
X0064562Y0075176D01*
X0064626Y0075100D01*
X0064687Y0075022D01*
X0064745Y0074942D01*
X0064800Y0074859D01*
X0064851Y0074775D01*
X0064899Y0074688D01*
X0064943Y0074599D01*
X0064984Y0074509D01*
X0065021Y0074417D01*
X0065054Y0074323D01*
X0065084Y0074229D01*
X0065109Y0074133D01*
X0065131Y0074036D01*
X0065149Y0073939D01*
X0065163Y0073841D01*
X0065173Y0073742D01*
X0065179Y0073643D01*
X0065181Y0073544D01*
X0065179Y0073445D01*
X0065173Y0073346D01*
X0065163Y0073247D01*
X0065149Y0073149D01*
X0065131Y0073052D01*
X0065109Y0072955D01*
X0065084Y0072859D01*
X0065054Y0072765D01*
X0065021Y0072671D01*
X0064984Y0072579D01*
X0064943Y0072489D01*
X0064899Y0072400D01*
X0064851Y0072314D01*
X0064800Y0072229D01*
X0064745Y0072146D01*
X0064687Y0072066D01*
X0064626Y0071988D01*
X0064562Y0071912D01*
X0064495Y0071839D01*
X0064425Y0071769D01*
X0064352Y0071702D01*
X0064276Y0071638D01*
X0064198Y0071577D01*
X0064118Y0071519D01*
X0064035Y0071464D01*
X0063951Y0071413D01*
X0063864Y0071365D01*
X0063775Y0071321D01*
X0063685Y0071280D01*
X0063593Y0071243D01*
X0063499Y0071210D01*
X0063405Y0071180D01*
X0063309Y0071155D01*
X0063212Y0071133D01*
X0063115Y0071115D01*
X0063017Y0071101D01*
X0062918Y0071091D01*
X0062819Y0071085D01*
X0062720Y0071083D01*
X0062621Y0071085D01*
X0062522Y0071091D01*
X0062423Y0071101D01*
X0062325Y0071115D01*
X0062228Y0071133D01*
X0062131Y0071155D01*
X0062035Y0071180D01*
X0061941Y0071210D01*
X0061847Y0071243D01*
X0061755Y0071280D01*
X0061665Y0071321D01*
X0061576Y0071365D01*
X0061490Y0071413D01*
X0061405Y0071464D01*
X0061322Y0071519D01*
X0061242Y0071577D01*
X0061164Y0071638D01*
X0061088Y0071702D01*
X0061015Y0071769D01*
X0060945Y0071839D01*
X0060878Y0071912D01*
X0060814Y0071988D01*
X0060753Y0072066D01*
X0060695Y0072146D01*
X0060640Y0072229D01*
X0060589Y0072313D01*
X0060541Y0072400D01*
X0060497Y0072489D01*
X0060456Y0072579D01*
X0060419Y0072671D01*
X0060386Y0072765D01*
X0060356Y0072859D01*
X0060331Y0072955D01*
X0060309Y0073052D01*
X0060291Y0073149D01*
X0060277Y0073247D01*
X0060267Y0073346D01*
X0060261Y0073445D01*
X0060259Y0073544D01*
X0125280Y0026300D02*
X0238075Y0026300D01*
D11*
X0209177Y0078800D03*
X0174669Y0408190D03*
M02*
