G04 EAGLE Gerber RS-274X export*
G75*
%MOMM*%
%FSLAX34Y34*%
%LPD*%
%INTop Layer*%
%IPPOS*%
%AMOC8*
5,1,8,0,0,1.08239X$1,22.5*%
G01*
%ADD10C,0.000000*%
%ADD11R,1.350000X1.350000*%
%ADD12C,1.350000*%
%ADD13R,1.000000X1.100000*%
%ADD14C,1.651000*%
%ADD15R,1.800000X1.600000*%
%ADD16C,1.143000*%
%ADD17R,1.600000X1.800000*%
%ADD18C,1.408000*%
%ADD19R,1.408000X1.408000*%
%ADD20R,0.609600X2.209800*%
%ADD21C,1.879600*%
%ADD22R,1.600000X2.000000*%
%ADD23R,2.000000X1.600000*%
%ADD24R,1.320800X2.184400*%
%ADD25R,1.879600X1.879600*%
%ADD26P,3.247170X8X22.500000*%
%ADD27R,1.320800X1.320800*%
%ADD28C,1.320800*%
%ADD29R,1.981200X0.558800*%
%ADD30R,1.270000X0.558800*%
%ADD31R,0.558800X1.270000*%
%ADD32P,3.247170X8X112.500000*%
%ADD33P,3.247170X8X202.500000*%
%ADD34P,3.247170X8X292.500000*%
%ADD35R,3.100000X0.800000*%
%ADD36R,1.270000X2.540000*%
%ADD37C,1.950000*%
%ADD38R,1.600000X1.000000*%
%ADD39R,6.200000X5.400000*%
%ADD40P,2.336880X8X22.500000*%
%ADD41R,2.400000X2.400000*%
%ADD42R,1.270000X1.270000*%
%ADD43C,0.812800*%
%ADD44C,2.200000*%
%ADD45C,1.700000*%
%ADD46C,1.879600*%
%ADD47P,1.429621X8X22.500000*%
%ADD48R,1.720000X0.600000*%
%ADD49P,2.336880X8X202.500000*%
%ADD50C,0.203200*%
%ADD51C,0.604800*%
%ADD52C,0.254000*%


D10*
X33000Y63500D02*
X127000Y0D01*
X843000Y820000D02*
X917000Y820000D01*
X843000Y820000D02*
X843000Y990000D01*
X750000Y1000000D01*
X525000Y1000000D01*
X525000Y900000D01*
X425000Y900000D01*
X425000Y1000000D01*
X200000Y1000000D01*
X107000Y990000D01*
X107000Y820000D01*
X33000Y820000D01*
X127000Y0D02*
X823000Y0D01*
X917000Y63000D01*
X917000Y820000D01*
X33000Y820000D02*
X33000Y63500D01*
D11*
X88900Y637700D03*
D12*
X88900Y657700D03*
D11*
X393700Y790100D03*
D12*
X393700Y810100D03*
D11*
X330200Y810100D03*
D12*
X330200Y790100D03*
D13*
X844550Y707000D03*
X844550Y690000D03*
X793750Y707000D03*
X793750Y690000D03*
D14*
X628650Y635000D03*
X628650Y660400D03*
D11*
X358300Y863600D03*
D12*
X378300Y863600D03*
D15*
X139700Y649000D03*
X139700Y621000D03*
D16*
X329800Y520700D03*
X279800Y520700D03*
D11*
X326550Y933450D03*
D12*
X346550Y933450D03*
D17*
X280700Y882650D03*
X252700Y882650D03*
X309850Y755650D03*
X337850Y755650D03*
D18*
X279400Y914400D03*
D19*
X254000Y914400D03*
D20*
X247650Y761238D03*
X260350Y761238D03*
X273050Y761238D03*
X285750Y761238D03*
X285750Y813562D03*
X273050Y813562D03*
X260350Y813562D03*
X247650Y813562D03*
D21*
X571500Y796798D02*
X571500Y778002D01*
X596900Y778002D02*
X596900Y796798D01*
X622300Y796798D02*
X622300Y778002D01*
X647700Y778002D02*
X647700Y796798D01*
X673100Y796798D02*
X673100Y778002D01*
X698500Y778002D02*
X698500Y796798D01*
D22*
X252700Y850900D03*
X280700Y850900D03*
X309850Y723900D03*
X337850Y723900D03*
X347950Y685800D03*
X375950Y685800D03*
D23*
X374650Y750600D03*
X374650Y722600D03*
D24*
X438180Y726850D03*
X425450Y682850D03*
X412720Y726850D03*
D22*
X712500Y825500D03*
X684500Y825500D03*
D23*
X317500Y877600D03*
X317500Y849600D03*
X177800Y621000D03*
X177800Y649000D03*
D22*
X278100Y590550D03*
X306100Y590550D03*
D23*
X311150Y395000D03*
X311150Y367000D03*
X139700Y557500D03*
X139700Y585500D03*
X323850Y649000D03*
X323850Y621000D03*
X279400Y649000D03*
X279400Y621000D03*
D24*
X215870Y613000D03*
X228600Y657000D03*
X241330Y613000D03*
D25*
X210000Y845000D03*
X210000Y820000D03*
X210000Y795000D03*
D26*
X140000Y864000D03*
X140000Y776000D03*
D10*
X135000Y820000D02*
X135002Y820141D01*
X135008Y820282D01*
X135018Y820422D01*
X135032Y820562D01*
X135050Y820702D01*
X135071Y820841D01*
X135097Y820980D01*
X135126Y821118D01*
X135160Y821254D01*
X135197Y821390D01*
X135238Y821525D01*
X135283Y821659D01*
X135332Y821791D01*
X135384Y821922D01*
X135440Y822051D01*
X135500Y822178D01*
X135563Y822304D01*
X135629Y822428D01*
X135700Y822551D01*
X135773Y822671D01*
X135850Y822789D01*
X135930Y822905D01*
X136014Y823018D01*
X136100Y823129D01*
X136190Y823238D01*
X136283Y823344D01*
X136378Y823447D01*
X136477Y823548D01*
X136578Y823646D01*
X136682Y823741D01*
X136789Y823833D01*
X136898Y823922D01*
X137010Y824007D01*
X137124Y824090D01*
X137240Y824170D01*
X137359Y824246D01*
X137480Y824318D01*
X137602Y824388D01*
X137727Y824453D01*
X137853Y824516D01*
X137981Y824574D01*
X138111Y824629D01*
X138242Y824681D01*
X138375Y824728D01*
X138509Y824772D01*
X138644Y824813D01*
X138780Y824849D01*
X138917Y824881D01*
X139055Y824910D01*
X139193Y824935D01*
X139333Y824955D01*
X139473Y824972D01*
X139613Y824985D01*
X139754Y824994D01*
X139894Y824999D01*
X140035Y825000D01*
X140176Y824997D01*
X140317Y824990D01*
X140457Y824979D01*
X140597Y824964D01*
X140737Y824945D01*
X140876Y824923D01*
X141014Y824896D01*
X141152Y824866D01*
X141288Y824831D01*
X141424Y824793D01*
X141558Y824751D01*
X141692Y824705D01*
X141824Y824656D01*
X141954Y824602D01*
X142083Y824545D01*
X142210Y824485D01*
X142336Y824421D01*
X142459Y824353D01*
X142581Y824282D01*
X142701Y824208D01*
X142818Y824130D01*
X142933Y824049D01*
X143046Y823965D01*
X143157Y823878D01*
X143265Y823787D01*
X143370Y823694D01*
X143473Y823597D01*
X143573Y823498D01*
X143670Y823396D01*
X143764Y823291D01*
X143855Y823184D01*
X143943Y823074D01*
X144028Y822962D01*
X144110Y822847D01*
X144189Y822730D01*
X144264Y822611D01*
X144336Y822490D01*
X144404Y822367D01*
X144469Y822242D01*
X144531Y822115D01*
X144588Y821986D01*
X144643Y821856D01*
X144693Y821725D01*
X144740Y821592D01*
X144783Y821458D01*
X144822Y821322D01*
X144857Y821186D01*
X144889Y821049D01*
X144916Y820911D01*
X144940Y820772D01*
X144960Y820632D01*
X144976Y820492D01*
X144988Y820352D01*
X144996Y820211D01*
X145000Y820070D01*
X145000Y819930D01*
X144996Y819789D01*
X144988Y819648D01*
X144976Y819508D01*
X144960Y819368D01*
X144940Y819228D01*
X144916Y819089D01*
X144889Y818951D01*
X144857Y818814D01*
X144822Y818678D01*
X144783Y818542D01*
X144740Y818408D01*
X144693Y818275D01*
X144643Y818144D01*
X144588Y818014D01*
X144531Y817885D01*
X144469Y817758D01*
X144404Y817633D01*
X144336Y817510D01*
X144264Y817389D01*
X144189Y817270D01*
X144110Y817153D01*
X144028Y817038D01*
X143943Y816926D01*
X143855Y816816D01*
X143764Y816709D01*
X143670Y816604D01*
X143573Y816502D01*
X143473Y816403D01*
X143370Y816306D01*
X143265Y816213D01*
X143157Y816122D01*
X143046Y816035D01*
X142933Y815951D01*
X142818Y815870D01*
X142701Y815792D01*
X142581Y815718D01*
X142459Y815647D01*
X142336Y815579D01*
X142210Y815515D01*
X142083Y815455D01*
X141954Y815398D01*
X141824Y815344D01*
X141692Y815295D01*
X141558Y815249D01*
X141424Y815207D01*
X141288Y815169D01*
X141152Y815134D01*
X141014Y815104D01*
X140876Y815077D01*
X140737Y815055D01*
X140597Y815036D01*
X140457Y815021D01*
X140317Y815010D01*
X140176Y815003D01*
X140035Y815000D01*
X139894Y815001D01*
X139754Y815006D01*
X139613Y815015D01*
X139473Y815028D01*
X139333Y815045D01*
X139193Y815065D01*
X139055Y815090D01*
X138917Y815119D01*
X138780Y815151D01*
X138644Y815187D01*
X138509Y815228D01*
X138375Y815272D01*
X138242Y815319D01*
X138111Y815371D01*
X137981Y815426D01*
X137853Y815484D01*
X137727Y815547D01*
X137602Y815612D01*
X137480Y815682D01*
X137359Y815754D01*
X137240Y815830D01*
X137124Y815910D01*
X137010Y815993D01*
X136898Y816078D01*
X136789Y816167D01*
X136682Y816259D01*
X136578Y816354D01*
X136477Y816452D01*
X136378Y816553D01*
X136283Y816656D01*
X136190Y816762D01*
X136100Y816871D01*
X136014Y816982D01*
X135930Y817095D01*
X135850Y817211D01*
X135773Y817329D01*
X135700Y817449D01*
X135629Y817572D01*
X135563Y817696D01*
X135500Y817822D01*
X135440Y817949D01*
X135384Y818078D01*
X135332Y818209D01*
X135283Y818341D01*
X135238Y818475D01*
X135197Y818610D01*
X135160Y818746D01*
X135126Y818882D01*
X135097Y819020D01*
X135071Y819159D01*
X135050Y819298D01*
X135032Y819438D01*
X135018Y819578D01*
X135008Y819718D01*
X135002Y819859D01*
X135000Y820000D01*
D27*
X273050Y711200D03*
D28*
X247650Y717804D02*
X247650Y704596D01*
X222250Y704596D02*
X222250Y717804D01*
X196850Y717804D02*
X196850Y704596D01*
X171450Y704596D02*
X171450Y717804D01*
X146050Y717804D02*
X146050Y704596D01*
X120650Y704596D02*
X120650Y717804D01*
X95250Y717804D02*
X95250Y704596D01*
D29*
X240538Y527050D03*
X240538Y539750D03*
X240538Y552450D03*
X240538Y565150D03*
X191262Y565150D03*
X191262Y552450D03*
X191262Y539750D03*
X191262Y527050D03*
D30*
X741426Y613350D03*
X741426Y621350D03*
X741426Y629350D03*
X741426Y637350D03*
X741426Y645350D03*
X741426Y653350D03*
X741426Y661350D03*
X741426Y669350D03*
D31*
X726500Y684276D03*
X718500Y684276D03*
X710500Y684276D03*
X702500Y684276D03*
X694500Y684276D03*
X686500Y684276D03*
X678500Y684276D03*
X670500Y684276D03*
D30*
X655574Y669350D03*
X655574Y661350D03*
X655574Y653350D03*
X655574Y645350D03*
X655574Y637350D03*
X655574Y629350D03*
X655574Y621350D03*
X655574Y613350D03*
D31*
X670500Y598424D03*
X678500Y598424D03*
X686500Y598424D03*
X694500Y598424D03*
X702500Y598424D03*
X710500Y598424D03*
X718500Y598424D03*
X726500Y598424D03*
D14*
X793750Y647700D03*
X844550Y647700D03*
D23*
X800100Y532100D03*
X800100Y560100D03*
X831850Y532100D03*
X831850Y560100D03*
X863600Y532100D03*
X863600Y560100D03*
X768350Y532100D03*
X768350Y560100D03*
D25*
X450000Y580000D03*
X475000Y580000D03*
X500000Y580000D03*
D32*
X431000Y510000D03*
X519000Y510000D03*
D10*
X470000Y510000D02*
X470002Y510141D01*
X470008Y510282D01*
X470018Y510422D01*
X470032Y510562D01*
X470050Y510702D01*
X470071Y510841D01*
X470097Y510980D01*
X470126Y511118D01*
X470160Y511254D01*
X470197Y511390D01*
X470238Y511525D01*
X470283Y511659D01*
X470332Y511791D01*
X470384Y511922D01*
X470440Y512051D01*
X470500Y512178D01*
X470563Y512304D01*
X470629Y512428D01*
X470700Y512551D01*
X470773Y512671D01*
X470850Y512789D01*
X470930Y512905D01*
X471014Y513018D01*
X471100Y513129D01*
X471190Y513238D01*
X471283Y513344D01*
X471378Y513447D01*
X471477Y513548D01*
X471578Y513646D01*
X471682Y513741D01*
X471789Y513833D01*
X471898Y513922D01*
X472010Y514007D01*
X472124Y514090D01*
X472240Y514170D01*
X472359Y514246D01*
X472480Y514318D01*
X472602Y514388D01*
X472727Y514453D01*
X472853Y514516D01*
X472981Y514574D01*
X473111Y514629D01*
X473242Y514681D01*
X473375Y514728D01*
X473509Y514772D01*
X473644Y514813D01*
X473780Y514849D01*
X473917Y514881D01*
X474055Y514910D01*
X474193Y514935D01*
X474333Y514955D01*
X474473Y514972D01*
X474613Y514985D01*
X474754Y514994D01*
X474894Y514999D01*
X475035Y515000D01*
X475176Y514997D01*
X475317Y514990D01*
X475457Y514979D01*
X475597Y514964D01*
X475737Y514945D01*
X475876Y514923D01*
X476014Y514896D01*
X476152Y514866D01*
X476288Y514831D01*
X476424Y514793D01*
X476558Y514751D01*
X476692Y514705D01*
X476824Y514656D01*
X476954Y514602D01*
X477083Y514545D01*
X477210Y514485D01*
X477336Y514421D01*
X477459Y514353D01*
X477581Y514282D01*
X477701Y514208D01*
X477818Y514130D01*
X477933Y514049D01*
X478046Y513965D01*
X478157Y513878D01*
X478265Y513787D01*
X478370Y513694D01*
X478473Y513597D01*
X478573Y513498D01*
X478670Y513396D01*
X478764Y513291D01*
X478855Y513184D01*
X478943Y513074D01*
X479028Y512962D01*
X479110Y512847D01*
X479189Y512730D01*
X479264Y512611D01*
X479336Y512490D01*
X479404Y512367D01*
X479469Y512242D01*
X479531Y512115D01*
X479588Y511986D01*
X479643Y511856D01*
X479693Y511725D01*
X479740Y511592D01*
X479783Y511458D01*
X479822Y511322D01*
X479857Y511186D01*
X479889Y511049D01*
X479916Y510911D01*
X479940Y510772D01*
X479960Y510632D01*
X479976Y510492D01*
X479988Y510352D01*
X479996Y510211D01*
X480000Y510070D01*
X480000Y509930D01*
X479996Y509789D01*
X479988Y509648D01*
X479976Y509508D01*
X479960Y509368D01*
X479940Y509228D01*
X479916Y509089D01*
X479889Y508951D01*
X479857Y508814D01*
X479822Y508678D01*
X479783Y508542D01*
X479740Y508408D01*
X479693Y508275D01*
X479643Y508144D01*
X479588Y508014D01*
X479531Y507885D01*
X479469Y507758D01*
X479404Y507633D01*
X479336Y507510D01*
X479264Y507389D01*
X479189Y507270D01*
X479110Y507153D01*
X479028Y507038D01*
X478943Y506926D01*
X478855Y506816D01*
X478764Y506709D01*
X478670Y506604D01*
X478573Y506502D01*
X478473Y506403D01*
X478370Y506306D01*
X478265Y506213D01*
X478157Y506122D01*
X478046Y506035D01*
X477933Y505951D01*
X477818Y505870D01*
X477701Y505792D01*
X477581Y505718D01*
X477459Y505647D01*
X477336Y505579D01*
X477210Y505515D01*
X477083Y505455D01*
X476954Y505398D01*
X476824Y505344D01*
X476692Y505295D01*
X476558Y505249D01*
X476424Y505207D01*
X476288Y505169D01*
X476152Y505134D01*
X476014Y505104D01*
X475876Y505077D01*
X475737Y505055D01*
X475597Y505036D01*
X475457Y505021D01*
X475317Y505010D01*
X475176Y505003D01*
X475035Y505000D01*
X474894Y505001D01*
X474754Y505006D01*
X474613Y505015D01*
X474473Y505028D01*
X474333Y505045D01*
X474193Y505065D01*
X474055Y505090D01*
X473917Y505119D01*
X473780Y505151D01*
X473644Y505187D01*
X473509Y505228D01*
X473375Y505272D01*
X473242Y505319D01*
X473111Y505371D01*
X472981Y505426D01*
X472853Y505484D01*
X472727Y505547D01*
X472602Y505612D01*
X472480Y505682D01*
X472359Y505754D01*
X472240Y505830D01*
X472124Y505910D01*
X472010Y505993D01*
X471898Y506078D01*
X471789Y506167D01*
X471682Y506259D01*
X471578Y506354D01*
X471477Y506452D01*
X471378Y506553D01*
X471283Y506656D01*
X471190Y506762D01*
X471100Y506871D01*
X471014Y506982D01*
X470930Y507095D01*
X470850Y507211D01*
X470773Y507329D01*
X470700Y507449D01*
X470629Y507572D01*
X470563Y507696D01*
X470500Y507822D01*
X470440Y507949D01*
X470384Y508078D01*
X470332Y508209D01*
X470283Y508341D01*
X470238Y508475D01*
X470197Y508610D01*
X470160Y508746D01*
X470126Y508882D01*
X470097Y509020D01*
X470071Y509159D01*
X470050Y509298D01*
X470032Y509438D01*
X470018Y509578D01*
X470008Y509718D01*
X470002Y509859D01*
X470000Y510000D01*
D25*
X740000Y795000D03*
X740000Y820000D03*
X740000Y845000D03*
D33*
X810000Y776000D03*
X810000Y864000D03*
D10*
X805000Y820000D02*
X805002Y820141D01*
X805008Y820282D01*
X805018Y820422D01*
X805032Y820562D01*
X805050Y820702D01*
X805071Y820841D01*
X805097Y820980D01*
X805126Y821118D01*
X805160Y821254D01*
X805197Y821390D01*
X805238Y821525D01*
X805283Y821659D01*
X805332Y821791D01*
X805384Y821922D01*
X805440Y822051D01*
X805500Y822178D01*
X805563Y822304D01*
X805629Y822428D01*
X805700Y822551D01*
X805773Y822671D01*
X805850Y822789D01*
X805930Y822905D01*
X806014Y823018D01*
X806100Y823129D01*
X806190Y823238D01*
X806283Y823344D01*
X806378Y823447D01*
X806477Y823548D01*
X806578Y823646D01*
X806682Y823741D01*
X806789Y823833D01*
X806898Y823922D01*
X807010Y824007D01*
X807124Y824090D01*
X807240Y824170D01*
X807359Y824246D01*
X807480Y824318D01*
X807602Y824388D01*
X807727Y824453D01*
X807853Y824516D01*
X807981Y824574D01*
X808111Y824629D01*
X808242Y824681D01*
X808375Y824728D01*
X808509Y824772D01*
X808644Y824813D01*
X808780Y824849D01*
X808917Y824881D01*
X809055Y824910D01*
X809193Y824935D01*
X809333Y824955D01*
X809473Y824972D01*
X809613Y824985D01*
X809754Y824994D01*
X809894Y824999D01*
X810035Y825000D01*
X810176Y824997D01*
X810317Y824990D01*
X810457Y824979D01*
X810597Y824964D01*
X810737Y824945D01*
X810876Y824923D01*
X811014Y824896D01*
X811152Y824866D01*
X811288Y824831D01*
X811424Y824793D01*
X811558Y824751D01*
X811692Y824705D01*
X811824Y824656D01*
X811954Y824602D01*
X812083Y824545D01*
X812210Y824485D01*
X812336Y824421D01*
X812459Y824353D01*
X812581Y824282D01*
X812701Y824208D01*
X812818Y824130D01*
X812933Y824049D01*
X813046Y823965D01*
X813157Y823878D01*
X813265Y823787D01*
X813370Y823694D01*
X813473Y823597D01*
X813573Y823498D01*
X813670Y823396D01*
X813764Y823291D01*
X813855Y823184D01*
X813943Y823074D01*
X814028Y822962D01*
X814110Y822847D01*
X814189Y822730D01*
X814264Y822611D01*
X814336Y822490D01*
X814404Y822367D01*
X814469Y822242D01*
X814531Y822115D01*
X814588Y821986D01*
X814643Y821856D01*
X814693Y821725D01*
X814740Y821592D01*
X814783Y821458D01*
X814822Y821322D01*
X814857Y821186D01*
X814889Y821049D01*
X814916Y820911D01*
X814940Y820772D01*
X814960Y820632D01*
X814976Y820492D01*
X814988Y820352D01*
X814996Y820211D01*
X815000Y820070D01*
X815000Y819930D01*
X814996Y819789D01*
X814988Y819648D01*
X814976Y819508D01*
X814960Y819368D01*
X814940Y819228D01*
X814916Y819089D01*
X814889Y818951D01*
X814857Y818814D01*
X814822Y818678D01*
X814783Y818542D01*
X814740Y818408D01*
X814693Y818275D01*
X814643Y818144D01*
X814588Y818014D01*
X814531Y817885D01*
X814469Y817758D01*
X814404Y817633D01*
X814336Y817510D01*
X814264Y817389D01*
X814189Y817270D01*
X814110Y817153D01*
X814028Y817038D01*
X813943Y816926D01*
X813855Y816816D01*
X813764Y816709D01*
X813670Y816604D01*
X813573Y816502D01*
X813473Y816403D01*
X813370Y816306D01*
X813265Y816213D01*
X813157Y816122D01*
X813046Y816035D01*
X812933Y815951D01*
X812818Y815870D01*
X812701Y815792D01*
X812581Y815718D01*
X812459Y815647D01*
X812336Y815579D01*
X812210Y815515D01*
X812083Y815455D01*
X811954Y815398D01*
X811824Y815344D01*
X811692Y815295D01*
X811558Y815249D01*
X811424Y815207D01*
X811288Y815169D01*
X811152Y815134D01*
X811014Y815104D01*
X810876Y815077D01*
X810737Y815055D01*
X810597Y815036D01*
X810457Y815021D01*
X810317Y815010D01*
X810176Y815003D01*
X810035Y815000D01*
X809894Y815001D01*
X809754Y815006D01*
X809613Y815015D01*
X809473Y815028D01*
X809333Y815045D01*
X809193Y815065D01*
X809055Y815090D01*
X808917Y815119D01*
X808780Y815151D01*
X808644Y815187D01*
X808509Y815228D01*
X808375Y815272D01*
X808242Y815319D01*
X808111Y815371D01*
X807981Y815426D01*
X807853Y815484D01*
X807727Y815547D01*
X807602Y815612D01*
X807480Y815682D01*
X807359Y815754D01*
X807240Y815830D01*
X807124Y815910D01*
X807010Y815993D01*
X806898Y816078D01*
X806789Y816167D01*
X806682Y816259D01*
X806578Y816354D01*
X806477Y816452D01*
X806378Y816553D01*
X806283Y816656D01*
X806190Y816762D01*
X806100Y816871D01*
X806014Y816982D01*
X805930Y817095D01*
X805850Y817211D01*
X805773Y817329D01*
X805700Y817449D01*
X805629Y817572D01*
X805563Y817696D01*
X805500Y817822D01*
X805440Y817949D01*
X805384Y818078D01*
X805332Y818209D01*
X805283Y818341D01*
X805238Y818475D01*
X805197Y818610D01*
X805160Y818746D01*
X805126Y818882D01*
X805097Y819020D01*
X805071Y819159D01*
X805050Y819298D01*
X805032Y819438D01*
X805018Y819578D01*
X805008Y819718D01*
X805002Y819859D01*
X805000Y820000D01*
D25*
X500000Y800000D03*
X475000Y800000D03*
X450000Y800000D03*
D34*
X519000Y870000D03*
X431000Y870000D03*
D10*
X470000Y870000D02*
X470002Y870141D01*
X470008Y870282D01*
X470018Y870422D01*
X470032Y870562D01*
X470050Y870702D01*
X470071Y870841D01*
X470097Y870980D01*
X470126Y871118D01*
X470160Y871254D01*
X470197Y871390D01*
X470238Y871525D01*
X470283Y871659D01*
X470332Y871791D01*
X470384Y871922D01*
X470440Y872051D01*
X470500Y872178D01*
X470563Y872304D01*
X470629Y872428D01*
X470700Y872551D01*
X470773Y872671D01*
X470850Y872789D01*
X470930Y872905D01*
X471014Y873018D01*
X471100Y873129D01*
X471190Y873238D01*
X471283Y873344D01*
X471378Y873447D01*
X471477Y873548D01*
X471578Y873646D01*
X471682Y873741D01*
X471789Y873833D01*
X471898Y873922D01*
X472010Y874007D01*
X472124Y874090D01*
X472240Y874170D01*
X472359Y874246D01*
X472480Y874318D01*
X472602Y874388D01*
X472727Y874453D01*
X472853Y874516D01*
X472981Y874574D01*
X473111Y874629D01*
X473242Y874681D01*
X473375Y874728D01*
X473509Y874772D01*
X473644Y874813D01*
X473780Y874849D01*
X473917Y874881D01*
X474055Y874910D01*
X474193Y874935D01*
X474333Y874955D01*
X474473Y874972D01*
X474613Y874985D01*
X474754Y874994D01*
X474894Y874999D01*
X475035Y875000D01*
X475176Y874997D01*
X475317Y874990D01*
X475457Y874979D01*
X475597Y874964D01*
X475737Y874945D01*
X475876Y874923D01*
X476014Y874896D01*
X476152Y874866D01*
X476288Y874831D01*
X476424Y874793D01*
X476558Y874751D01*
X476692Y874705D01*
X476824Y874656D01*
X476954Y874602D01*
X477083Y874545D01*
X477210Y874485D01*
X477336Y874421D01*
X477459Y874353D01*
X477581Y874282D01*
X477701Y874208D01*
X477818Y874130D01*
X477933Y874049D01*
X478046Y873965D01*
X478157Y873878D01*
X478265Y873787D01*
X478370Y873694D01*
X478473Y873597D01*
X478573Y873498D01*
X478670Y873396D01*
X478764Y873291D01*
X478855Y873184D01*
X478943Y873074D01*
X479028Y872962D01*
X479110Y872847D01*
X479189Y872730D01*
X479264Y872611D01*
X479336Y872490D01*
X479404Y872367D01*
X479469Y872242D01*
X479531Y872115D01*
X479588Y871986D01*
X479643Y871856D01*
X479693Y871725D01*
X479740Y871592D01*
X479783Y871458D01*
X479822Y871322D01*
X479857Y871186D01*
X479889Y871049D01*
X479916Y870911D01*
X479940Y870772D01*
X479960Y870632D01*
X479976Y870492D01*
X479988Y870352D01*
X479996Y870211D01*
X480000Y870070D01*
X480000Y869930D01*
X479996Y869789D01*
X479988Y869648D01*
X479976Y869508D01*
X479960Y869368D01*
X479940Y869228D01*
X479916Y869089D01*
X479889Y868951D01*
X479857Y868814D01*
X479822Y868678D01*
X479783Y868542D01*
X479740Y868408D01*
X479693Y868275D01*
X479643Y868144D01*
X479588Y868014D01*
X479531Y867885D01*
X479469Y867758D01*
X479404Y867633D01*
X479336Y867510D01*
X479264Y867389D01*
X479189Y867270D01*
X479110Y867153D01*
X479028Y867038D01*
X478943Y866926D01*
X478855Y866816D01*
X478764Y866709D01*
X478670Y866604D01*
X478573Y866502D01*
X478473Y866403D01*
X478370Y866306D01*
X478265Y866213D01*
X478157Y866122D01*
X478046Y866035D01*
X477933Y865951D01*
X477818Y865870D01*
X477701Y865792D01*
X477581Y865718D01*
X477459Y865647D01*
X477336Y865579D01*
X477210Y865515D01*
X477083Y865455D01*
X476954Y865398D01*
X476824Y865344D01*
X476692Y865295D01*
X476558Y865249D01*
X476424Y865207D01*
X476288Y865169D01*
X476152Y865134D01*
X476014Y865104D01*
X475876Y865077D01*
X475737Y865055D01*
X475597Y865036D01*
X475457Y865021D01*
X475317Y865010D01*
X475176Y865003D01*
X475035Y865000D01*
X474894Y865001D01*
X474754Y865006D01*
X474613Y865015D01*
X474473Y865028D01*
X474333Y865045D01*
X474193Y865065D01*
X474055Y865090D01*
X473917Y865119D01*
X473780Y865151D01*
X473644Y865187D01*
X473509Y865228D01*
X473375Y865272D01*
X473242Y865319D01*
X473111Y865371D01*
X472981Y865426D01*
X472853Y865484D01*
X472727Y865547D01*
X472602Y865612D01*
X472480Y865682D01*
X472359Y865754D01*
X472240Y865830D01*
X472124Y865910D01*
X472010Y865993D01*
X471898Y866078D01*
X471789Y866167D01*
X471682Y866259D01*
X471578Y866354D01*
X471477Y866452D01*
X471378Y866553D01*
X471283Y866656D01*
X471190Y866762D01*
X471100Y866871D01*
X471014Y866982D01*
X470930Y867095D01*
X470850Y867211D01*
X470773Y867329D01*
X470700Y867449D01*
X470629Y867572D01*
X470563Y867696D01*
X470500Y867822D01*
X470440Y867949D01*
X470384Y868078D01*
X470332Y868209D01*
X470283Y868341D01*
X470238Y868475D01*
X470197Y868610D01*
X470160Y868746D01*
X470126Y868882D01*
X470097Y869020D01*
X470071Y869159D01*
X470050Y869298D01*
X470032Y869438D01*
X470018Y869578D01*
X470008Y869718D01*
X470002Y869859D01*
X470000Y870000D01*
D23*
X266700Y367000D03*
X266700Y395000D03*
X895350Y532100D03*
X895350Y560100D03*
D35*
X430700Y317400D03*
X430700Y285400D03*
X430700Y263400D03*
X430700Y241400D03*
X483700Y317400D03*
X483700Y285400D03*
X483700Y263400D03*
X483700Y241400D03*
D36*
X571500Y327100D03*
X546100Y327100D03*
X546100Y257100D03*
X571500Y257100D03*
D23*
X615950Y464850D03*
X615950Y436850D03*
X654050Y436850D03*
X654050Y464850D03*
X692150Y436850D03*
X692150Y464850D03*
D37*
X89250Y218850D02*
X69750Y218850D01*
X69750Y381150D02*
X89250Y381150D01*
X196750Y218850D02*
X216250Y218850D01*
X216250Y381150D02*
X196750Y381150D01*
D10*
X128000Y211100D02*
X128005Y211468D01*
X128018Y211836D01*
X128041Y212203D01*
X128072Y212570D01*
X128113Y212936D01*
X128162Y213301D01*
X128221Y213664D01*
X128288Y214026D01*
X128364Y214387D01*
X128450Y214745D01*
X128543Y215101D01*
X128646Y215454D01*
X128757Y215805D01*
X128877Y216153D01*
X129005Y216498D01*
X129142Y216840D01*
X129287Y217179D01*
X129440Y217513D01*
X129602Y217844D01*
X129771Y218171D01*
X129949Y218493D01*
X130134Y218812D01*
X130327Y219125D01*
X130528Y219434D01*
X130736Y219737D01*
X130952Y220035D01*
X131175Y220328D01*
X131405Y220616D01*
X131642Y220898D01*
X131886Y221173D01*
X132136Y221443D01*
X132393Y221707D01*
X132657Y221964D01*
X132927Y222214D01*
X133202Y222458D01*
X133484Y222695D01*
X133772Y222925D01*
X134065Y223148D01*
X134363Y223364D01*
X134666Y223572D01*
X134975Y223773D01*
X135288Y223966D01*
X135607Y224151D01*
X135929Y224329D01*
X136256Y224498D01*
X136587Y224660D01*
X136921Y224813D01*
X137260Y224958D01*
X137602Y225095D01*
X137947Y225223D01*
X138295Y225343D01*
X138646Y225454D01*
X138999Y225557D01*
X139355Y225650D01*
X139713Y225736D01*
X140074Y225812D01*
X140436Y225879D01*
X140799Y225938D01*
X141164Y225987D01*
X141530Y226028D01*
X141897Y226059D01*
X142264Y226082D01*
X142632Y226095D01*
X143000Y226100D01*
X143368Y226095D01*
X143736Y226082D01*
X144103Y226059D01*
X144470Y226028D01*
X144836Y225987D01*
X145201Y225938D01*
X145564Y225879D01*
X145926Y225812D01*
X146287Y225736D01*
X146645Y225650D01*
X147001Y225557D01*
X147354Y225454D01*
X147705Y225343D01*
X148053Y225223D01*
X148398Y225095D01*
X148740Y224958D01*
X149079Y224813D01*
X149413Y224660D01*
X149744Y224498D01*
X150071Y224329D01*
X150393Y224151D01*
X150712Y223966D01*
X151025Y223773D01*
X151334Y223572D01*
X151637Y223364D01*
X151935Y223148D01*
X152228Y222925D01*
X152516Y222695D01*
X152798Y222458D01*
X153073Y222214D01*
X153343Y221964D01*
X153607Y221707D01*
X153864Y221443D01*
X154114Y221173D01*
X154358Y220898D01*
X154595Y220616D01*
X154825Y220328D01*
X155048Y220035D01*
X155264Y219737D01*
X155472Y219434D01*
X155673Y219125D01*
X155866Y218812D01*
X156051Y218493D01*
X156229Y218171D01*
X156398Y217844D01*
X156560Y217513D01*
X156713Y217179D01*
X156858Y216840D01*
X156995Y216498D01*
X157123Y216153D01*
X157243Y215805D01*
X157354Y215454D01*
X157457Y215101D01*
X157550Y214745D01*
X157636Y214387D01*
X157712Y214026D01*
X157779Y213664D01*
X157838Y213301D01*
X157887Y212936D01*
X157928Y212570D01*
X157959Y212203D01*
X157982Y211836D01*
X157995Y211468D01*
X158000Y211100D01*
X157995Y210732D01*
X157982Y210364D01*
X157959Y209997D01*
X157928Y209630D01*
X157887Y209264D01*
X157838Y208899D01*
X157779Y208536D01*
X157712Y208174D01*
X157636Y207813D01*
X157550Y207455D01*
X157457Y207099D01*
X157354Y206746D01*
X157243Y206395D01*
X157123Y206047D01*
X156995Y205702D01*
X156858Y205360D01*
X156713Y205021D01*
X156560Y204687D01*
X156398Y204356D01*
X156229Y204029D01*
X156051Y203707D01*
X155866Y203388D01*
X155673Y203075D01*
X155472Y202766D01*
X155264Y202463D01*
X155048Y202165D01*
X154825Y201872D01*
X154595Y201584D01*
X154358Y201302D01*
X154114Y201027D01*
X153864Y200757D01*
X153607Y200493D01*
X153343Y200236D01*
X153073Y199986D01*
X152798Y199742D01*
X152516Y199505D01*
X152228Y199275D01*
X151935Y199052D01*
X151637Y198836D01*
X151334Y198628D01*
X151025Y198427D01*
X150712Y198234D01*
X150393Y198049D01*
X150071Y197871D01*
X149744Y197702D01*
X149413Y197540D01*
X149079Y197387D01*
X148740Y197242D01*
X148398Y197105D01*
X148053Y196977D01*
X147705Y196857D01*
X147354Y196746D01*
X147001Y196643D01*
X146645Y196550D01*
X146287Y196464D01*
X145926Y196388D01*
X145564Y196321D01*
X145201Y196262D01*
X144836Y196213D01*
X144470Y196172D01*
X144103Y196141D01*
X143736Y196118D01*
X143368Y196105D01*
X143000Y196100D01*
X142632Y196105D01*
X142264Y196118D01*
X141897Y196141D01*
X141530Y196172D01*
X141164Y196213D01*
X140799Y196262D01*
X140436Y196321D01*
X140074Y196388D01*
X139713Y196464D01*
X139355Y196550D01*
X138999Y196643D01*
X138646Y196746D01*
X138295Y196857D01*
X137947Y196977D01*
X137602Y197105D01*
X137260Y197242D01*
X136921Y197387D01*
X136587Y197540D01*
X136256Y197702D01*
X135929Y197871D01*
X135607Y198049D01*
X135288Y198234D01*
X134975Y198427D01*
X134666Y198628D01*
X134363Y198836D01*
X134065Y199052D01*
X133772Y199275D01*
X133484Y199505D01*
X133202Y199742D01*
X132927Y199986D01*
X132657Y200236D01*
X132393Y200493D01*
X132136Y200757D01*
X131886Y201027D01*
X131642Y201302D01*
X131405Y201584D01*
X131175Y201872D01*
X130952Y202165D01*
X130736Y202463D01*
X130528Y202766D01*
X130327Y203075D01*
X130134Y203388D01*
X129949Y203707D01*
X129771Y204029D01*
X129602Y204356D01*
X129440Y204687D01*
X129287Y205021D01*
X129142Y205360D01*
X129005Y205702D01*
X128877Y206047D01*
X128757Y206395D01*
X128646Y206746D01*
X128543Y207099D01*
X128450Y207455D01*
X128364Y207813D01*
X128288Y208174D01*
X128221Y208536D01*
X128162Y208899D01*
X128113Y209264D01*
X128072Y209630D01*
X128041Y209997D01*
X128018Y210364D01*
X128005Y210732D01*
X128000Y211100D01*
X128000Y388900D02*
X128005Y389268D01*
X128018Y389636D01*
X128041Y390003D01*
X128072Y390370D01*
X128113Y390736D01*
X128162Y391101D01*
X128221Y391464D01*
X128288Y391826D01*
X128364Y392187D01*
X128450Y392545D01*
X128543Y392901D01*
X128646Y393254D01*
X128757Y393605D01*
X128877Y393953D01*
X129005Y394298D01*
X129142Y394640D01*
X129287Y394979D01*
X129440Y395313D01*
X129602Y395644D01*
X129771Y395971D01*
X129949Y396293D01*
X130134Y396612D01*
X130327Y396925D01*
X130528Y397234D01*
X130736Y397537D01*
X130952Y397835D01*
X131175Y398128D01*
X131405Y398416D01*
X131642Y398698D01*
X131886Y398973D01*
X132136Y399243D01*
X132393Y399507D01*
X132657Y399764D01*
X132927Y400014D01*
X133202Y400258D01*
X133484Y400495D01*
X133772Y400725D01*
X134065Y400948D01*
X134363Y401164D01*
X134666Y401372D01*
X134975Y401573D01*
X135288Y401766D01*
X135607Y401951D01*
X135929Y402129D01*
X136256Y402298D01*
X136587Y402460D01*
X136921Y402613D01*
X137260Y402758D01*
X137602Y402895D01*
X137947Y403023D01*
X138295Y403143D01*
X138646Y403254D01*
X138999Y403357D01*
X139355Y403450D01*
X139713Y403536D01*
X140074Y403612D01*
X140436Y403679D01*
X140799Y403738D01*
X141164Y403787D01*
X141530Y403828D01*
X141897Y403859D01*
X142264Y403882D01*
X142632Y403895D01*
X143000Y403900D01*
X143368Y403895D01*
X143736Y403882D01*
X144103Y403859D01*
X144470Y403828D01*
X144836Y403787D01*
X145201Y403738D01*
X145564Y403679D01*
X145926Y403612D01*
X146287Y403536D01*
X146645Y403450D01*
X147001Y403357D01*
X147354Y403254D01*
X147705Y403143D01*
X148053Y403023D01*
X148398Y402895D01*
X148740Y402758D01*
X149079Y402613D01*
X149413Y402460D01*
X149744Y402298D01*
X150071Y402129D01*
X150393Y401951D01*
X150712Y401766D01*
X151025Y401573D01*
X151334Y401372D01*
X151637Y401164D01*
X151935Y400948D01*
X152228Y400725D01*
X152516Y400495D01*
X152798Y400258D01*
X153073Y400014D01*
X153343Y399764D01*
X153607Y399507D01*
X153864Y399243D01*
X154114Y398973D01*
X154358Y398698D01*
X154595Y398416D01*
X154825Y398128D01*
X155048Y397835D01*
X155264Y397537D01*
X155472Y397234D01*
X155673Y396925D01*
X155866Y396612D01*
X156051Y396293D01*
X156229Y395971D01*
X156398Y395644D01*
X156560Y395313D01*
X156713Y394979D01*
X156858Y394640D01*
X156995Y394298D01*
X157123Y393953D01*
X157243Y393605D01*
X157354Y393254D01*
X157457Y392901D01*
X157550Y392545D01*
X157636Y392187D01*
X157712Y391826D01*
X157779Y391464D01*
X157838Y391101D01*
X157887Y390736D01*
X157928Y390370D01*
X157959Y390003D01*
X157982Y389636D01*
X157995Y389268D01*
X158000Y388900D01*
X157995Y388532D01*
X157982Y388164D01*
X157959Y387797D01*
X157928Y387430D01*
X157887Y387064D01*
X157838Y386699D01*
X157779Y386336D01*
X157712Y385974D01*
X157636Y385613D01*
X157550Y385255D01*
X157457Y384899D01*
X157354Y384546D01*
X157243Y384195D01*
X157123Y383847D01*
X156995Y383502D01*
X156858Y383160D01*
X156713Y382821D01*
X156560Y382487D01*
X156398Y382156D01*
X156229Y381829D01*
X156051Y381507D01*
X155866Y381188D01*
X155673Y380875D01*
X155472Y380566D01*
X155264Y380263D01*
X155048Y379965D01*
X154825Y379672D01*
X154595Y379384D01*
X154358Y379102D01*
X154114Y378827D01*
X153864Y378557D01*
X153607Y378293D01*
X153343Y378036D01*
X153073Y377786D01*
X152798Y377542D01*
X152516Y377305D01*
X152228Y377075D01*
X151935Y376852D01*
X151637Y376636D01*
X151334Y376428D01*
X151025Y376227D01*
X150712Y376034D01*
X150393Y375849D01*
X150071Y375671D01*
X149744Y375502D01*
X149413Y375340D01*
X149079Y375187D01*
X148740Y375042D01*
X148398Y374905D01*
X148053Y374777D01*
X147705Y374657D01*
X147354Y374546D01*
X147001Y374443D01*
X146645Y374350D01*
X146287Y374264D01*
X145926Y374188D01*
X145564Y374121D01*
X145201Y374062D01*
X144836Y374013D01*
X144470Y373972D01*
X144103Y373941D01*
X143736Y373918D01*
X143368Y373905D01*
X143000Y373900D01*
X142632Y373905D01*
X142264Y373918D01*
X141897Y373941D01*
X141530Y373972D01*
X141164Y374013D01*
X140799Y374062D01*
X140436Y374121D01*
X140074Y374188D01*
X139713Y374264D01*
X139355Y374350D01*
X138999Y374443D01*
X138646Y374546D01*
X138295Y374657D01*
X137947Y374777D01*
X137602Y374905D01*
X137260Y375042D01*
X136921Y375187D01*
X136587Y375340D01*
X136256Y375502D01*
X135929Y375671D01*
X135607Y375849D01*
X135288Y376034D01*
X134975Y376227D01*
X134666Y376428D01*
X134363Y376636D01*
X134065Y376852D01*
X133772Y377075D01*
X133484Y377305D01*
X133202Y377542D01*
X132927Y377786D01*
X132657Y378036D01*
X132393Y378293D01*
X132136Y378557D01*
X131886Y378827D01*
X131642Y379102D01*
X131405Y379384D01*
X131175Y379672D01*
X130952Y379965D01*
X130736Y380263D01*
X130528Y380566D01*
X130327Y380875D01*
X130134Y381188D01*
X129949Y381507D01*
X129771Y381829D01*
X129602Y382156D01*
X129440Y382487D01*
X129287Y382821D01*
X129142Y383160D01*
X129005Y383502D01*
X128877Y383847D01*
X128757Y384195D01*
X128646Y384546D01*
X128543Y384899D01*
X128450Y385255D01*
X128364Y385613D01*
X128288Y385974D01*
X128221Y386336D01*
X128162Y386699D01*
X128113Y387064D01*
X128072Y387430D01*
X128041Y387797D01*
X128018Y388164D01*
X128005Y388532D01*
X128000Y388900D01*
D37*
X860950Y381150D02*
X880450Y381150D01*
X880450Y218850D02*
X860950Y218850D01*
X753450Y381150D02*
X733950Y381150D01*
X733950Y218850D02*
X753450Y218850D01*
D10*
X792200Y388900D02*
X792205Y389268D01*
X792218Y389636D01*
X792241Y390003D01*
X792272Y390370D01*
X792313Y390736D01*
X792362Y391101D01*
X792421Y391464D01*
X792488Y391826D01*
X792564Y392187D01*
X792650Y392545D01*
X792743Y392901D01*
X792846Y393254D01*
X792957Y393605D01*
X793077Y393953D01*
X793205Y394298D01*
X793342Y394640D01*
X793487Y394979D01*
X793640Y395313D01*
X793802Y395644D01*
X793971Y395971D01*
X794149Y396293D01*
X794334Y396612D01*
X794527Y396925D01*
X794728Y397234D01*
X794936Y397537D01*
X795152Y397835D01*
X795375Y398128D01*
X795605Y398416D01*
X795842Y398698D01*
X796086Y398973D01*
X796336Y399243D01*
X796593Y399507D01*
X796857Y399764D01*
X797127Y400014D01*
X797402Y400258D01*
X797684Y400495D01*
X797972Y400725D01*
X798265Y400948D01*
X798563Y401164D01*
X798866Y401372D01*
X799175Y401573D01*
X799488Y401766D01*
X799807Y401951D01*
X800129Y402129D01*
X800456Y402298D01*
X800787Y402460D01*
X801121Y402613D01*
X801460Y402758D01*
X801802Y402895D01*
X802147Y403023D01*
X802495Y403143D01*
X802846Y403254D01*
X803199Y403357D01*
X803555Y403450D01*
X803913Y403536D01*
X804274Y403612D01*
X804636Y403679D01*
X804999Y403738D01*
X805364Y403787D01*
X805730Y403828D01*
X806097Y403859D01*
X806464Y403882D01*
X806832Y403895D01*
X807200Y403900D01*
X807568Y403895D01*
X807936Y403882D01*
X808303Y403859D01*
X808670Y403828D01*
X809036Y403787D01*
X809401Y403738D01*
X809764Y403679D01*
X810126Y403612D01*
X810487Y403536D01*
X810845Y403450D01*
X811201Y403357D01*
X811554Y403254D01*
X811905Y403143D01*
X812253Y403023D01*
X812598Y402895D01*
X812940Y402758D01*
X813279Y402613D01*
X813613Y402460D01*
X813944Y402298D01*
X814271Y402129D01*
X814593Y401951D01*
X814912Y401766D01*
X815225Y401573D01*
X815534Y401372D01*
X815837Y401164D01*
X816135Y400948D01*
X816428Y400725D01*
X816716Y400495D01*
X816998Y400258D01*
X817273Y400014D01*
X817543Y399764D01*
X817807Y399507D01*
X818064Y399243D01*
X818314Y398973D01*
X818558Y398698D01*
X818795Y398416D01*
X819025Y398128D01*
X819248Y397835D01*
X819464Y397537D01*
X819672Y397234D01*
X819873Y396925D01*
X820066Y396612D01*
X820251Y396293D01*
X820429Y395971D01*
X820598Y395644D01*
X820760Y395313D01*
X820913Y394979D01*
X821058Y394640D01*
X821195Y394298D01*
X821323Y393953D01*
X821443Y393605D01*
X821554Y393254D01*
X821657Y392901D01*
X821750Y392545D01*
X821836Y392187D01*
X821912Y391826D01*
X821979Y391464D01*
X822038Y391101D01*
X822087Y390736D01*
X822128Y390370D01*
X822159Y390003D01*
X822182Y389636D01*
X822195Y389268D01*
X822200Y388900D01*
X822195Y388532D01*
X822182Y388164D01*
X822159Y387797D01*
X822128Y387430D01*
X822087Y387064D01*
X822038Y386699D01*
X821979Y386336D01*
X821912Y385974D01*
X821836Y385613D01*
X821750Y385255D01*
X821657Y384899D01*
X821554Y384546D01*
X821443Y384195D01*
X821323Y383847D01*
X821195Y383502D01*
X821058Y383160D01*
X820913Y382821D01*
X820760Y382487D01*
X820598Y382156D01*
X820429Y381829D01*
X820251Y381507D01*
X820066Y381188D01*
X819873Y380875D01*
X819672Y380566D01*
X819464Y380263D01*
X819248Y379965D01*
X819025Y379672D01*
X818795Y379384D01*
X818558Y379102D01*
X818314Y378827D01*
X818064Y378557D01*
X817807Y378293D01*
X817543Y378036D01*
X817273Y377786D01*
X816998Y377542D01*
X816716Y377305D01*
X816428Y377075D01*
X816135Y376852D01*
X815837Y376636D01*
X815534Y376428D01*
X815225Y376227D01*
X814912Y376034D01*
X814593Y375849D01*
X814271Y375671D01*
X813944Y375502D01*
X813613Y375340D01*
X813279Y375187D01*
X812940Y375042D01*
X812598Y374905D01*
X812253Y374777D01*
X811905Y374657D01*
X811554Y374546D01*
X811201Y374443D01*
X810845Y374350D01*
X810487Y374264D01*
X810126Y374188D01*
X809764Y374121D01*
X809401Y374062D01*
X809036Y374013D01*
X808670Y373972D01*
X808303Y373941D01*
X807936Y373918D01*
X807568Y373905D01*
X807200Y373900D01*
X806832Y373905D01*
X806464Y373918D01*
X806097Y373941D01*
X805730Y373972D01*
X805364Y374013D01*
X804999Y374062D01*
X804636Y374121D01*
X804274Y374188D01*
X803913Y374264D01*
X803555Y374350D01*
X803199Y374443D01*
X802846Y374546D01*
X802495Y374657D01*
X802147Y374777D01*
X801802Y374905D01*
X801460Y375042D01*
X801121Y375187D01*
X800787Y375340D01*
X800456Y375502D01*
X800129Y375671D01*
X799807Y375849D01*
X799488Y376034D01*
X799175Y376227D01*
X798866Y376428D01*
X798563Y376636D01*
X798265Y376852D01*
X797972Y377075D01*
X797684Y377305D01*
X797402Y377542D01*
X797127Y377786D01*
X796857Y378036D01*
X796593Y378293D01*
X796336Y378557D01*
X796086Y378827D01*
X795842Y379102D01*
X795605Y379384D01*
X795375Y379672D01*
X795152Y379965D01*
X794936Y380263D01*
X794728Y380566D01*
X794527Y380875D01*
X794334Y381188D01*
X794149Y381507D01*
X793971Y381829D01*
X793802Y382156D01*
X793640Y382487D01*
X793487Y382821D01*
X793342Y383160D01*
X793205Y383502D01*
X793077Y383847D01*
X792957Y384195D01*
X792846Y384546D01*
X792743Y384899D01*
X792650Y385255D01*
X792564Y385613D01*
X792488Y385974D01*
X792421Y386336D01*
X792362Y386699D01*
X792313Y387064D01*
X792272Y387430D01*
X792241Y387797D01*
X792218Y388164D01*
X792205Y388532D01*
X792200Y388900D01*
X792200Y211100D02*
X792205Y211468D01*
X792218Y211836D01*
X792241Y212203D01*
X792272Y212570D01*
X792313Y212936D01*
X792362Y213301D01*
X792421Y213664D01*
X792488Y214026D01*
X792564Y214387D01*
X792650Y214745D01*
X792743Y215101D01*
X792846Y215454D01*
X792957Y215805D01*
X793077Y216153D01*
X793205Y216498D01*
X793342Y216840D01*
X793487Y217179D01*
X793640Y217513D01*
X793802Y217844D01*
X793971Y218171D01*
X794149Y218493D01*
X794334Y218812D01*
X794527Y219125D01*
X794728Y219434D01*
X794936Y219737D01*
X795152Y220035D01*
X795375Y220328D01*
X795605Y220616D01*
X795842Y220898D01*
X796086Y221173D01*
X796336Y221443D01*
X796593Y221707D01*
X796857Y221964D01*
X797127Y222214D01*
X797402Y222458D01*
X797684Y222695D01*
X797972Y222925D01*
X798265Y223148D01*
X798563Y223364D01*
X798866Y223572D01*
X799175Y223773D01*
X799488Y223966D01*
X799807Y224151D01*
X800129Y224329D01*
X800456Y224498D01*
X800787Y224660D01*
X801121Y224813D01*
X801460Y224958D01*
X801802Y225095D01*
X802147Y225223D01*
X802495Y225343D01*
X802846Y225454D01*
X803199Y225557D01*
X803555Y225650D01*
X803913Y225736D01*
X804274Y225812D01*
X804636Y225879D01*
X804999Y225938D01*
X805364Y225987D01*
X805730Y226028D01*
X806097Y226059D01*
X806464Y226082D01*
X806832Y226095D01*
X807200Y226100D01*
X807568Y226095D01*
X807936Y226082D01*
X808303Y226059D01*
X808670Y226028D01*
X809036Y225987D01*
X809401Y225938D01*
X809764Y225879D01*
X810126Y225812D01*
X810487Y225736D01*
X810845Y225650D01*
X811201Y225557D01*
X811554Y225454D01*
X811905Y225343D01*
X812253Y225223D01*
X812598Y225095D01*
X812940Y224958D01*
X813279Y224813D01*
X813613Y224660D01*
X813944Y224498D01*
X814271Y224329D01*
X814593Y224151D01*
X814912Y223966D01*
X815225Y223773D01*
X815534Y223572D01*
X815837Y223364D01*
X816135Y223148D01*
X816428Y222925D01*
X816716Y222695D01*
X816998Y222458D01*
X817273Y222214D01*
X817543Y221964D01*
X817807Y221707D01*
X818064Y221443D01*
X818314Y221173D01*
X818558Y220898D01*
X818795Y220616D01*
X819025Y220328D01*
X819248Y220035D01*
X819464Y219737D01*
X819672Y219434D01*
X819873Y219125D01*
X820066Y218812D01*
X820251Y218493D01*
X820429Y218171D01*
X820598Y217844D01*
X820760Y217513D01*
X820913Y217179D01*
X821058Y216840D01*
X821195Y216498D01*
X821323Y216153D01*
X821443Y215805D01*
X821554Y215454D01*
X821657Y215101D01*
X821750Y214745D01*
X821836Y214387D01*
X821912Y214026D01*
X821979Y213664D01*
X822038Y213301D01*
X822087Y212936D01*
X822128Y212570D01*
X822159Y212203D01*
X822182Y211836D01*
X822195Y211468D01*
X822200Y211100D01*
X822195Y210732D01*
X822182Y210364D01*
X822159Y209997D01*
X822128Y209630D01*
X822087Y209264D01*
X822038Y208899D01*
X821979Y208536D01*
X821912Y208174D01*
X821836Y207813D01*
X821750Y207455D01*
X821657Y207099D01*
X821554Y206746D01*
X821443Y206395D01*
X821323Y206047D01*
X821195Y205702D01*
X821058Y205360D01*
X820913Y205021D01*
X820760Y204687D01*
X820598Y204356D01*
X820429Y204029D01*
X820251Y203707D01*
X820066Y203388D01*
X819873Y203075D01*
X819672Y202766D01*
X819464Y202463D01*
X819248Y202165D01*
X819025Y201872D01*
X818795Y201584D01*
X818558Y201302D01*
X818314Y201027D01*
X818064Y200757D01*
X817807Y200493D01*
X817543Y200236D01*
X817273Y199986D01*
X816998Y199742D01*
X816716Y199505D01*
X816428Y199275D01*
X816135Y199052D01*
X815837Y198836D01*
X815534Y198628D01*
X815225Y198427D01*
X814912Y198234D01*
X814593Y198049D01*
X814271Y197871D01*
X813944Y197702D01*
X813613Y197540D01*
X813279Y197387D01*
X812940Y197242D01*
X812598Y197105D01*
X812253Y196977D01*
X811905Y196857D01*
X811554Y196746D01*
X811201Y196643D01*
X810845Y196550D01*
X810487Y196464D01*
X810126Y196388D01*
X809764Y196321D01*
X809401Y196262D01*
X809036Y196213D01*
X808670Y196172D01*
X808303Y196141D01*
X807936Y196118D01*
X807568Y196105D01*
X807200Y196100D01*
X806832Y196105D01*
X806464Y196118D01*
X806097Y196141D01*
X805730Y196172D01*
X805364Y196213D01*
X804999Y196262D01*
X804636Y196321D01*
X804274Y196388D01*
X803913Y196464D01*
X803555Y196550D01*
X803199Y196643D01*
X802846Y196746D01*
X802495Y196857D01*
X802147Y196977D01*
X801802Y197105D01*
X801460Y197242D01*
X801121Y197387D01*
X800787Y197540D01*
X800456Y197702D01*
X800129Y197871D01*
X799807Y198049D01*
X799488Y198234D01*
X799175Y198427D01*
X798866Y198628D01*
X798563Y198836D01*
X798265Y199052D01*
X797972Y199275D01*
X797684Y199505D01*
X797402Y199742D01*
X797127Y199986D01*
X796857Y200236D01*
X796593Y200493D01*
X796336Y200757D01*
X796086Y201027D01*
X795842Y201302D01*
X795605Y201584D01*
X795375Y201872D01*
X795152Y202165D01*
X794936Y202463D01*
X794728Y202766D01*
X794527Y203075D01*
X794334Y203388D01*
X794149Y203707D01*
X793971Y204029D01*
X793802Y204356D01*
X793640Y204687D01*
X793487Y205021D01*
X793342Y205360D01*
X793205Y205702D01*
X793077Y206047D01*
X792957Y206395D01*
X792846Y206746D01*
X792743Y207099D01*
X792650Y207455D01*
X792564Y207813D01*
X792488Y208174D01*
X792421Y208536D01*
X792362Y208899D01*
X792313Y209264D01*
X792272Y209630D01*
X792241Y209997D01*
X792218Y210364D01*
X792205Y210732D01*
X792200Y211100D01*
D17*
X684500Y850900D03*
X712500Y850900D03*
D11*
X688500Y889000D03*
D12*
X708500Y889000D03*
D11*
X548800Y965200D03*
D12*
X568800Y965200D03*
D15*
X603250Y979200D03*
X603250Y951200D03*
D18*
X641350Y838200D03*
D19*
X641350Y863600D03*
D18*
X635000Y952500D03*
D19*
X635000Y977900D03*
D38*
X663200Y975300D03*
X663200Y929700D03*
D39*
X736200Y952500D03*
D11*
X266700Y467200D03*
D12*
X266700Y447200D03*
D22*
X544800Y209550D03*
X572800Y209550D03*
D16*
X329800Y558800D03*
X279800Y558800D03*
D17*
X557500Y889000D03*
X585500Y889000D03*
X557500Y863600D03*
X585500Y863600D03*
X557500Y838200D03*
X585500Y838200D03*
D15*
X615950Y864900D03*
X615950Y836900D03*
D40*
X660400Y533400D03*
X698500Y533400D03*
D21*
X870000Y339398D02*
X870000Y320602D01*
X844600Y320602D02*
X844600Y339398D01*
X819200Y339398D02*
X819200Y320602D01*
X793800Y320602D02*
X793800Y339398D01*
X768400Y339398D02*
X768400Y320602D01*
X743000Y320602D02*
X743000Y339398D01*
X717600Y339398D02*
X717600Y320602D01*
D40*
X615950Y920750D03*
X615950Y889000D03*
D41*
X435200Y355600D03*
X479200Y355600D03*
D42*
X762000Y914400D03*
X762000Y889000D03*
D43*
X762000Y914400D01*
D37*
X128000Y135000D02*
X128000Y115500D01*
X160000Y115500D02*
X160000Y135000D01*
X192000Y135000D02*
X192000Y115500D01*
X192000Y165000D02*
X192000Y184500D01*
X160000Y184500D02*
X160000Y165000D01*
X128000Y165000D02*
X128000Y184500D01*
D10*
X96750Y120000D02*
X96752Y120158D01*
X96758Y120315D01*
X96768Y120473D01*
X96782Y120630D01*
X96800Y120786D01*
X96821Y120943D01*
X96847Y121098D01*
X96877Y121253D01*
X96910Y121407D01*
X96948Y121560D01*
X96989Y121713D01*
X97034Y121864D01*
X97083Y122014D01*
X97136Y122162D01*
X97192Y122310D01*
X97253Y122455D01*
X97316Y122600D01*
X97384Y122742D01*
X97455Y122883D01*
X97529Y123022D01*
X97607Y123159D01*
X97689Y123294D01*
X97773Y123427D01*
X97862Y123558D01*
X97953Y123686D01*
X98048Y123813D01*
X98145Y123936D01*
X98246Y124058D01*
X98350Y124176D01*
X98457Y124292D01*
X98567Y124405D01*
X98679Y124516D01*
X98795Y124623D01*
X98913Y124728D01*
X99033Y124830D01*
X99156Y124928D01*
X99282Y125024D01*
X99410Y125116D01*
X99540Y125205D01*
X99672Y125291D01*
X99807Y125373D01*
X99944Y125452D01*
X100082Y125527D01*
X100222Y125599D01*
X100365Y125667D01*
X100508Y125732D01*
X100654Y125793D01*
X100801Y125850D01*
X100949Y125904D01*
X101099Y125954D01*
X101249Y126000D01*
X101401Y126042D01*
X101554Y126081D01*
X101708Y126115D01*
X101863Y126146D01*
X102018Y126172D01*
X102174Y126195D01*
X102331Y126214D01*
X102488Y126229D01*
X102645Y126240D01*
X102803Y126247D01*
X102961Y126250D01*
X103118Y126249D01*
X103276Y126244D01*
X103433Y126235D01*
X103591Y126222D01*
X103747Y126205D01*
X103904Y126184D01*
X104059Y126160D01*
X104214Y126131D01*
X104369Y126098D01*
X104522Y126062D01*
X104675Y126021D01*
X104826Y125977D01*
X104976Y125929D01*
X105125Y125878D01*
X105273Y125822D01*
X105419Y125763D01*
X105564Y125700D01*
X105707Y125633D01*
X105848Y125563D01*
X105987Y125490D01*
X106125Y125413D01*
X106261Y125332D01*
X106394Y125248D01*
X106525Y125161D01*
X106654Y125070D01*
X106781Y124976D01*
X106906Y124879D01*
X107027Y124779D01*
X107147Y124676D01*
X107263Y124570D01*
X107377Y124461D01*
X107489Y124349D01*
X107597Y124235D01*
X107702Y124117D01*
X107805Y123997D01*
X107904Y123875D01*
X108000Y123750D01*
X108093Y123622D01*
X108183Y123493D01*
X108269Y123361D01*
X108353Y123227D01*
X108432Y123091D01*
X108509Y122953D01*
X108581Y122813D01*
X108650Y122671D01*
X108716Y122528D01*
X108778Y122383D01*
X108836Y122236D01*
X108891Y122088D01*
X108942Y121939D01*
X108989Y121788D01*
X109032Y121637D01*
X109071Y121484D01*
X109107Y121330D01*
X109138Y121176D01*
X109166Y121021D01*
X109190Y120865D01*
X109210Y120708D01*
X109226Y120551D01*
X109238Y120394D01*
X109246Y120237D01*
X109250Y120079D01*
X109250Y119921D01*
X109246Y119763D01*
X109238Y119606D01*
X109226Y119449D01*
X109210Y119292D01*
X109190Y119135D01*
X109166Y118979D01*
X109138Y118824D01*
X109107Y118670D01*
X109071Y118516D01*
X109032Y118363D01*
X108989Y118212D01*
X108942Y118061D01*
X108891Y117912D01*
X108836Y117764D01*
X108778Y117617D01*
X108716Y117472D01*
X108650Y117329D01*
X108581Y117187D01*
X108509Y117047D01*
X108432Y116909D01*
X108353Y116773D01*
X108269Y116639D01*
X108183Y116507D01*
X108093Y116378D01*
X108000Y116250D01*
X107904Y116125D01*
X107805Y116003D01*
X107702Y115883D01*
X107597Y115765D01*
X107489Y115651D01*
X107377Y115539D01*
X107263Y115430D01*
X107147Y115324D01*
X107027Y115221D01*
X106906Y115121D01*
X106781Y115024D01*
X106654Y114930D01*
X106525Y114839D01*
X106394Y114752D01*
X106261Y114668D01*
X106125Y114587D01*
X105987Y114510D01*
X105848Y114437D01*
X105707Y114367D01*
X105564Y114300D01*
X105419Y114237D01*
X105273Y114178D01*
X105125Y114122D01*
X104976Y114071D01*
X104826Y114023D01*
X104675Y113979D01*
X104522Y113938D01*
X104369Y113902D01*
X104214Y113869D01*
X104059Y113840D01*
X103904Y113816D01*
X103747Y113795D01*
X103591Y113778D01*
X103433Y113765D01*
X103276Y113756D01*
X103118Y113751D01*
X102961Y113750D01*
X102803Y113753D01*
X102645Y113760D01*
X102488Y113771D01*
X102331Y113786D01*
X102174Y113805D01*
X102018Y113828D01*
X101863Y113854D01*
X101708Y113885D01*
X101554Y113919D01*
X101401Y113958D01*
X101249Y114000D01*
X101099Y114046D01*
X100949Y114096D01*
X100801Y114150D01*
X100654Y114207D01*
X100508Y114268D01*
X100365Y114333D01*
X100222Y114401D01*
X100082Y114473D01*
X99944Y114548D01*
X99807Y114627D01*
X99672Y114709D01*
X99540Y114795D01*
X99410Y114884D01*
X99282Y114976D01*
X99156Y115072D01*
X99033Y115170D01*
X98913Y115272D01*
X98795Y115377D01*
X98679Y115484D01*
X98567Y115595D01*
X98457Y115708D01*
X98350Y115824D01*
X98246Y115942D01*
X98145Y116064D01*
X98048Y116187D01*
X97953Y116314D01*
X97862Y116442D01*
X97773Y116573D01*
X97689Y116706D01*
X97607Y116841D01*
X97529Y116978D01*
X97455Y117117D01*
X97384Y117258D01*
X97316Y117400D01*
X97253Y117545D01*
X97192Y117690D01*
X97136Y117838D01*
X97083Y117986D01*
X97034Y118136D01*
X96989Y118287D01*
X96948Y118440D01*
X96910Y118593D01*
X96877Y118747D01*
X96847Y118902D01*
X96821Y119057D01*
X96800Y119214D01*
X96782Y119370D01*
X96768Y119527D01*
X96758Y119685D01*
X96752Y119842D01*
X96750Y120000D01*
X210750Y180000D02*
X210752Y180158D01*
X210758Y180315D01*
X210768Y180473D01*
X210782Y180630D01*
X210800Y180786D01*
X210821Y180943D01*
X210847Y181098D01*
X210877Y181253D01*
X210910Y181407D01*
X210948Y181560D01*
X210989Y181713D01*
X211034Y181864D01*
X211083Y182014D01*
X211136Y182162D01*
X211192Y182310D01*
X211253Y182455D01*
X211316Y182600D01*
X211384Y182742D01*
X211455Y182883D01*
X211529Y183022D01*
X211607Y183159D01*
X211689Y183294D01*
X211773Y183427D01*
X211862Y183558D01*
X211953Y183686D01*
X212048Y183813D01*
X212145Y183936D01*
X212246Y184058D01*
X212350Y184176D01*
X212457Y184292D01*
X212567Y184405D01*
X212679Y184516D01*
X212795Y184623D01*
X212913Y184728D01*
X213033Y184830D01*
X213156Y184928D01*
X213282Y185024D01*
X213410Y185116D01*
X213540Y185205D01*
X213672Y185291D01*
X213807Y185373D01*
X213944Y185452D01*
X214082Y185527D01*
X214222Y185599D01*
X214365Y185667D01*
X214508Y185732D01*
X214654Y185793D01*
X214801Y185850D01*
X214949Y185904D01*
X215099Y185954D01*
X215249Y186000D01*
X215401Y186042D01*
X215554Y186081D01*
X215708Y186115D01*
X215863Y186146D01*
X216018Y186172D01*
X216174Y186195D01*
X216331Y186214D01*
X216488Y186229D01*
X216645Y186240D01*
X216803Y186247D01*
X216961Y186250D01*
X217118Y186249D01*
X217276Y186244D01*
X217433Y186235D01*
X217591Y186222D01*
X217747Y186205D01*
X217904Y186184D01*
X218059Y186160D01*
X218214Y186131D01*
X218369Y186098D01*
X218522Y186062D01*
X218675Y186021D01*
X218826Y185977D01*
X218976Y185929D01*
X219125Y185878D01*
X219273Y185822D01*
X219419Y185763D01*
X219564Y185700D01*
X219707Y185633D01*
X219848Y185563D01*
X219987Y185490D01*
X220125Y185413D01*
X220261Y185332D01*
X220394Y185248D01*
X220525Y185161D01*
X220654Y185070D01*
X220781Y184976D01*
X220906Y184879D01*
X221027Y184779D01*
X221147Y184676D01*
X221263Y184570D01*
X221377Y184461D01*
X221489Y184349D01*
X221597Y184235D01*
X221702Y184117D01*
X221805Y183997D01*
X221904Y183875D01*
X222000Y183750D01*
X222093Y183622D01*
X222183Y183493D01*
X222269Y183361D01*
X222353Y183227D01*
X222432Y183091D01*
X222509Y182953D01*
X222581Y182813D01*
X222650Y182671D01*
X222716Y182528D01*
X222778Y182383D01*
X222836Y182236D01*
X222891Y182088D01*
X222942Y181939D01*
X222989Y181788D01*
X223032Y181637D01*
X223071Y181484D01*
X223107Y181330D01*
X223138Y181176D01*
X223166Y181021D01*
X223190Y180865D01*
X223210Y180708D01*
X223226Y180551D01*
X223238Y180394D01*
X223246Y180237D01*
X223250Y180079D01*
X223250Y179921D01*
X223246Y179763D01*
X223238Y179606D01*
X223226Y179449D01*
X223210Y179292D01*
X223190Y179135D01*
X223166Y178979D01*
X223138Y178824D01*
X223107Y178670D01*
X223071Y178516D01*
X223032Y178363D01*
X222989Y178212D01*
X222942Y178061D01*
X222891Y177912D01*
X222836Y177764D01*
X222778Y177617D01*
X222716Y177472D01*
X222650Y177329D01*
X222581Y177187D01*
X222509Y177047D01*
X222432Y176909D01*
X222353Y176773D01*
X222269Y176639D01*
X222183Y176507D01*
X222093Y176378D01*
X222000Y176250D01*
X221904Y176125D01*
X221805Y176003D01*
X221702Y175883D01*
X221597Y175765D01*
X221489Y175651D01*
X221377Y175539D01*
X221263Y175430D01*
X221147Y175324D01*
X221027Y175221D01*
X220906Y175121D01*
X220781Y175024D01*
X220654Y174930D01*
X220525Y174839D01*
X220394Y174752D01*
X220261Y174668D01*
X220125Y174587D01*
X219987Y174510D01*
X219848Y174437D01*
X219707Y174367D01*
X219564Y174300D01*
X219419Y174237D01*
X219273Y174178D01*
X219125Y174122D01*
X218976Y174071D01*
X218826Y174023D01*
X218675Y173979D01*
X218522Y173938D01*
X218369Y173902D01*
X218214Y173869D01*
X218059Y173840D01*
X217904Y173816D01*
X217747Y173795D01*
X217591Y173778D01*
X217433Y173765D01*
X217276Y173756D01*
X217118Y173751D01*
X216961Y173750D01*
X216803Y173753D01*
X216645Y173760D01*
X216488Y173771D01*
X216331Y173786D01*
X216174Y173805D01*
X216018Y173828D01*
X215863Y173854D01*
X215708Y173885D01*
X215554Y173919D01*
X215401Y173958D01*
X215249Y174000D01*
X215099Y174046D01*
X214949Y174096D01*
X214801Y174150D01*
X214654Y174207D01*
X214508Y174268D01*
X214365Y174333D01*
X214222Y174401D01*
X214082Y174473D01*
X213944Y174548D01*
X213807Y174627D01*
X213672Y174709D01*
X213540Y174795D01*
X213410Y174884D01*
X213282Y174976D01*
X213156Y175072D01*
X213033Y175170D01*
X212913Y175272D01*
X212795Y175377D01*
X212679Y175484D01*
X212567Y175595D01*
X212457Y175708D01*
X212350Y175824D01*
X212246Y175942D01*
X212145Y176064D01*
X212048Y176187D01*
X211953Y176314D01*
X211862Y176442D01*
X211773Y176573D01*
X211689Y176706D01*
X211607Y176841D01*
X211529Y176978D01*
X211455Y177117D01*
X211384Y177258D01*
X211316Y177400D01*
X211253Y177545D01*
X211192Y177690D01*
X211136Y177838D01*
X211083Y177986D01*
X211034Y178136D01*
X210989Y178287D01*
X210948Y178440D01*
X210910Y178593D01*
X210877Y178747D01*
X210847Y178902D01*
X210821Y179057D01*
X210800Y179214D01*
X210782Y179370D01*
X210768Y179527D01*
X210758Y179685D01*
X210752Y179842D01*
X210750Y180000D01*
D44*
X440000Y50400D03*
X510000Y50400D03*
D45*
X450000Y25400D03*
X500000Y25400D03*
D46*
X177800Y25400D03*
X203200Y25400D03*
X317500Y25400D03*
X342900Y25400D03*
X607300Y25400D03*
X632700Y25400D03*
X752300Y25400D03*
X777700Y25400D03*
D21*
X870000Y50602D02*
X870000Y69398D01*
X844600Y69398D02*
X844600Y50602D01*
X819200Y50602D02*
X819200Y69398D01*
X793800Y69398D02*
X793800Y50602D01*
X768400Y50602D02*
X768400Y69398D01*
X743000Y69398D02*
X743000Y50602D01*
X717600Y50602D02*
X717600Y69398D01*
D23*
X730250Y436850D03*
X730250Y464850D03*
D21*
X120000Y339398D02*
X120000Y320602D01*
X145400Y320602D02*
X145400Y339398D01*
X170800Y339398D02*
X170800Y320602D01*
X196200Y320602D02*
X196200Y339398D01*
X120000Y69398D02*
X120000Y50602D01*
X145400Y50602D02*
X145400Y69398D01*
X170800Y69398D02*
X170800Y50602D01*
X196200Y50602D02*
X196200Y69398D01*
D46*
X462300Y63500D03*
X487700Y63500D03*
D10*
X126000Y960000D02*
X126004Y960344D01*
X126017Y960687D01*
X126038Y961030D01*
X126067Y961372D01*
X126105Y961714D01*
X126152Y962054D01*
X126206Y962393D01*
X126269Y962731D01*
X126340Y963067D01*
X126420Y963402D01*
X126507Y963734D01*
X126603Y964064D01*
X126707Y964392D01*
X126818Y964716D01*
X126938Y965039D01*
X127066Y965358D01*
X127201Y965673D01*
X127344Y965986D01*
X127495Y966295D01*
X127653Y966600D01*
X127819Y966901D01*
X127992Y967197D01*
X128172Y967490D01*
X128359Y967778D01*
X128554Y968061D01*
X128755Y968340D01*
X128963Y968613D01*
X129178Y968882D01*
X129399Y969144D01*
X129627Y969402D01*
X129861Y969654D01*
X130101Y969899D01*
X130346Y970139D01*
X130598Y970373D01*
X130856Y970601D01*
X131118Y970822D01*
X131387Y971037D01*
X131660Y971245D01*
X131939Y971446D01*
X132222Y971641D01*
X132510Y971828D01*
X132803Y972008D01*
X133099Y972181D01*
X133400Y972347D01*
X133705Y972505D01*
X134014Y972656D01*
X134327Y972799D01*
X134642Y972934D01*
X134961Y973062D01*
X135284Y973182D01*
X135608Y973293D01*
X135936Y973397D01*
X136266Y973493D01*
X136598Y973580D01*
X136933Y973660D01*
X137269Y973731D01*
X137607Y973794D01*
X137946Y973848D01*
X138286Y973895D01*
X138628Y973933D01*
X138970Y973962D01*
X139313Y973983D01*
X139656Y973996D01*
X140000Y974000D01*
X140344Y973996D01*
X140687Y973983D01*
X141030Y973962D01*
X141372Y973933D01*
X141714Y973895D01*
X142054Y973848D01*
X142393Y973794D01*
X142731Y973731D01*
X143067Y973660D01*
X143402Y973580D01*
X143734Y973493D01*
X144064Y973397D01*
X144392Y973293D01*
X144716Y973182D01*
X145039Y973062D01*
X145358Y972934D01*
X145673Y972799D01*
X145986Y972656D01*
X146295Y972505D01*
X146600Y972347D01*
X146901Y972181D01*
X147197Y972008D01*
X147490Y971828D01*
X147778Y971641D01*
X148061Y971446D01*
X148340Y971245D01*
X148613Y971037D01*
X148882Y970822D01*
X149144Y970601D01*
X149402Y970373D01*
X149654Y970139D01*
X149899Y969899D01*
X150139Y969654D01*
X150373Y969402D01*
X150601Y969144D01*
X150822Y968882D01*
X151037Y968613D01*
X151245Y968340D01*
X151446Y968061D01*
X151641Y967778D01*
X151828Y967490D01*
X152008Y967197D01*
X152181Y966901D01*
X152347Y966600D01*
X152505Y966295D01*
X152656Y965986D01*
X152799Y965673D01*
X152934Y965358D01*
X153062Y965039D01*
X153182Y964716D01*
X153293Y964392D01*
X153397Y964064D01*
X153493Y963734D01*
X153580Y963402D01*
X153660Y963067D01*
X153731Y962731D01*
X153794Y962393D01*
X153848Y962054D01*
X153895Y961714D01*
X153933Y961372D01*
X153962Y961030D01*
X153983Y960687D01*
X153996Y960344D01*
X154000Y960000D01*
X153996Y959656D01*
X153983Y959313D01*
X153962Y958970D01*
X153933Y958628D01*
X153895Y958286D01*
X153848Y957946D01*
X153794Y957607D01*
X153731Y957269D01*
X153660Y956933D01*
X153580Y956598D01*
X153493Y956266D01*
X153397Y955936D01*
X153293Y955608D01*
X153182Y955284D01*
X153062Y954961D01*
X152934Y954642D01*
X152799Y954327D01*
X152656Y954014D01*
X152505Y953705D01*
X152347Y953400D01*
X152181Y953099D01*
X152008Y952803D01*
X151828Y952510D01*
X151641Y952222D01*
X151446Y951939D01*
X151245Y951660D01*
X151037Y951387D01*
X150822Y951118D01*
X150601Y950856D01*
X150373Y950598D01*
X150139Y950346D01*
X149899Y950101D01*
X149654Y949861D01*
X149402Y949627D01*
X149144Y949399D01*
X148882Y949178D01*
X148613Y948963D01*
X148340Y948755D01*
X148061Y948554D01*
X147778Y948359D01*
X147490Y948172D01*
X147197Y947992D01*
X146901Y947819D01*
X146600Y947653D01*
X146295Y947495D01*
X145986Y947344D01*
X145673Y947201D01*
X145358Y947066D01*
X145039Y946938D01*
X144716Y946818D01*
X144392Y946707D01*
X144064Y946603D01*
X143734Y946507D01*
X143402Y946420D01*
X143067Y946340D01*
X142731Y946269D01*
X142393Y946206D01*
X142054Y946152D01*
X141714Y946105D01*
X141372Y946067D01*
X141030Y946038D01*
X140687Y946017D01*
X140344Y946004D01*
X140000Y946000D01*
X139656Y946004D01*
X139313Y946017D01*
X138970Y946038D01*
X138628Y946067D01*
X138286Y946105D01*
X137946Y946152D01*
X137607Y946206D01*
X137269Y946269D01*
X136933Y946340D01*
X136598Y946420D01*
X136266Y946507D01*
X135936Y946603D01*
X135608Y946707D01*
X135284Y946818D01*
X134961Y946938D01*
X134642Y947066D01*
X134327Y947201D01*
X134014Y947344D01*
X133705Y947495D01*
X133400Y947653D01*
X133099Y947819D01*
X132803Y947992D01*
X132510Y948172D01*
X132222Y948359D01*
X131939Y948554D01*
X131660Y948755D01*
X131387Y948963D01*
X131118Y949178D01*
X130856Y949399D01*
X130598Y949627D01*
X130346Y949861D01*
X130101Y950101D01*
X129861Y950346D01*
X129627Y950598D01*
X129399Y950856D01*
X129178Y951118D01*
X128963Y951387D01*
X128755Y951660D01*
X128554Y951939D01*
X128359Y952222D01*
X128172Y952510D01*
X127992Y952803D01*
X127819Y953099D01*
X127653Y953400D01*
X127495Y953705D01*
X127344Y954014D01*
X127201Y954327D01*
X127066Y954642D01*
X126938Y954961D01*
X126818Y955284D01*
X126707Y955608D01*
X126603Y955936D01*
X126507Y956266D01*
X126420Y956598D01*
X126340Y956933D01*
X126269Y957269D01*
X126206Y957607D01*
X126152Y957946D01*
X126105Y958286D01*
X126067Y958628D01*
X126038Y958970D01*
X126017Y959313D01*
X126004Y959656D01*
X126000Y960000D01*
X796000Y960000D02*
X796004Y960344D01*
X796017Y960687D01*
X796038Y961030D01*
X796067Y961372D01*
X796105Y961714D01*
X796152Y962054D01*
X796206Y962393D01*
X796269Y962731D01*
X796340Y963067D01*
X796420Y963402D01*
X796507Y963734D01*
X796603Y964064D01*
X796707Y964392D01*
X796818Y964716D01*
X796938Y965039D01*
X797066Y965358D01*
X797201Y965673D01*
X797344Y965986D01*
X797495Y966295D01*
X797653Y966600D01*
X797819Y966901D01*
X797992Y967197D01*
X798172Y967490D01*
X798359Y967778D01*
X798554Y968061D01*
X798755Y968340D01*
X798963Y968613D01*
X799178Y968882D01*
X799399Y969144D01*
X799627Y969402D01*
X799861Y969654D01*
X800101Y969899D01*
X800346Y970139D01*
X800598Y970373D01*
X800856Y970601D01*
X801118Y970822D01*
X801387Y971037D01*
X801660Y971245D01*
X801939Y971446D01*
X802222Y971641D01*
X802510Y971828D01*
X802803Y972008D01*
X803099Y972181D01*
X803400Y972347D01*
X803705Y972505D01*
X804014Y972656D01*
X804327Y972799D01*
X804642Y972934D01*
X804961Y973062D01*
X805284Y973182D01*
X805608Y973293D01*
X805936Y973397D01*
X806266Y973493D01*
X806598Y973580D01*
X806933Y973660D01*
X807269Y973731D01*
X807607Y973794D01*
X807946Y973848D01*
X808286Y973895D01*
X808628Y973933D01*
X808970Y973962D01*
X809313Y973983D01*
X809656Y973996D01*
X810000Y974000D01*
X810344Y973996D01*
X810687Y973983D01*
X811030Y973962D01*
X811372Y973933D01*
X811714Y973895D01*
X812054Y973848D01*
X812393Y973794D01*
X812731Y973731D01*
X813067Y973660D01*
X813402Y973580D01*
X813734Y973493D01*
X814064Y973397D01*
X814392Y973293D01*
X814716Y973182D01*
X815039Y973062D01*
X815358Y972934D01*
X815673Y972799D01*
X815986Y972656D01*
X816295Y972505D01*
X816600Y972347D01*
X816901Y972181D01*
X817197Y972008D01*
X817490Y971828D01*
X817778Y971641D01*
X818061Y971446D01*
X818340Y971245D01*
X818613Y971037D01*
X818882Y970822D01*
X819144Y970601D01*
X819402Y970373D01*
X819654Y970139D01*
X819899Y969899D01*
X820139Y969654D01*
X820373Y969402D01*
X820601Y969144D01*
X820822Y968882D01*
X821037Y968613D01*
X821245Y968340D01*
X821446Y968061D01*
X821641Y967778D01*
X821828Y967490D01*
X822008Y967197D01*
X822181Y966901D01*
X822347Y966600D01*
X822505Y966295D01*
X822656Y965986D01*
X822799Y965673D01*
X822934Y965358D01*
X823062Y965039D01*
X823182Y964716D01*
X823293Y964392D01*
X823397Y964064D01*
X823493Y963734D01*
X823580Y963402D01*
X823660Y963067D01*
X823731Y962731D01*
X823794Y962393D01*
X823848Y962054D01*
X823895Y961714D01*
X823933Y961372D01*
X823962Y961030D01*
X823983Y960687D01*
X823996Y960344D01*
X824000Y960000D01*
X823996Y959656D01*
X823983Y959313D01*
X823962Y958970D01*
X823933Y958628D01*
X823895Y958286D01*
X823848Y957946D01*
X823794Y957607D01*
X823731Y957269D01*
X823660Y956933D01*
X823580Y956598D01*
X823493Y956266D01*
X823397Y955936D01*
X823293Y955608D01*
X823182Y955284D01*
X823062Y954961D01*
X822934Y954642D01*
X822799Y954327D01*
X822656Y954014D01*
X822505Y953705D01*
X822347Y953400D01*
X822181Y953099D01*
X822008Y952803D01*
X821828Y952510D01*
X821641Y952222D01*
X821446Y951939D01*
X821245Y951660D01*
X821037Y951387D01*
X820822Y951118D01*
X820601Y950856D01*
X820373Y950598D01*
X820139Y950346D01*
X819899Y950101D01*
X819654Y949861D01*
X819402Y949627D01*
X819144Y949399D01*
X818882Y949178D01*
X818613Y948963D01*
X818340Y948755D01*
X818061Y948554D01*
X817778Y948359D01*
X817490Y948172D01*
X817197Y947992D01*
X816901Y947819D01*
X816600Y947653D01*
X816295Y947495D01*
X815986Y947344D01*
X815673Y947201D01*
X815358Y947066D01*
X815039Y946938D01*
X814716Y946818D01*
X814392Y946707D01*
X814064Y946603D01*
X813734Y946507D01*
X813402Y946420D01*
X813067Y946340D01*
X812731Y946269D01*
X812393Y946206D01*
X812054Y946152D01*
X811714Y946105D01*
X811372Y946067D01*
X811030Y946038D01*
X810687Y946017D01*
X810344Y946004D01*
X810000Y946000D01*
X809656Y946004D01*
X809313Y946017D01*
X808970Y946038D01*
X808628Y946067D01*
X808286Y946105D01*
X807946Y946152D01*
X807607Y946206D01*
X807269Y946269D01*
X806933Y946340D01*
X806598Y946420D01*
X806266Y946507D01*
X805936Y946603D01*
X805608Y946707D01*
X805284Y946818D01*
X804961Y946938D01*
X804642Y947066D01*
X804327Y947201D01*
X804014Y947344D01*
X803705Y947495D01*
X803400Y947653D01*
X803099Y947819D01*
X802803Y947992D01*
X802510Y948172D01*
X802222Y948359D01*
X801939Y948554D01*
X801660Y948755D01*
X801387Y948963D01*
X801118Y949178D01*
X800856Y949399D01*
X800598Y949627D01*
X800346Y949861D01*
X800101Y950101D01*
X799861Y950346D01*
X799627Y950598D01*
X799399Y950856D01*
X799178Y951118D01*
X798963Y951387D01*
X798755Y951660D01*
X798554Y951939D01*
X798359Y952222D01*
X798172Y952510D01*
X797992Y952803D01*
X797819Y953099D01*
X797653Y953400D01*
X797495Y953705D01*
X797344Y954014D01*
X797201Y954327D01*
X797066Y954642D01*
X796938Y954961D01*
X796818Y955284D01*
X796707Y955608D01*
X796603Y955936D01*
X796507Y956266D01*
X796420Y956598D01*
X796340Y956933D01*
X796269Y957269D01*
X796206Y957607D01*
X796152Y957946D01*
X796105Y958286D01*
X796067Y958628D01*
X796038Y958970D01*
X796017Y959313D01*
X796004Y959656D01*
X796000Y960000D01*
D21*
X620000Y69398D02*
X620000Y50602D01*
X620000Y320602D02*
X620000Y339398D01*
D17*
X585500Y920750D03*
X557500Y920750D03*
D47*
X571500Y393700D03*
X558800Y412750D03*
X546100Y393700D03*
D14*
X774700Y711200D03*
X774700Y685800D03*
X863600Y711200D03*
X863600Y685800D03*
D13*
X603250Y639200D03*
X603250Y656200D03*
D10*
X316000Y210000D02*
X316004Y210344D01*
X316017Y210687D01*
X316038Y211030D01*
X316067Y211372D01*
X316105Y211714D01*
X316152Y212054D01*
X316206Y212393D01*
X316269Y212731D01*
X316340Y213067D01*
X316420Y213402D01*
X316507Y213734D01*
X316603Y214064D01*
X316707Y214392D01*
X316818Y214716D01*
X316938Y215039D01*
X317066Y215358D01*
X317201Y215673D01*
X317344Y215986D01*
X317495Y216295D01*
X317653Y216600D01*
X317819Y216901D01*
X317992Y217197D01*
X318172Y217490D01*
X318359Y217778D01*
X318554Y218061D01*
X318755Y218340D01*
X318963Y218613D01*
X319178Y218882D01*
X319399Y219144D01*
X319627Y219402D01*
X319861Y219654D01*
X320101Y219899D01*
X320346Y220139D01*
X320598Y220373D01*
X320856Y220601D01*
X321118Y220822D01*
X321387Y221037D01*
X321660Y221245D01*
X321939Y221446D01*
X322222Y221641D01*
X322510Y221828D01*
X322803Y222008D01*
X323099Y222181D01*
X323400Y222347D01*
X323705Y222505D01*
X324014Y222656D01*
X324327Y222799D01*
X324642Y222934D01*
X324961Y223062D01*
X325284Y223182D01*
X325608Y223293D01*
X325936Y223397D01*
X326266Y223493D01*
X326598Y223580D01*
X326933Y223660D01*
X327269Y223731D01*
X327607Y223794D01*
X327946Y223848D01*
X328286Y223895D01*
X328628Y223933D01*
X328970Y223962D01*
X329313Y223983D01*
X329656Y223996D01*
X330000Y224000D01*
X330344Y223996D01*
X330687Y223983D01*
X331030Y223962D01*
X331372Y223933D01*
X331714Y223895D01*
X332054Y223848D01*
X332393Y223794D01*
X332731Y223731D01*
X333067Y223660D01*
X333402Y223580D01*
X333734Y223493D01*
X334064Y223397D01*
X334392Y223293D01*
X334716Y223182D01*
X335039Y223062D01*
X335358Y222934D01*
X335673Y222799D01*
X335986Y222656D01*
X336295Y222505D01*
X336600Y222347D01*
X336901Y222181D01*
X337197Y222008D01*
X337490Y221828D01*
X337778Y221641D01*
X338061Y221446D01*
X338340Y221245D01*
X338613Y221037D01*
X338882Y220822D01*
X339144Y220601D01*
X339402Y220373D01*
X339654Y220139D01*
X339899Y219899D01*
X340139Y219654D01*
X340373Y219402D01*
X340601Y219144D01*
X340822Y218882D01*
X341037Y218613D01*
X341245Y218340D01*
X341446Y218061D01*
X341641Y217778D01*
X341828Y217490D01*
X342008Y217197D01*
X342181Y216901D01*
X342347Y216600D01*
X342505Y216295D01*
X342656Y215986D01*
X342799Y215673D01*
X342934Y215358D01*
X343062Y215039D01*
X343182Y214716D01*
X343293Y214392D01*
X343397Y214064D01*
X343493Y213734D01*
X343580Y213402D01*
X343660Y213067D01*
X343731Y212731D01*
X343794Y212393D01*
X343848Y212054D01*
X343895Y211714D01*
X343933Y211372D01*
X343962Y211030D01*
X343983Y210687D01*
X343996Y210344D01*
X344000Y210000D01*
X343996Y209656D01*
X343983Y209313D01*
X343962Y208970D01*
X343933Y208628D01*
X343895Y208286D01*
X343848Y207946D01*
X343794Y207607D01*
X343731Y207269D01*
X343660Y206933D01*
X343580Y206598D01*
X343493Y206266D01*
X343397Y205936D01*
X343293Y205608D01*
X343182Y205284D01*
X343062Y204961D01*
X342934Y204642D01*
X342799Y204327D01*
X342656Y204014D01*
X342505Y203705D01*
X342347Y203400D01*
X342181Y203099D01*
X342008Y202803D01*
X341828Y202510D01*
X341641Y202222D01*
X341446Y201939D01*
X341245Y201660D01*
X341037Y201387D01*
X340822Y201118D01*
X340601Y200856D01*
X340373Y200598D01*
X340139Y200346D01*
X339899Y200101D01*
X339654Y199861D01*
X339402Y199627D01*
X339144Y199399D01*
X338882Y199178D01*
X338613Y198963D01*
X338340Y198755D01*
X338061Y198554D01*
X337778Y198359D01*
X337490Y198172D01*
X337197Y197992D01*
X336901Y197819D01*
X336600Y197653D01*
X336295Y197495D01*
X335986Y197344D01*
X335673Y197201D01*
X335358Y197066D01*
X335039Y196938D01*
X334716Y196818D01*
X334392Y196707D01*
X334064Y196603D01*
X333734Y196507D01*
X333402Y196420D01*
X333067Y196340D01*
X332731Y196269D01*
X332393Y196206D01*
X332054Y196152D01*
X331714Y196105D01*
X331372Y196067D01*
X331030Y196038D01*
X330687Y196017D01*
X330344Y196004D01*
X330000Y196000D01*
X329656Y196004D01*
X329313Y196017D01*
X328970Y196038D01*
X328628Y196067D01*
X328286Y196105D01*
X327946Y196152D01*
X327607Y196206D01*
X327269Y196269D01*
X326933Y196340D01*
X326598Y196420D01*
X326266Y196507D01*
X325936Y196603D01*
X325608Y196707D01*
X325284Y196818D01*
X324961Y196938D01*
X324642Y197066D01*
X324327Y197201D01*
X324014Y197344D01*
X323705Y197495D01*
X323400Y197653D01*
X323099Y197819D01*
X322803Y197992D01*
X322510Y198172D01*
X322222Y198359D01*
X321939Y198554D01*
X321660Y198755D01*
X321387Y198963D01*
X321118Y199178D01*
X320856Y199399D01*
X320598Y199627D01*
X320346Y199861D01*
X320101Y200101D01*
X319861Y200346D01*
X319627Y200598D01*
X319399Y200856D01*
X319178Y201118D01*
X318963Y201387D01*
X318755Y201660D01*
X318554Y201939D01*
X318359Y202222D01*
X318172Y202510D01*
X317992Y202803D01*
X317819Y203099D01*
X317653Y203400D01*
X317495Y203705D01*
X317344Y204014D01*
X317201Y204327D01*
X317066Y204642D01*
X316938Y204961D01*
X316818Y205284D01*
X316707Y205608D01*
X316603Y205936D01*
X316507Y206266D01*
X316420Y206598D01*
X316340Y206933D01*
X316269Y207269D01*
X316206Y207607D01*
X316152Y207946D01*
X316105Y208286D01*
X316067Y208628D01*
X316038Y208970D01*
X316017Y209313D01*
X316004Y209656D01*
X316000Y210000D01*
X606000Y210000D02*
X606004Y210344D01*
X606017Y210687D01*
X606038Y211030D01*
X606067Y211372D01*
X606105Y211714D01*
X606152Y212054D01*
X606206Y212393D01*
X606269Y212731D01*
X606340Y213067D01*
X606420Y213402D01*
X606507Y213734D01*
X606603Y214064D01*
X606707Y214392D01*
X606818Y214716D01*
X606938Y215039D01*
X607066Y215358D01*
X607201Y215673D01*
X607344Y215986D01*
X607495Y216295D01*
X607653Y216600D01*
X607819Y216901D01*
X607992Y217197D01*
X608172Y217490D01*
X608359Y217778D01*
X608554Y218061D01*
X608755Y218340D01*
X608963Y218613D01*
X609178Y218882D01*
X609399Y219144D01*
X609627Y219402D01*
X609861Y219654D01*
X610101Y219899D01*
X610346Y220139D01*
X610598Y220373D01*
X610856Y220601D01*
X611118Y220822D01*
X611387Y221037D01*
X611660Y221245D01*
X611939Y221446D01*
X612222Y221641D01*
X612510Y221828D01*
X612803Y222008D01*
X613099Y222181D01*
X613400Y222347D01*
X613705Y222505D01*
X614014Y222656D01*
X614327Y222799D01*
X614642Y222934D01*
X614961Y223062D01*
X615284Y223182D01*
X615608Y223293D01*
X615936Y223397D01*
X616266Y223493D01*
X616598Y223580D01*
X616933Y223660D01*
X617269Y223731D01*
X617607Y223794D01*
X617946Y223848D01*
X618286Y223895D01*
X618628Y223933D01*
X618970Y223962D01*
X619313Y223983D01*
X619656Y223996D01*
X620000Y224000D01*
X620344Y223996D01*
X620687Y223983D01*
X621030Y223962D01*
X621372Y223933D01*
X621714Y223895D01*
X622054Y223848D01*
X622393Y223794D01*
X622731Y223731D01*
X623067Y223660D01*
X623402Y223580D01*
X623734Y223493D01*
X624064Y223397D01*
X624392Y223293D01*
X624716Y223182D01*
X625039Y223062D01*
X625358Y222934D01*
X625673Y222799D01*
X625986Y222656D01*
X626295Y222505D01*
X626600Y222347D01*
X626901Y222181D01*
X627197Y222008D01*
X627490Y221828D01*
X627778Y221641D01*
X628061Y221446D01*
X628340Y221245D01*
X628613Y221037D01*
X628882Y220822D01*
X629144Y220601D01*
X629402Y220373D01*
X629654Y220139D01*
X629899Y219899D01*
X630139Y219654D01*
X630373Y219402D01*
X630601Y219144D01*
X630822Y218882D01*
X631037Y218613D01*
X631245Y218340D01*
X631446Y218061D01*
X631641Y217778D01*
X631828Y217490D01*
X632008Y217197D01*
X632181Y216901D01*
X632347Y216600D01*
X632505Y216295D01*
X632656Y215986D01*
X632799Y215673D01*
X632934Y215358D01*
X633062Y215039D01*
X633182Y214716D01*
X633293Y214392D01*
X633397Y214064D01*
X633493Y213734D01*
X633580Y213402D01*
X633660Y213067D01*
X633731Y212731D01*
X633794Y212393D01*
X633848Y212054D01*
X633895Y211714D01*
X633933Y211372D01*
X633962Y211030D01*
X633983Y210687D01*
X633996Y210344D01*
X634000Y210000D01*
X633996Y209656D01*
X633983Y209313D01*
X633962Y208970D01*
X633933Y208628D01*
X633895Y208286D01*
X633848Y207946D01*
X633794Y207607D01*
X633731Y207269D01*
X633660Y206933D01*
X633580Y206598D01*
X633493Y206266D01*
X633397Y205936D01*
X633293Y205608D01*
X633182Y205284D01*
X633062Y204961D01*
X632934Y204642D01*
X632799Y204327D01*
X632656Y204014D01*
X632505Y203705D01*
X632347Y203400D01*
X632181Y203099D01*
X632008Y202803D01*
X631828Y202510D01*
X631641Y202222D01*
X631446Y201939D01*
X631245Y201660D01*
X631037Y201387D01*
X630822Y201118D01*
X630601Y200856D01*
X630373Y200598D01*
X630139Y200346D01*
X629899Y200101D01*
X629654Y199861D01*
X629402Y199627D01*
X629144Y199399D01*
X628882Y199178D01*
X628613Y198963D01*
X628340Y198755D01*
X628061Y198554D01*
X627778Y198359D01*
X627490Y198172D01*
X627197Y197992D01*
X626901Y197819D01*
X626600Y197653D01*
X626295Y197495D01*
X625986Y197344D01*
X625673Y197201D01*
X625358Y197066D01*
X625039Y196938D01*
X624716Y196818D01*
X624392Y196707D01*
X624064Y196603D01*
X623734Y196507D01*
X623402Y196420D01*
X623067Y196340D01*
X622731Y196269D01*
X622393Y196206D01*
X622054Y196152D01*
X621714Y196105D01*
X621372Y196067D01*
X621030Y196038D01*
X620687Y196017D01*
X620344Y196004D01*
X620000Y196000D01*
X619656Y196004D01*
X619313Y196017D01*
X618970Y196038D01*
X618628Y196067D01*
X618286Y196105D01*
X617946Y196152D01*
X617607Y196206D01*
X617269Y196269D01*
X616933Y196340D01*
X616598Y196420D01*
X616266Y196507D01*
X615936Y196603D01*
X615608Y196707D01*
X615284Y196818D01*
X614961Y196938D01*
X614642Y197066D01*
X614327Y197201D01*
X614014Y197344D01*
X613705Y197495D01*
X613400Y197653D01*
X613099Y197819D01*
X612803Y197992D01*
X612510Y198172D01*
X612222Y198359D01*
X611939Y198554D01*
X611660Y198755D01*
X611387Y198963D01*
X611118Y199178D01*
X610856Y199399D01*
X610598Y199627D01*
X610346Y199861D01*
X610101Y200101D01*
X609861Y200346D01*
X609627Y200598D01*
X609399Y200856D01*
X609178Y201118D01*
X608963Y201387D01*
X608755Y201660D01*
X608554Y201939D01*
X608359Y202222D01*
X608172Y202510D01*
X607992Y202803D01*
X607819Y203099D01*
X607653Y203400D01*
X607495Y203705D01*
X607344Y204014D01*
X607201Y204327D01*
X607066Y204642D01*
X606938Y204961D01*
X606818Y205284D01*
X606707Y205608D01*
X606603Y205936D01*
X606507Y206266D01*
X606420Y206598D01*
X606340Y206933D01*
X606269Y207269D01*
X606206Y207607D01*
X606152Y207946D01*
X606105Y208286D01*
X606067Y208628D01*
X606038Y208970D01*
X606017Y209313D01*
X606004Y209656D01*
X606000Y210000D01*
D48*
X635000Y698500D03*
X635000Y711200D03*
X635000Y723900D03*
X635000Y736600D03*
X584200Y736600D03*
X584200Y723900D03*
X584200Y711200D03*
X584200Y698500D03*
D11*
X539750Y740250D03*
D12*
X539750Y720250D03*
D10*
X634850Y889000D02*
X634852Y889161D01*
X634858Y889321D01*
X634868Y889482D01*
X634882Y889642D01*
X634900Y889802D01*
X634921Y889961D01*
X634947Y890120D01*
X634977Y890278D01*
X635010Y890435D01*
X635048Y890592D01*
X635089Y890747D01*
X635134Y890901D01*
X635183Y891054D01*
X635236Y891206D01*
X635292Y891357D01*
X635353Y891506D01*
X635416Y891654D01*
X635484Y891800D01*
X635555Y891944D01*
X635629Y892086D01*
X635707Y892227D01*
X635789Y892365D01*
X635874Y892502D01*
X635962Y892636D01*
X636054Y892768D01*
X636149Y892898D01*
X636247Y893026D01*
X636348Y893151D01*
X636452Y893273D01*
X636559Y893393D01*
X636669Y893510D01*
X636782Y893625D01*
X636898Y893736D01*
X637017Y893845D01*
X637138Y893950D01*
X637262Y894053D01*
X637388Y894153D01*
X637516Y894249D01*
X637647Y894342D01*
X637781Y894432D01*
X637916Y894519D01*
X638054Y894602D01*
X638193Y894682D01*
X638335Y894758D01*
X638478Y894831D01*
X638623Y894900D01*
X638770Y894966D01*
X638918Y895028D01*
X639068Y895086D01*
X639219Y895141D01*
X639372Y895192D01*
X639526Y895239D01*
X639681Y895282D01*
X639837Y895321D01*
X639993Y895357D01*
X640151Y895388D01*
X640309Y895416D01*
X640468Y895440D01*
X640628Y895460D01*
X640788Y895476D01*
X640948Y895488D01*
X641109Y895496D01*
X641270Y895500D01*
X641430Y895500D01*
X641591Y895496D01*
X641752Y895488D01*
X641912Y895476D01*
X642072Y895460D01*
X642232Y895440D01*
X642391Y895416D01*
X642549Y895388D01*
X642707Y895357D01*
X642863Y895321D01*
X643019Y895282D01*
X643174Y895239D01*
X643328Y895192D01*
X643481Y895141D01*
X643632Y895086D01*
X643782Y895028D01*
X643930Y894966D01*
X644077Y894900D01*
X644222Y894831D01*
X644365Y894758D01*
X644507Y894682D01*
X644646Y894602D01*
X644784Y894519D01*
X644919Y894432D01*
X645053Y894342D01*
X645184Y894249D01*
X645312Y894153D01*
X645438Y894053D01*
X645562Y893950D01*
X645683Y893845D01*
X645802Y893736D01*
X645918Y893625D01*
X646031Y893510D01*
X646141Y893393D01*
X646248Y893273D01*
X646352Y893151D01*
X646453Y893026D01*
X646551Y892898D01*
X646646Y892768D01*
X646738Y892636D01*
X646826Y892502D01*
X646911Y892365D01*
X646993Y892227D01*
X647071Y892086D01*
X647145Y891944D01*
X647216Y891800D01*
X647284Y891654D01*
X647347Y891506D01*
X647408Y891357D01*
X647464Y891206D01*
X647517Y891054D01*
X647566Y890901D01*
X647611Y890747D01*
X647652Y890592D01*
X647690Y890435D01*
X647723Y890278D01*
X647753Y890120D01*
X647779Y889961D01*
X647800Y889802D01*
X647818Y889642D01*
X647832Y889482D01*
X647842Y889321D01*
X647848Y889161D01*
X647850Y889000D01*
X647848Y888839D01*
X647842Y888679D01*
X647832Y888518D01*
X647818Y888358D01*
X647800Y888198D01*
X647779Y888039D01*
X647753Y887880D01*
X647723Y887722D01*
X647690Y887565D01*
X647652Y887408D01*
X647611Y887253D01*
X647566Y887099D01*
X647517Y886946D01*
X647464Y886794D01*
X647408Y886643D01*
X647347Y886494D01*
X647284Y886346D01*
X647216Y886200D01*
X647145Y886056D01*
X647071Y885914D01*
X646993Y885773D01*
X646911Y885635D01*
X646826Y885498D01*
X646738Y885364D01*
X646646Y885232D01*
X646551Y885102D01*
X646453Y884974D01*
X646352Y884849D01*
X646248Y884727D01*
X646141Y884607D01*
X646031Y884490D01*
X645918Y884375D01*
X645802Y884264D01*
X645683Y884155D01*
X645562Y884050D01*
X645438Y883947D01*
X645312Y883847D01*
X645184Y883751D01*
X645053Y883658D01*
X644919Y883568D01*
X644784Y883481D01*
X644646Y883398D01*
X644507Y883318D01*
X644365Y883242D01*
X644222Y883169D01*
X644077Y883100D01*
X643930Y883034D01*
X643782Y882972D01*
X643632Y882914D01*
X643481Y882859D01*
X643328Y882808D01*
X643174Y882761D01*
X643019Y882718D01*
X642863Y882679D01*
X642707Y882643D01*
X642549Y882612D01*
X642391Y882584D01*
X642232Y882560D01*
X642072Y882540D01*
X641912Y882524D01*
X641752Y882512D01*
X641591Y882504D01*
X641430Y882500D01*
X641270Y882500D01*
X641109Y882504D01*
X640948Y882512D01*
X640788Y882524D01*
X640628Y882540D01*
X640468Y882560D01*
X640309Y882584D01*
X640151Y882612D01*
X639993Y882643D01*
X639837Y882679D01*
X639681Y882718D01*
X639526Y882761D01*
X639372Y882808D01*
X639219Y882859D01*
X639068Y882914D01*
X638918Y882972D01*
X638770Y883034D01*
X638623Y883100D01*
X638478Y883169D01*
X638335Y883242D01*
X638193Y883318D01*
X638054Y883398D01*
X637916Y883481D01*
X637781Y883568D01*
X637647Y883658D01*
X637516Y883751D01*
X637388Y883847D01*
X637262Y883947D01*
X637138Y884050D01*
X637017Y884155D01*
X636898Y884264D01*
X636782Y884375D01*
X636669Y884490D01*
X636559Y884607D01*
X636452Y884727D01*
X636348Y884849D01*
X636247Y884974D01*
X636149Y885102D01*
X636054Y885232D01*
X635962Y885364D01*
X635874Y885498D01*
X635789Y885635D01*
X635707Y885773D01*
X635629Y885914D01*
X635555Y886056D01*
X635484Y886200D01*
X635416Y886346D01*
X635353Y886494D01*
X635292Y886643D01*
X635236Y886794D01*
X635183Y886946D01*
X635134Y887099D01*
X635089Y887253D01*
X635048Y887408D01*
X635010Y887565D01*
X634977Y887722D01*
X634947Y887880D01*
X634921Y888039D01*
X634900Y888198D01*
X634882Y888358D01*
X634868Y888518D01*
X634858Y888679D01*
X634852Y888839D01*
X634850Y889000D01*
X634850Y920750D02*
X634852Y920911D01*
X634858Y921071D01*
X634868Y921232D01*
X634882Y921392D01*
X634900Y921552D01*
X634921Y921711D01*
X634947Y921870D01*
X634977Y922028D01*
X635010Y922185D01*
X635048Y922342D01*
X635089Y922497D01*
X635134Y922651D01*
X635183Y922804D01*
X635236Y922956D01*
X635292Y923107D01*
X635353Y923256D01*
X635416Y923404D01*
X635484Y923550D01*
X635555Y923694D01*
X635629Y923836D01*
X635707Y923977D01*
X635789Y924115D01*
X635874Y924252D01*
X635962Y924386D01*
X636054Y924518D01*
X636149Y924648D01*
X636247Y924776D01*
X636348Y924901D01*
X636452Y925023D01*
X636559Y925143D01*
X636669Y925260D01*
X636782Y925375D01*
X636898Y925486D01*
X637017Y925595D01*
X637138Y925700D01*
X637262Y925803D01*
X637388Y925903D01*
X637516Y925999D01*
X637647Y926092D01*
X637781Y926182D01*
X637916Y926269D01*
X638054Y926352D01*
X638193Y926432D01*
X638335Y926508D01*
X638478Y926581D01*
X638623Y926650D01*
X638770Y926716D01*
X638918Y926778D01*
X639068Y926836D01*
X639219Y926891D01*
X639372Y926942D01*
X639526Y926989D01*
X639681Y927032D01*
X639837Y927071D01*
X639993Y927107D01*
X640151Y927138D01*
X640309Y927166D01*
X640468Y927190D01*
X640628Y927210D01*
X640788Y927226D01*
X640948Y927238D01*
X641109Y927246D01*
X641270Y927250D01*
X641430Y927250D01*
X641591Y927246D01*
X641752Y927238D01*
X641912Y927226D01*
X642072Y927210D01*
X642232Y927190D01*
X642391Y927166D01*
X642549Y927138D01*
X642707Y927107D01*
X642863Y927071D01*
X643019Y927032D01*
X643174Y926989D01*
X643328Y926942D01*
X643481Y926891D01*
X643632Y926836D01*
X643782Y926778D01*
X643930Y926716D01*
X644077Y926650D01*
X644222Y926581D01*
X644365Y926508D01*
X644507Y926432D01*
X644646Y926352D01*
X644784Y926269D01*
X644919Y926182D01*
X645053Y926092D01*
X645184Y925999D01*
X645312Y925903D01*
X645438Y925803D01*
X645562Y925700D01*
X645683Y925595D01*
X645802Y925486D01*
X645918Y925375D01*
X646031Y925260D01*
X646141Y925143D01*
X646248Y925023D01*
X646352Y924901D01*
X646453Y924776D01*
X646551Y924648D01*
X646646Y924518D01*
X646738Y924386D01*
X646826Y924252D01*
X646911Y924115D01*
X646993Y923977D01*
X647071Y923836D01*
X647145Y923694D01*
X647216Y923550D01*
X647284Y923404D01*
X647347Y923256D01*
X647408Y923107D01*
X647464Y922956D01*
X647517Y922804D01*
X647566Y922651D01*
X647611Y922497D01*
X647652Y922342D01*
X647690Y922185D01*
X647723Y922028D01*
X647753Y921870D01*
X647779Y921711D01*
X647800Y921552D01*
X647818Y921392D01*
X647832Y921232D01*
X647842Y921071D01*
X647848Y920911D01*
X647850Y920750D01*
X647848Y920589D01*
X647842Y920429D01*
X647832Y920268D01*
X647818Y920108D01*
X647800Y919948D01*
X647779Y919789D01*
X647753Y919630D01*
X647723Y919472D01*
X647690Y919315D01*
X647652Y919158D01*
X647611Y919003D01*
X647566Y918849D01*
X647517Y918696D01*
X647464Y918544D01*
X647408Y918393D01*
X647347Y918244D01*
X647284Y918096D01*
X647216Y917950D01*
X647145Y917806D01*
X647071Y917664D01*
X646993Y917523D01*
X646911Y917385D01*
X646826Y917248D01*
X646738Y917114D01*
X646646Y916982D01*
X646551Y916852D01*
X646453Y916724D01*
X646352Y916599D01*
X646248Y916477D01*
X646141Y916357D01*
X646031Y916240D01*
X645918Y916125D01*
X645802Y916014D01*
X645683Y915905D01*
X645562Y915800D01*
X645438Y915697D01*
X645312Y915597D01*
X645184Y915501D01*
X645053Y915408D01*
X644919Y915318D01*
X644784Y915231D01*
X644646Y915148D01*
X644507Y915068D01*
X644365Y914992D01*
X644222Y914919D01*
X644077Y914850D01*
X643930Y914784D01*
X643782Y914722D01*
X643632Y914664D01*
X643481Y914609D01*
X643328Y914558D01*
X643174Y914511D01*
X643019Y914468D01*
X642863Y914429D01*
X642707Y914393D01*
X642549Y914362D01*
X642391Y914334D01*
X642232Y914310D01*
X642072Y914290D01*
X641912Y914274D01*
X641752Y914262D01*
X641591Y914254D01*
X641430Y914250D01*
X641270Y914250D01*
X641109Y914254D01*
X640948Y914262D01*
X640788Y914274D01*
X640628Y914290D01*
X640468Y914310D01*
X640309Y914334D01*
X640151Y914362D01*
X639993Y914393D01*
X639837Y914429D01*
X639681Y914468D01*
X639526Y914511D01*
X639372Y914558D01*
X639219Y914609D01*
X639068Y914664D01*
X638918Y914722D01*
X638770Y914784D01*
X638623Y914850D01*
X638478Y914919D01*
X638335Y914992D01*
X638193Y915068D01*
X638054Y915148D01*
X637916Y915231D01*
X637781Y915318D01*
X637647Y915408D01*
X637516Y915501D01*
X637388Y915597D01*
X637262Y915697D01*
X637138Y915800D01*
X637017Y915905D01*
X636898Y916014D01*
X636782Y916125D01*
X636669Y916240D01*
X636559Y916357D01*
X636452Y916477D01*
X636348Y916599D01*
X636247Y916724D01*
X636149Y916852D01*
X636054Y916982D01*
X635962Y917114D01*
X635874Y917248D01*
X635789Y917385D01*
X635707Y917523D01*
X635629Y917664D01*
X635555Y917806D01*
X635484Y917950D01*
X635416Y918096D01*
X635353Y918244D01*
X635292Y918393D01*
X635236Y918544D01*
X635183Y918696D01*
X635134Y918849D01*
X635089Y919003D01*
X635048Y919158D01*
X635010Y919315D01*
X634977Y919472D01*
X634947Y919630D01*
X634921Y919789D01*
X634900Y919948D01*
X634882Y920108D01*
X634868Y920268D01*
X634858Y920429D01*
X634852Y920589D01*
X634850Y920750D01*
X653900Y558800D02*
X653902Y558961D01*
X653908Y559121D01*
X653918Y559282D01*
X653932Y559442D01*
X653950Y559602D01*
X653971Y559761D01*
X653997Y559920D01*
X654027Y560078D01*
X654060Y560235D01*
X654098Y560392D01*
X654139Y560547D01*
X654184Y560701D01*
X654233Y560854D01*
X654286Y561006D01*
X654342Y561157D01*
X654403Y561306D01*
X654466Y561454D01*
X654534Y561600D01*
X654605Y561744D01*
X654679Y561886D01*
X654757Y562027D01*
X654839Y562165D01*
X654924Y562302D01*
X655012Y562436D01*
X655104Y562568D01*
X655199Y562698D01*
X655297Y562826D01*
X655398Y562951D01*
X655502Y563073D01*
X655609Y563193D01*
X655719Y563310D01*
X655832Y563425D01*
X655948Y563536D01*
X656067Y563645D01*
X656188Y563750D01*
X656312Y563853D01*
X656438Y563953D01*
X656566Y564049D01*
X656697Y564142D01*
X656831Y564232D01*
X656966Y564319D01*
X657104Y564402D01*
X657243Y564482D01*
X657385Y564558D01*
X657528Y564631D01*
X657673Y564700D01*
X657820Y564766D01*
X657968Y564828D01*
X658118Y564886D01*
X658269Y564941D01*
X658422Y564992D01*
X658576Y565039D01*
X658731Y565082D01*
X658887Y565121D01*
X659043Y565157D01*
X659201Y565188D01*
X659359Y565216D01*
X659518Y565240D01*
X659678Y565260D01*
X659838Y565276D01*
X659998Y565288D01*
X660159Y565296D01*
X660320Y565300D01*
X660480Y565300D01*
X660641Y565296D01*
X660802Y565288D01*
X660962Y565276D01*
X661122Y565260D01*
X661282Y565240D01*
X661441Y565216D01*
X661599Y565188D01*
X661757Y565157D01*
X661913Y565121D01*
X662069Y565082D01*
X662224Y565039D01*
X662378Y564992D01*
X662531Y564941D01*
X662682Y564886D01*
X662832Y564828D01*
X662980Y564766D01*
X663127Y564700D01*
X663272Y564631D01*
X663415Y564558D01*
X663557Y564482D01*
X663696Y564402D01*
X663834Y564319D01*
X663969Y564232D01*
X664103Y564142D01*
X664234Y564049D01*
X664362Y563953D01*
X664488Y563853D01*
X664612Y563750D01*
X664733Y563645D01*
X664852Y563536D01*
X664968Y563425D01*
X665081Y563310D01*
X665191Y563193D01*
X665298Y563073D01*
X665402Y562951D01*
X665503Y562826D01*
X665601Y562698D01*
X665696Y562568D01*
X665788Y562436D01*
X665876Y562302D01*
X665961Y562165D01*
X666043Y562027D01*
X666121Y561886D01*
X666195Y561744D01*
X666266Y561600D01*
X666334Y561454D01*
X666397Y561306D01*
X666458Y561157D01*
X666514Y561006D01*
X666567Y560854D01*
X666616Y560701D01*
X666661Y560547D01*
X666702Y560392D01*
X666740Y560235D01*
X666773Y560078D01*
X666803Y559920D01*
X666829Y559761D01*
X666850Y559602D01*
X666868Y559442D01*
X666882Y559282D01*
X666892Y559121D01*
X666898Y558961D01*
X666900Y558800D01*
X666898Y558639D01*
X666892Y558479D01*
X666882Y558318D01*
X666868Y558158D01*
X666850Y557998D01*
X666829Y557839D01*
X666803Y557680D01*
X666773Y557522D01*
X666740Y557365D01*
X666702Y557208D01*
X666661Y557053D01*
X666616Y556899D01*
X666567Y556746D01*
X666514Y556594D01*
X666458Y556443D01*
X666397Y556294D01*
X666334Y556146D01*
X666266Y556000D01*
X666195Y555856D01*
X666121Y555714D01*
X666043Y555573D01*
X665961Y555435D01*
X665876Y555298D01*
X665788Y555164D01*
X665696Y555032D01*
X665601Y554902D01*
X665503Y554774D01*
X665402Y554649D01*
X665298Y554527D01*
X665191Y554407D01*
X665081Y554290D01*
X664968Y554175D01*
X664852Y554064D01*
X664733Y553955D01*
X664612Y553850D01*
X664488Y553747D01*
X664362Y553647D01*
X664234Y553551D01*
X664103Y553458D01*
X663969Y553368D01*
X663834Y553281D01*
X663696Y553198D01*
X663557Y553118D01*
X663415Y553042D01*
X663272Y552969D01*
X663127Y552900D01*
X662980Y552834D01*
X662832Y552772D01*
X662682Y552714D01*
X662531Y552659D01*
X662378Y552608D01*
X662224Y552561D01*
X662069Y552518D01*
X661913Y552479D01*
X661757Y552443D01*
X661599Y552412D01*
X661441Y552384D01*
X661282Y552360D01*
X661122Y552340D01*
X660962Y552324D01*
X660802Y552312D01*
X660641Y552304D01*
X660480Y552300D01*
X660320Y552300D01*
X660159Y552304D01*
X659998Y552312D01*
X659838Y552324D01*
X659678Y552340D01*
X659518Y552360D01*
X659359Y552384D01*
X659201Y552412D01*
X659043Y552443D01*
X658887Y552479D01*
X658731Y552518D01*
X658576Y552561D01*
X658422Y552608D01*
X658269Y552659D01*
X658118Y552714D01*
X657968Y552772D01*
X657820Y552834D01*
X657673Y552900D01*
X657528Y552969D01*
X657385Y553042D01*
X657243Y553118D01*
X657104Y553198D01*
X656966Y553281D01*
X656831Y553368D01*
X656697Y553458D01*
X656566Y553551D01*
X656438Y553647D01*
X656312Y553747D01*
X656188Y553850D01*
X656067Y553955D01*
X655948Y554064D01*
X655832Y554175D01*
X655719Y554290D01*
X655609Y554407D01*
X655502Y554527D01*
X655398Y554649D01*
X655297Y554774D01*
X655199Y554902D01*
X655104Y555032D01*
X655012Y555164D01*
X654924Y555298D01*
X654839Y555435D01*
X654757Y555573D01*
X654679Y555714D01*
X654605Y555856D01*
X654534Y556000D01*
X654466Y556146D01*
X654403Y556294D01*
X654342Y556443D01*
X654286Y556594D01*
X654233Y556746D01*
X654184Y556899D01*
X654139Y557053D01*
X654098Y557208D01*
X654060Y557365D01*
X654027Y557522D01*
X653997Y557680D01*
X653971Y557839D01*
X653950Y557998D01*
X653932Y558158D01*
X653918Y558318D01*
X653908Y558479D01*
X653902Y558639D01*
X653900Y558800D01*
X692000Y558800D02*
X692002Y558961D01*
X692008Y559121D01*
X692018Y559282D01*
X692032Y559442D01*
X692050Y559602D01*
X692071Y559761D01*
X692097Y559920D01*
X692127Y560078D01*
X692160Y560235D01*
X692198Y560392D01*
X692239Y560547D01*
X692284Y560701D01*
X692333Y560854D01*
X692386Y561006D01*
X692442Y561157D01*
X692503Y561306D01*
X692566Y561454D01*
X692634Y561600D01*
X692705Y561744D01*
X692779Y561886D01*
X692857Y562027D01*
X692939Y562165D01*
X693024Y562302D01*
X693112Y562436D01*
X693204Y562568D01*
X693299Y562698D01*
X693397Y562826D01*
X693498Y562951D01*
X693602Y563073D01*
X693709Y563193D01*
X693819Y563310D01*
X693932Y563425D01*
X694048Y563536D01*
X694167Y563645D01*
X694288Y563750D01*
X694412Y563853D01*
X694538Y563953D01*
X694666Y564049D01*
X694797Y564142D01*
X694931Y564232D01*
X695066Y564319D01*
X695204Y564402D01*
X695343Y564482D01*
X695485Y564558D01*
X695628Y564631D01*
X695773Y564700D01*
X695920Y564766D01*
X696068Y564828D01*
X696218Y564886D01*
X696369Y564941D01*
X696522Y564992D01*
X696676Y565039D01*
X696831Y565082D01*
X696987Y565121D01*
X697143Y565157D01*
X697301Y565188D01*
X697459Y565216D01*
X697618Y565240D01*
X697778Y565260D01*
X697938Y565276D01*
X698098Y565288D01*
X698259Y565296D01*
X698420Y565300D01*
X698580Y565300D01*
X698741Y565296D01*
X698902Y565288D01*
X699062Y565276D01*
X699222Y565260D01*
X699382Y565240D01*
X699541Y565216D01*
X699699Y565188D01*
X699857Y565157D01*
X700013Y565121D01*
X700169Y565082D01*
X700324Y565039D01*
X700478Y564992D01*
X700631Y564941D01*
X700782Y564886D01*
X700932Y564828D01*
X701080Y564766D01*
X701227Y564700D01*
X701372Y564631D01*
X701515Y564558D01*
X701657Y564482D01*
X701796Y564402D01*
X701934Y564319D01*
X702069Y564232D01*
X702203Y564142D01*
X702334Y564049D01*
X702462Y563953D01*
X702588Y563853D01*
X702712Y563750D01*
X702833Y563645D01*
X702952Y563536D01*
X703068Y563425D01*
X703181Y563310D01*
X703291Y563193D01*
X703398Y563073D01*
X703502Y562951D01*
X703603Y562826D01*
X703701Y562698D01*
X703796Y562568D01*
X703888Y562436D01*
X703976Y562302D01*
X704061Y562165D01*
X704143Y562027D01*
X704221Y561886D01*
X704295Y561744D01*
X704366Y561600D01*
X704434Y561454D01*
X704497Y561306D01*
X704558Y561157D01*
X704614Y561006D01*
X704667Y560854D01*
X704716Y560701D01*
X704761Y560547D01*
X704802Y560392D01*
X704840Y560235D01*
X704873Y560078D01*
X704903Y559920D01*
X704929Y559761D01*
X704950Y559602D01*
X704968Y559442D01*
X704982Y559282D01*
X704992Y559121D01*
X704998Y558961D01*
X705000Y558800D01*
X704998Y558639D01*
X704992Y558479D01*
X704982Y558318D01*
X704968Y558158D01*
X704950Y557998D01*
X704929Y557839D01*
X704903Y557680D01*
X704873Y557522D01*
X704840Y557365D01*
X704802Y557208D01*
X704761Y557053D01*
X704716Y556899D01*
X704667Y556746D01*
X704614Y556594D01*
X704558Y556443D01*
X704497Y556294D01*
X704434Y556146D01*
X704366Y556000D01*
X704295Y555856D01*
X704221Y555714D01*
X704143Y555573D01*
X704061Y555435D01*
X703976Y555298D01*
X703888Y555164D01*
X703796Y555032D01*
X703701Y554902D01*
X703603Y554774D01*
X703502Y554649D01*
X703398Y554527D01*
X703291Y554407D01*
X703181Y554290D01*
X703068Y554175D01*
X702952Y554064D01*
X702833Y553955D01*
X702712Y553850D01*
X702588Y553747D01*
X702462Y553647D01*
X702334Y553551D01*
X702203Y553458D01*
X702069Y553368D01*
X701934Y553281D01*
X701796Y553198D01*
X701657Y553118D01*
X701515Y553042D01*
X701372Y552969D01*
X701227Y552900D01*
X701080Y552834D01*
X700932Y552772D01*
X700782Y552714D01*
X700631Y552659D01*
X700478Y552608D01*
X700324Y552561D01*
X700169Y552518D01*
X700013Y552479D01*
X699857Y552443D01*
X699699Y552412D01*
X699541Y552384D01*
X699382Y552360D01*
X699222Y552340D01*
X699062Y552324D01*
X698902Y552312D01*
X698741Y552304D01*
X698580Y552300D01*
X698420Y552300D01*
X698259Y552304D01*
X698098Y552312D01*
X697938Y552324D01*
X697778Y552340D01*
X697618Y552360D01*
X697459Y552384D01*
X697301Y552412D01*
X697143Y552443D01*
X696987Y552479D01*
X696831Y552518D01*
X696676Y552561D01*
X696522Y552608D01*
X696369Y552659D01*
X696218Y552714D01*
X696068Y552772D01*
X695920Y552834D01*
X695773Y552900D01*
X695628Y552969D01*
X695485Y553042D01*
X695343Y553118D01*
X695204Y553198D01*
X695066Y553281D01*
X694931Y553368D01*
X694797Y553458D01*
X694666Y553551D01*
X694538Y553647D01*
X694412Y553747D01*
X694288Y553850D01*
X694167Y553955D01*
X694048Y554064D01*
X693932Y554175D01*
X693819Y554290D01*
X693709Y554407D01*
X693602Y554527D01*
X693498Y554649D01*
X693397Y554774D01*
X693299Y554902D01*
X693204Y555032D01*
X693112Y555164D01*
X693024Y555298D01*
X692939Y555435D01*
X692857Y555573D01*
X692779Y555714D01*
X692705Y555856D01*
X692634Y556000D01*
X692566Y556146D01*
X692503Y556294D01*
X692442Y556443D01*
X692386Y556594D01*
X692333Y556746D01*
X692284Y556899D01*
X692239Y557053D01*
X692198Y557208D01*
X692160Y557365D01*
X692127Y557522D01*
X692097Y557680D01*
X692071Y557839D01*
X692050Y557998D01*
X692032Y558158D01*
X692018Y558318D01*
X692008Y558479D01*
X692002Y558639D01*
X692000Y558800D01*
D49*
X818183Y604258D03*
D40*
X769512Y604258D03*
D10*
X811683Y502936D02*
X811685Y503097D01*
X811691Y503257D01*
X811701Y503418D01*
X811715Y503578D01*
X811733Y503738D01*
X811754Y503897D01*
X811780Y504056D01*
X811810Y504214D01*
X811843Y504371D01*
X811881Y504528D01*
X811922Y504683D01*
X811967Y504837D01*
X812016Y504990D01*
X812069Y505142D01*
X812125Y505293D01*
X812186Y505442D01*
X812249Y505590D01*
X812317Y505736D01*
X812388Y505880D01*
X812462Y506022D01*
X812540Y506163D01*
X812622Y506301D01*
X812707Y506438D01*
X812795Y506572D01*
X812887Y506704D01*
X812982Y506834D01*
X813080Y506962D01*
X813181Y507087D01*
X813285Y507209D01*
X813392Y507329D01*
X813502Y507446D01*
X813615Y507561D01*
X813731Y507672D01*
X813850Y507781D01*
X813971Y507886D01*
X814095Y507989D01*
X814221Y508089D01*
X814349Y508185D01*
X814480Y508278D01*
X814614Y508368D01*
X814749Y508455D01*
X814887Y508538D01*
X815026Y508618D01*
X815168Y508694D01*
X815311Y508767D01*
X815456Y508836D01*
X815603Y508902D01*
X815751Y508964D01*
X815901Y509022D01*
X816052Y509077D01*
X816205Y509128D01*
X816359Y509175D01*
X816514Y509218D01*
X816670Y509257D01*
X816826Y509293D01*
X816984Y509324D01*
X817142Y509352D01*
X817301Y509376D01*
X817461Y509396D01*
X817621Y509412D01*
X817781Y509424D01*
X817942Y509432D01*
X818103Y509436D01*
X818263Y509436D01*
X818424Y509432D01*
X818585Y509424D01*
X818745Y509412D01*
X818905Y509396D01*
X819065Y509376D01*
X819224Y509352D01*
X819382Y509324D01*
X819540Y509293D01*
X819696Y509257D01*
X819852Y509218D01*
X820007Y509175D01*
X820161Y509128D01*
X820314Y509077D01*
X820465Y509022D01*
X820615Y508964D01*
X820763Y508902D01*
X820910Y508836D01*
X821055Y508767D01*
X821198Y508694D01*
X821340Y508618D01*
X821479Y508538D01*
X821617Y508455D01*
X821752Y508368D01*
X821886Y508278D01*
X822017Y508185D01*
X822145Y508089D01*
X822271Y507989D01*
X822395Y507886D01*
X822516Y507781D01*
X822635Y507672D01*
X822751Y507561D01*
X822864Y507446D01*
X822974Y507329D01*
X823081Y507209D01*
X823185Y507087D01*
X823286Y506962D01*
X823384Y506834D01*
X823479Y506704D01*
X823571Y506572D01*
X823659Y506438D01*
X823744Y506301D01*
X823826Y506163D01*
X823904Y506022D01*
X823978Y505880D01*
X824049Y505736D01*
X824117Y505590D01*
X824180Y505442D01*
X824241Y505293D01*
X824297Y505142D01*
X824350Y504990D01*
X824399Y504837D01*
X824444Y504683D01*
X824485Y504528D01*
X824523Y504371D01*
X824556Y504214D01*
X824586Y504056D01*
X824612Y503897D01*
X824633Y503738D01*
X824651Y503578D01*
X824665Y503418D01*
X824675Y503257D01*
X824681Y503097D01*
X824683Y502936D01*
X824681Y502775D01*
X824675Y502615D01*
X824665Y502454D01*
X824651Y502294D01*
X824633Y502134D01*
X824612Y501975D01*
X824586Y501816D01*
X824556Y501658D01*
X824523Y501501D01*
X824485Y501344D01*
X824444Y501189D01*
X824399Y501035D01*
X824350Y500882D01*
X824297Y500730D01*
X824241Y500579D01*
X824180Y500430D01*
X824117Y500282D01*
X824049Y500136D01*
X823978Y499992D01*
X823904Y499850D01*
X823826Y499709D01*
X823744Y499571D01*
X823659Y499434D01*
X823571Y499300D01*
X823479Y499168D01*
X823384Y499038D01*
X823286Y498910D01*
X823185Y498785D01*
X823081Y498663D01*
X822974Y498543D01*
X822864Y498426D01*
X822751Y498311D01*
X822635Y498200D01*
X822516Y498091D01*
X822395Y497986D01*
X822271Y497883D01*
X822145Y497783D01*
X822017Y497687D01*
X821886Y497594D01*
X821752Y497504D01*
X821617Y497417D01*
X821479Y497334D01*
X821340Y497254D01*
X821198Y497178D01*
X821055Y497105D01*
X820910Y497036D01*
X820763Y496970D01*
X820615Y496908D01*
X820465Y496850D01*
X820314Y496795D01*
X820161Y496744D01*
X820007Y496697D01*
X819852Y496654D01*
X819696Y496615D01*
X819540Y496579D01*
X819382Y496548D01*
X819224Y496520D01*
X819065Y496496D01*
X818905Y496476D01*
X818745Y496460D01*
X818585Y496448D01*
X818424Y496440D01*
X818263Y496436D01*
X818103Y496436D01*
X817942Y496440D01*
X817781Y496448D01*
X817621Y496460D01*
X817461Y496476D01*
X817301Y496496D01*
X817142Y496520D01*
X816984Y496548D01*
X816826Y496579D01*
X816670Y496615D01*
X816514Y496654D01*
X816359Y496697D01*
X816205Y496744D01*
X816052Y496795D01*
X815901Y496850D01*
X815751Y496908D01*
X815603Y496970D01*
X815456Y497036D01*
X815311Y497105D01*
X815168Y497178D01*
X815026Y497254D01*
X814887Y497334D01*
X814749Y497417D01*
X814614Y497504D01*
X814480Y497594D01*
X814349Y497687D01*
X814221Y497783D01*
X814095Y497883D01*
X813971Y497986D01*
X813850Y498091D01*
X813731Y498200D01*
X813615Y498311D01*
X813502Y498426D01*
X813392Y498543D01*
X813285Y498663D01*
X813181Y498785D01*
X813080Y498910D01*
X812982Y499038D01*
X812887Y499168D01*
X812795Y499300D01*
X812707Y499434D01*
X812622Y499571D01*
X812540Y499709D01*
X812462Y499850D01*
X812388Y499992D01*
X812317Y500136D01*
X812249Y500282D01*
X812186Y500430D01*
X812125Y500579D01*
X812069Y500730D01*
X812016Y500882D01*
X811967Y501035D01*
X811922Y501189D01*
X811881Y501344D01*
X811843Y501501D01*
X811810Y501658D01*
X811780Y501816D01*
X811754Y501975D01*
X811733Y502134D01*
X811715Y502294D01*
X811701Y502454D01*
X811691Y502615D01*
X811685Y502775D01*
X811683Y502936D01*
X763012Y502936D02*
X763014Y503097D01*
X763020Y503257D01*
X763030Y503418D01*
X763044Y503578D01*
X763062Y503738D01*
X763083Y503897D01*
X763109Y504056D01*
X763139Y504214D01*
X763172Y504371D01*
X763210Y504528D01*
X763251Y504683D01*
X763296Y504837D01*
X763345Y504990D01*
X763398Y505142D01*
X763454Y505293D01*
X763515Y505442D01*
X763578Y505590D01*
X763646Y505736D01*
X763717Y505880D01*
X763791Y506022D01*
X763869Y506163D01*
X763951Y506301D01*
X764036Y506438D01*
X764124Y506572D01*
X764216Y506704D01*
X764311Y506834D01*
X764409Y506962D01*
X764510Y507087D01*
X764614Y507209D01*
X764721Y507329D01*
X764831Y507446D01*
X764944Y507561D01*
X765060Y507672D01*
X765179Y507781D01*
X765300Y507886D01*
X765424Y507989D01*
X765550Y508089D01*
X765678Y508185D01*
X765809Y508278D01*
X765943Y508368D01*
X766078Y508455D01*
X766216Y508538D01*
X766355Y508618D01*
X766497Y508694D01*
X766640Y508767D01*
X766785Y508836D01*
X766932Y508902D01*
X767080Y508964D01*
X767230Y509022D01*
X767381Y509077D01*
X767534Y509128D01*
X767688Y509175D01*
X767843Y509218D01*
X767999Y509257D01*
X768155Y509293D01*
X768313Y509324D01*
X768471Y509352D01*
X768630Y509376D01*
X768790Y509396D01*
X768950Y509412D01*
X769110Y509424D01*
X769271Y509432D01*
X769432Y509436D01*
X769592Y509436D01*
X769753Y509432D01*
X769914Y509424D01*
X770074Y509412D01*
X770234Y509396D01*
X770394Y509376D01*
X770553Y509352D01*
X770711Y509324D01*
X770869Y509293D01*
X771025Y509257D01*
X771181Y509218D01*
X771336Y509175D01*
X771490Y509128D01*
X771643Y509077D01*
X771794Y509022D01*
X771944Y508964D01*
X772092Y508902D01*
X772239Y508836D01*
X772384Y508767D01*
X772527Y508694D01*
X772669Y508618D01*
X772808Y508538D01*
X772946Y508455D01*
X773081Y508368D01*
X773215Y508278D01*
X773346Y508185D01*
X773474Y508089D01*
X773600Y507989D01*
X773724Y507886D01*
X773845Y507781D01*
X773964Y507672D01*
X774080Y507561D01*
X774193Y507446D01*
X774303Y507329D01*
X774410Y507209D01*
X774514Y507087D01*
X774615Y506962D01*
X774713Y506834D01*
X774808Y506704D01*
X774900Y506572D01*
X774988Y506438D01*
X775073Y506301D01*
X775155Y506163D01*
X775233Y506022D01*
X775307Y505880D01*
X775378Y505736D01*
X775446Y505590D01*
X775509Y505442D01*
X775570Y505293D01*
X775626Y505142D01*
X775679Y504990D01*
X775728Y504837D01*
X775773Y504683D01*
X775814Y504528D01*
X775852Y504371D01*
X775885Y504214D01*
X775915Y504056D01*
X775941Y503897D01*
X775962Y503738D01*
X775980Y503578D01*
X775994Y503418D01*
X776004Y503257D01*
X776010Y503097D01*
X776012Y502936D01*
X776010Y502775D01*
X776004Y502615D01*
X775994Y502454D01*
X775980Y502294D01*
X775962Y502134D01*
X775941Y501975D01*
X775915Y501816D01*
X775885Y501658D01*
X775852Y501501D01*
X775814Y501344D01*
X775773Y501189D01*
X775728Y501035D01*
X775679Y500882D01*
X775626Y500730D01*
X775570Y500579D01*
X775509Y500430D01*
X775446Y500282D01*
X775378Y500136D01*
X775307Y499992D01*
X775233Y499850D01*
X775155Y499709D01*
X775073Y499571D01*
X774988Y499434D01*
X774900Y499300D01*
X774808Y499168D01*
X774713Y499038D01*
X774615Y498910D01*
X774514Y498785D01*
X774410Y498663D01*
X774303Y498543D01*
X774193Y498426D01*
X774080Y498311D01*
X773964Y498200D01*
X773845Y498091D01*
X773724Y497986D01*
X773600Y497883D01*
X773474Y497783D01*
X773346Y497687D01*
X773215Y497594D01*
X773081Y497504D01*
X772946Y497417D01*
X772808Y497334D01*
X772669Y497254D01*
X772527Y497178D01*
X772384Y497105D01*
X772239Y497036D01*
X772092Y496970D01*
X771944Y496908D01*
X771794Y496850D01*
X771643Y496795D01*
X771490Y496744D01*
X771336Y496697D01*
X771181Y496654D01*
X771025Y496615D01*
X770869Y496579D01*
X770711Y496548D01*
X770553Y496520D01*
X770394Y496496D01*
X770234Y496476D01*
X770074Y496460D01*
X769914Y496448D01*
X769753Y496440D01*
X769592Y496436D01*
X769432Y496436D01*
X769271Y496440D01*
X769110Y496448D01*
X768950Y496460D01*
X768790Y496476D01*
X768630Y496496D01*
X768471Y496520D01*
X768313Y496548D01*
X768155Y496579D01*
X767999Y496615D01*
X767843Y496654D01*
X767688Y496697D01*
X767534Y496744D01*
X767381Y496795D01*
X767230Y496850D01*
X767080Y496908D01*
X766932Y496970D01*
X766785Y497036D01*
X766640Y497105D01*
X766497Y497178D01*
X766355Y497254D01*
X766216Y497334D01*
X766078Y497417D01*
X765943Y497504D01*
X765809Y497594D01*
X765678Y497687D01*
X765550Y497783D01*
X765424Y497883D01*
X765300Y497986D01*
X765179Y498091D01*
X765060Y498200D01*
X764944Y498311D01*
X764831Y498426D01*
X764721Y498543D01*
X764614Y498663D01*
X764510Y498785D01*
X764409Y498910D01*
X764311Y499038D01*
X764216Y499168D01*
X764124Y499300D01*
X764036Y499434D01*
X763951Y499571D01*
X763869Y499709D01*
X763791Y499850D01*
X763717Y499992D01*
X763646Y500136D01*
X763578Y500282D01*
X763515Y500430D01*
X763454Y500579D01*
X763398Y500730D01*
X763345Y500882D01*
X763296Y501035D01*
X763251Y501189D01*
X763210Y501344D01*
X763172Y501501D01*
X763139Y501658D01*
X763109Y501816D01*
X763083Y501975D01*
X763062Y502134D01*
X763044Y502294D01*
X763030Y502454D01*
X763020Y502615D01*
X763014Y502775D01*
X763012Y502936D01*
D22*
X846494Y605553D03*
X874494Y605553D03*
D21*
X270000Y239398D02*
X270000Y220602D01*
X690000Y220602D02*
X690000Y239398D01*
X665000Y239398D02*
X665000Y220602D01*
D50*
X286512Y849376D02*
X282448Y849376D01*
X286512Y849376D02*
X316992Y849376D01*
X317500Y849600D01*
X282448Y849376D02*
X280700Y850900D01*
X286512Y849376D02*
X286512Y814832D01*
X285750Y813562D01*
X286512Y849376D02*
X280700Y850900D01*
X331216Y863600D02*
X357632Y863600D01*
X331216Y863600D02*
X319024Y851408D01*
X357632Y863600D02*
X358300Y863600D01*
X319024Y851408D02*
X317500Y849600D01*
X203200Y528320D02*
X193040Y528320D01*
X203200Y528320D02*
X217424Y542544D01*
X217424Y587248D01*
X241808Y611632D01*
X193040Y528320D02*
X191262Y527050D01*
X241808Y611632D02*
X241330Y613000D01*
X164592Y665226D02*
X120650Y709168D01*
X120650Y711200D01*
X164592Y665226D02*
X164592Y598932D01*
X176276Y587248D01*
X217424Y587248D01*
X638048Y975360D02*
X662432Y975360D01*
X638048Y975360D02*
X636016Y977392D01*
X662432Y975360D02*
X663200Y975300D01*
X636016Y977392D02*
X635000Y977900D01*
X633984Y979424D02*
X603504Y979424D01*
X603250Y979200D01*
X633984Y979424D02*
X635000Y977900D01*
X640080Y863600D02*
X617728Y863600D01*
X615950Y864900D01*
X640080Y863600D02*
X641350Y863600D01*
X558800Y863600D02*
X558800Y851408D01*
X558800Y839216D01*
X557500Y838200D01*
X557500Y863600D02*
X558800Y863600D01*
X558800Y887984D01*
X557500Y889000D01*
X557500Y863600D02*
X558800Y863600D01*
X558800Y890016D02*
X558800Y920496D01*
X557500Y920750D01*
X558800Y890016D02*
X557500Y889000D01*
X550672Y928624D02*
X550672Y965200D01*
X550672Y928624D02*
X556768Y922528D01*
X550672Y965200D02*
X548800Y965200D01*
X556768Y922528D02*
X557500Y920750D01*
X607568Y863600D02*
X615696Y863600D01*
X607568Y863600D02*
X595376Y851408D01*
X558800Y851408D01*
X615696Y863600D02*
X615950Y864900D01*
X601472Y977392D02*
X562864Y977392D01*
X550672Y965200D01*
X601472Y977392D02*
X603250Y979200D01*
X550672Y965200D02*
X548800Y965200D01*
X254000Y914400D02*
X254000Y883920D01*
X252700Y882650D01*
X254000Y881888D02*
X254000Y851408D01*
X252700Y850900D01*
X254000Y881888D02*
X252700Y882650D01*
X247904Y845312D02*
X247904Y814832D01*
X247904Y845312D02*
X251968Y849376D01*
X247904Y814832D02*
X247650Y813562D01*
X251968Y849376D02*
X252700Y850900D01*
X367792Y890016D02*
X367792Y892048D01*
X327152Y932688D01*
X326550Y933450D01*
X264160Y914400D02*
X254000Y914400D01*
X264160Y914400D02*
X282448Y932688D01*
X325120Y932688D01*
X326550Y933450D01*
X367792Y890016D02*
X406400Y890016D01*
X556768Y890016D01*
X557500Y889000D01*
X413460Y882956D02*
X406400Y890016D01*
X413460Y752840D02*
X438180Y726850D01*
X413460Y752840D02*
X413460Y882956D01*
X245872Y552704D02*
X241808Y552704D01*
X272288Y579120D02*
X276352Y583184D01*
X272288Y579120D02*
X245872Y552704D01*
X276352Y583184D02*
X276352Y589280D01*
X241808Y552704D02*
X240538Y552450D01*
X276352Y589280D02*
X278100Y590550D01*
X280416Y546608D02*
X280416Y522224D01*
X280416Y546608D02*
X288544Y554736D01*
X288544Y562864D01*
X272288Y579120D01*
X280416Y522224D02*
X279800Y520700D01*
X241808Y536448D02*
X241808Y538480D01*
X241808Y536448D02*
X241808Y528320D01*
X240538Y527050D01*
X241808Y538480D02*
X240538Y539750D01*
X264160Y558800D02*
X278384Y558800D01*
X264160Y558800D02*
X241808Y536448D01*
X278384Y558800D02*
X279800Y558800D01*
X266192Y501904D02*
X266192Y467360D01*
X266192Y501904D02*
X241808Y526288D01*
X266192Y467360D02*
X266700Y467200D01*
X241808Y526288D02*
X240538Y527050D01*
X319024Y568960D02*
X319024Y617073D01*
X319024Y568960D02*
X329184Y558800D01*
X319024Y617073D02*
X323850Y621000D01*
X329184Y558800D02*
X329800Y558800D01*
X323850Y649000D02*
X323850Y660400D01*
X273050Y711200D01*
X278384Y650240D02*
X262128Y650240D01*
X201168Y711200D01*
X197104Y711200D01*
X278384Y650240D02*
X279400Y649000D01*
X197104Y711200D02*
X196850Y711200D01*
X264160Y621792D02*
X278384Y621792D01*
X264160Y621792D02*
X229616Y656336D01*
X278384Y621792D02*
X279400Y621000D01*
X229616Y656336D02*
X228600Y657000D01*
X339344Y725424D02*
X339344Y753872D01*
X337850Y755650D01*
X339344Y725424D02*
X337850Y723900D01*
X347472Y715264D02*
X347472Y686816D01*
X347472Y715264D02*
X339344Y723392D01*
X347472Y686816D02*
X347950Y685800D01*
X339344Y723392D02*
X337850Y723900D01*
X291338Y749137D02*
X289850Y747649D01*
X291338Y749137D02*
X291338Y757730D01*
X300798Y767190D01*
X326026Y767190D01*
X339344Y753872D01*
X268950Y747649D02*
X267462Y749137D01*
X267462Y754126D01*
X260350Y761238D01*
X268950Y747649D02*
X289850Y747649D01*
X375920Y721360D02*
X375920Y686816D01*
X375920Y721360D02*
X374650Y722600D01*
X375920Y686816D02*
X375950Y685800D01*
X365760Y762000D02*
X392176Y788416D01*
X365760Y762000D02*
X363728Y762000D01*
X361696Y759968D01*
X361696Y735584D01*
X373888Y723392D01*
X392176Y788416D02*
X393700Y790100D01*
X373888Y723392D02*
X374650Y722600D01*
X176784Y707136D02*
X176784Y650240D01*
X176784Y707136D02*
X172720Y711200D01*
X176784Y650240D02*
X177800Y649000D01*
X172720Y711200D02*
X171450Y711200D01*
X140208Y648208D02*
X140208Y642112D01*
X152400Y629920D01*
X152400Y599440D01*
X146304Y593344D02*
X140208Y587248D01*
X146304Y593344D02*
X152400Y599440D01*
X140208Y648208D02*
X139700Y649000D01*
X140208Y587248D02*
X139700Y585500D01*
X186944Y552704D02*
X191008Y552704D01*
X186944Y552704D02*
X146304Y593344D01*
X191008Y552704D02*
X191262Y552450D01*
X146304Y593344D02*
X139700Y585500D01*
X95504Y692912D02*
X95504Y711200D01*
X95504Y692912D02*
X138176Y650240D01*
X95504Y711200D02*
X95250Y711200D01*
X138176Y650240D02*
X139700Y649000D01*
X156464Y540512D02*
X191008Y540512D01*
X156464Y540512D02*
X140208Y556768D01*
X191008Y540512D02*
X191262Y539750D01*
X140208Y556768D02*
X139700Y557500D01*
X125984Y621792D02*
X103632Y621792D01*
X125984Y621792D02*
X138176Y621792D01*
X103632Y621792D02*
X89408Y636016D01*
X138176Y621792D02*
X139700Y621000D01*
X89408Y636016D02*
X88900Y637700D01*
X138176Y564896D02*
X138176Y558800D01*
X138176Y564896D02*
X125984Y577088D01*
X125984Y621792D01*
X138176Y558800D02*
X139700Y557500D01*
X387190Y721110D02*
X425450Y682850D01*
X387190Y721110D02*
X387190Y738060D01*
X374650Y750600D01*
X583692Y699008D02*
X584200Y698500D01*
X440562Y699008D02*
X412720Y726850D01*
X440562Y699008D02*
X583692Y699008D01*
X778256Y688848D02*
X792480Y688848D01*
X778256Y688848D02*
X776224Y686816D01*
X792480Y688848D02*
X793750Y690000D01*
X776224Y686816D02*
X774700Y685800D01*
X759968Y670560D02*
X741680Y670560D01*
X759968Y670560D02*
X774192Y684784D01*
X741680Y670560D02*
X741426Y669350D01*
X774192Y684784D02*
X774700Y685800D01*
X794512Y688848D02*
X794512Y648208D01*
X793750Y647700D01*
X794512Y688848D02*
X793750Y690000D01*
X845312Y688848D02*
X861568Y688848D01*
X863600Y686816D01*
X863600Y685800D01*
X786384Y621792D02*
X747776Y660400D01*
X786384Y621792D02*
X786384Y550672D01*
X788416Y548640D01*
X843280Y548640D01*
X845312Y646176D02*
X844550Y647700D01*
X845312Y648208D02*
X845312Y688848D01*
X844550Y690000D01*
X845312Y648208D02*
X844550Y647700D01*
X862617Y618199D02*
X862617Y592728D01*
X844550Y574661D01*
X844550Y636266D02*
X844550Y647700D01*
X844550Y636266D02*
X862617Y618199D01*
X747776Y660400D02*
X742376Y660400D01*
X741426Y661350D01*
X844550Y549910D02*
X843280Y548640D01*
X844550Y549910D02*
X844550Y574661D01*
X623824Y656336D02*
X603504Y656336D01*
X623824Y656336D02*
X627888Y660400D01*
X603504Y656336D02*
X603250Y656200D01*
X627888Y660400D02*
X628650Y660400D01*
X644144Y646176D02*
X654304Y646176D01*
X644144Y646176D02*
X629920Y660400D01*
X654304Y646176D02*
X655574Y645350D01*
X629920Y660400D02*
X628650Y660400D01*
X647700Y677224D02*
X655574Y669350D01*
X647700Y677224D02*
X647700Y704850D01*
X646890Y705660D01*
X625348Y705660D01*
X623860Y707148D01*
X623860Y715252D01*
X625348Y716740D01*
X627840Y716740D01*
X635000Y723900D01*
X623860Y715252D02*
X623860Y735897D01*
X610362Y749395D01*
X610362Y801743D02*
X617355Y808736D01*
X627245Y808736D01*
X634238Y801743D01*
X634238Y800862D01*
X647700Y787400D01*
X610362Y801743D02*
X610362Y749395D01*
D51*
X666750Y698500D03*
D50*
X670500Y694750D02*
X670500Y684276D01*
X670500Y694750D02*
X666750Y698500D01*
X633984Y735584D02*
X629920Y735584D01*
X633984Y735584D02*
X635000Y736600D01*
X623824Y741680D02*
X623824Y786384D01*
X623824Y741680D02*
X629920Y735584D01*
X623824Y786384D02*
X622300Y787400D01*
X635000Y736600D02*
X629920Y735584D01*
X635000Y736600D02*
X642160Y729440D01*
X644652Y729440D01*
X678500Y695592D01*
X678500Y684276D01*
X703072Y613664D02*
X703072Y599440D01*
X703072Y613664D02*
X707136Y617728D01*
X707136Y670560D01*
X707136Y696976D02*
X707136Y778256D01*
X699008Y786384D01*
X703072Y599440D02*
X702500Y598424D01*
X699008Y786384D02*
X698500Y787400D01*
X711200Y800608D02*
X711200Y824992D01*
X711200Y800608D02*
X699008Y788416D01*
X711200Y824992D02*
X712500Y825500D01*
X699008Y788416D02*
X698500Y787400D01*
D51*
X707136Y670560D03*
X707136Y696976D03*
D50*
X686500Y598424D02*
X684784Y596708D01*
X692912Y599440D02*
X694500Y598424D01*
X711200Y597408D02*
X711200Y581152D01*
X731520Y560832D01*
X768096Y560832D01*
X711200Y597408D02*
X710500Y598424D01*
X768096Y560832D02*
X768350Y560100D01*
X719328Y587248D02*
X719328Y597408D01*
X851408Y573024D02*
X863600Y560832D01*
X719328Y597408D02*
X718500Y598424D01*
X863600Y560832D02*
X863600Y560100D01*
D51*
X719328Y587248D03*
X851408Y573024D03*
D50*
X719328Y690880D02*
X755904Y727456D01*
X794512Y727456D01*
X831199Y565575D02*
X831199Y560726D01*
X831850Y560100D01*
X858553Y594412D02*
X858553Y616516D01*
X831850Y567708D02*
X831850Y560100D01*
X831850Y567708D02*
X858553Y594412D01*
X719328Y685104D02*
X718500Y684276D01*
X719328Y685104D02*
X719328Y690880D01*
X794512Y727456D02*
X831028Y690940D01*
X831028Y644041D01*
X858553Y616516D01*
X711200Y682752D02*
X710500Y684276D01*
X711200Y682752D02*
X711200Y678688D01*
X715264Y674624D01*
X731520Y674624D01*
X762000Y705104D01*
X762000Y715264D01*
X770128Y723392D01*
X792480Y723392D01*
X804672Y711200D01*
X711200Y682752D02*
X710500Y684276D01*
X804672Y711200D02*
X804672Y564672D01*
X800100Y560100D01*
X488440Y593440D02*
X475000Y580000D01*
X649224Y621350D02*
X655574Y621350D01*
X649224Y621350D02*
X643824Y615950D01*
X628650Y615950D01*
X606140Y593440D02*
X488440Y593440D01*
X606140Y593440D02*
X628650Y615950D01*
X656336Y613664D02*
X662432Y613664D01*
X683260Y634492D01*
X683260Y666242D01*
X656336Y613664D02*
X655574Y613350D01*
D51*
X683260Y666242D03*
D50*
X493950Y781050D02*
X475000Y800000D01*
X493950Y781050D02*
X539750Y781050D01*
D51*
X539750Y781050D03*
X664150Y598424D03*
D50*
X670500Y598424D01*
X434848Y355600D02*
X434848Y323088D01*
X430784Y319024D01*
X430700Y317400D01*
X451104Y581152D02*
X483616Y613664D01*
X451104Y581152D02*
X450000Y580000D01*
X451104Y579120D02*
X451612Y578612D01*
X451104Y579120D02*
X450000Y580000D01*
X434848Y434848D02*
X434848Y355600D01*
X435200Y355600D01*
X648208Y662432D02*
X654304Y662432D01*
X648208Y662432D02*
X614045Y696595D01*
X654304Y662432D02*
X655574Y661350D01*
X560832Y798576D02*
X501904Y798576D01*
X560832Y798576D02*
X570992Y788416D01*
X501904Y798576D02*
X500000Y800000D01*
X570992Y788416D02*
X571500Y787400D01*
X684784Y827024D02*
X684784Y839216D01*
X684784Y849376D01*
X684500Y850900D01*
X684784Y827024D02*
X684500Y825500D01*
X664464Y912368D02*
X664464Y928624D01*
X664464Y912368D02*
X686816Y890016D01*
X664464Y928624D02*
X663200Y929700D01*
X686816Y890016D02*
X688500Y889000D01*
X684784Y885952D02*
X684784Y851408D01*
X684784Y885952D02*
X686816Y887984D01*
X684784Y851408D02*
X684500Y850900D01*
X686816Y887984D02*
X688500Y889000D01*
X684784Y839216D02*
X642112Y839216D01*
X641350Y838200D01*
X735584Y638048D02*
X739648Y638048D01*
X735584Y638048D02*
X731520Y642112D01*
X731520Y648208D01*
X735584Y652272D01*
X739648Y652272D01*
X739648Y638048D02*
X741426Y637350D01*
X739648Y652272D02*
X741426Y653350D01*
X735584Y652272D02*
X729488Y658368D01*
X729488Y664464D01*
X735584Y652272D02*
X741426Y653350D01*
X894080Y696976D02*
X894080Y560832D01*
X894080Y696976D02*
X833120Y757936D01*
X778256Y757936D01*
X741680Y794512D01*
X894080Y560832D02*
X895350Y560100D01*
X741680Y794512D02*
X740000Y795000D01*
X721360Y839216D02*
X684784Y839216D01*
X721360Y839216D02*
X727456Y833120D01*
X727456Y808736D01*
X739648Y796544D01*
X740000Y795000D01*
X583184Y798576D02*
X573024Y788416D01*
X583184Y798576D02*
X583184Y800608D01*
X607568Y824992D01*
X627888Y824992D01*
X640080Y837184D01*
X573024Y788416D02*
X571500Y787400D01*
X640080Y837184D02*
X641350Y838200D01*
D51*
X729488Y664464D03*
D50*
X451612Y451612D02*
X434848Y434848D01*
X451612Y451612D02*
X451612Y578612D01*
X536860Y690502D02*
X538348Y691990D01*
X609440Y691990D02*
X614045Y696595D01*
X609440Y691990D02*
X538348Y691990D01*
X584200Y723900D02*
X591360Y731060D01*
X593852Y731060D01*
X584200Y723900D02*
X591360Y716740D01*
X593852Y716740D01*
X613997Y696595D02*
X614045Y696595D01*
X613997Y696595D02*
X593852Y716740D01*
X539750Y740250D02*
X573024Y773524D01*
X573024Y788416D01*
X571500Y787400D02*
X584962Y773938D01*
X595340Y740652D02*
X595340Y732548D01*
X593852Y731060D01*
X584962Y751030D02*
X584962Y773938D01*
X584962Y751030D02*
X595340Y740652D01*
X614045Y696595D02*
X633095Y696595D01*
X635000Y698500D01*
X536860Y690502D02*
X536860Y613664D01*
X483616Y613664D01*
X701040Y619760D02*
X701040Y682752D01*
X701040Y619760D02*
X699008Y617728D01*
X701040Y682752D02*
X702500Y684276D01*
D51*
X699008Y617728D03*
D50*
X654304Y508000D02*
X654304Y465328D01*
X654304Y508000D02*
X674624Y528320D01*
X674624Y566928D01*
X672592Y568960D01*
X654304Y465328D02*
X654050Y464850D01*
D51*
X672592Y568960D03*
D50*
X692912Y648208D02*
X692912Y682752D01*
X692912Y648208D02*
X690880Y646176D01*
X690880Y613664D01*
X692912Y682752D02*
X694500Y684276D01*
D51*
X690880Y613664D03*
D50*
X690880Y520192D02*
X690880Y465328D01*
X690880Y520192D02*
X678688Y532384D01*
X678688Y583184D01*
X690880Y465328D02*
X692150Y464850D01*
D51*
X678688Y583184D03*
D50*
X730250Y436850D02*
X734344Y436850D01*
X768400Y372972D02*
X768400Y330000D01*
X768400Y372972D02*
X772414Y376986D01*
X772414Y398780D01*
X734344Y436850D01*
X730250Y436850D01*
X782320Y570992D02*
X741680Y611632D01*
X782320Y570992D02*
X782320Y550672D01*
X776224Y544576D01*
X741680Y611632D02*
X741426Y613350D01*
X747776Y534416D02*
X699008Y534416D01*
X747776Y534416D02*
X757936Y544576D01*
X776224Y544576D01*
X699008Y534416D02*
X698500Y533400D01*
X329800Y520700D02*
X329184Y520192D01*
X329184Y484124D01*
X311150Y395000D02*
X329184Y376966D01*
X329184Y363474D01*
X429258Y263400D01*
X430700Y263400D01*
X311150Y395000D02*
X311150Y466090D01*
X329184Y484124D01*
X514096Y211328D02*
X544576Y211328D01*
X514096Y211328D02*
X485648Y239776D01*
D51*
X298450Y704850D03*
D52*
X408432Y296418D02*
X496133Y296418D01*
X408432Y296418D02*
X368300Y336550D01*
X368300Y603250D01*
X368300Y635000D02*
X298450Y704850D01*
X368300Y635000D02*
X368300Y603250D01*
X467043Y270194D02*
X465406Y268557D01*
X465406Y258243D01*
X467043Y256606D01*
X467394Y256606D01*
X482600Y241400D01*
X467043Y270194D02*
X498794Y270194D01*
X501994Y290557D02*
X496133Y296418D01*
X501994Y290557D02*
X501994Y273394D01*
X498794Y270194D01*
D50*
X544576Y209774D02*
X544800Y209550D01*
X544576Y209774D02*
X544576Y211328D01*
X483700Y241400D02*
X482600Y241400D01*
X483700Y241400D02*
X485324Y239776D01*
X485648Y239776D01*
X896112Y390144D02*
X896112Y530352D01*
X896112Y390144D02*
X898144Y388112D01*
X898144Y331216D01*
X869696Y302768D01*
X896112Y530352D02*
X895350Y532100D01*
X743000Y330000D02*
X756462Y316538D01*
X756462Y315657D01*
X769351Y302768D01*
X869696Y302768D01*
X479552Y323088D02*
X479552Y355600D01*
X479552Y323088D02*
X483616Y319024D01*
X479552Y355600D02*
X479200Y355600D01*
X483616Y319024D02*
X483700Y317400D01*
X479552Y355600D02*
X479200Y355600D01*
X516128Y392176D02*
X544576Y392176D01*
X516128Y392176D02*
X479552Y355600D01*
X544576Y392176D02*
X546100Y393700D01*
X479552Y355600D02*
X479200Y355600D01*
X549656Y397256D02*
X549656Y416538D01*
X583968Y450850D01*
X711200Y450850D01*
X719198Y426310D02*
X729390Y426310D01*
X711200Y434308D02*
X711200Y450850D01*
X711200Y434308D02*
X719198Y426310D01*
X717600Y336600D02*
X717600Y330000D01*
X758541Y368860D02*
X765740Y376059D01*
X758541Y368860D02*
X749860Y368860D01*
X717600Y336600D01*
X765740Y389960D02*
X729390Y426310D01*
X765740Y389960D02*
X765740Y376059D01*
X549656Y397256D02*
X546100Y393700D01*
X617728Y436880D02*
X652272Y436880D01*
X617728Y436880D02*
X615950Y436850D01*
X652272Y436880D02*
X654050Y436850D01*
X615696Y434848D02*
X579120Y434848D01*
X558800Y414528D01*
X615696Y434848D02*
X615950Y436850D01*
X558800Y414528D02*
X558800Y412750D01*
X571500Y327100D02*
X573024Y327152D01*
X571500Y327100D01*
X682722Y436850D02*
X692150Y436850D01*
X682722Y436850D02*
X573024Y327152D01*
X428752Y239776D02*
X409194Y239776D01*
X204216Y153416D02*
X193040Y164592D01*
X428752Y239776D02*
X430700Y241400D01*
X193040Y164592D02*
X192000Y165000D01*
X142240Y136144D02*
X128016Y136144D01*
X142240Y136144D02*
X158496Y152400D01*
X178816Y152400D01*
X191008Y164592D01*
X128016Y136144D02*
X128000Y135000D01*
X191008Y164592D02*
X192000Y165000D01*
X205232Y178816D02*
X205232Y217424D01*
X205232Y178816D02*
X193040Y166624D01*
X205232Y217424D02*
X206500Y218850D01*
X193040Y166624D02*
X192000Y165000D01*
X204216Y153416D02*
X322834Y153416D01*
X409194Y239776D01*
X258850Y218850D02*
X206500Y218850D01*
X258850Y218850D02*
X270000Y230000D01*
X358140Y132080D02*
X459486Y233426D01*
X358140Y132080D02*
X213360Y132080D01*
X197104Y148336D01*
X172720Y148336D01*
X160528Y136144D01*
X160000Y135000D01*
X459486Y233426D02*
X459486Y280830D01*
X464056Y285400D01*
X483700Y285400D01*
X268224Y396240D02*
X268224Y447040D01*
X268224Y396240D02*
X266700Y395000D01*
X268224Y447040D02*
X266700Y447200D01*
X447252Y269940D02*
X448740Y268452D01*
X448740Y258348D01*
X446160Y269940D02*
X430700Y285400D01*
X446160Y269940D02*
X447252Y269940D01*
X448740Y258348D02*
X444392Y254000D01*
X203200Y254000D02*
X172700Y223500D01*
X172700Y177700D01*
X160000Y165000D01*
X203200Y254000D02*
X444392Y254000D01*
X489712Y258064D02*
X544576Y258064D01*
X489712Y258064D02*
X485648Y262128D01*
X544576Y258064D02*
X546100Y257100D01*
X485648Y262128D02*
X483700Y263400D01*
X741426Y379984D02*
X741680Y379984D01*
X741426Y379984D02*
X736092Y374650D01*
X692150Y374650D01*
X666750Y349250D01*
X666750Y285750D01*
X665523Y283923D01*
X665040Y283203D01*
X663339Y280670D01*
X556514Y280670D01*
X546100Y270256D01*
X546100Y257100D01*
X741680Y379984D02*
X743700Y381150D01*
X665523Y283923D02*
X690000Y259446D01*
X690000Y230000D01*
X241808Y566928D02*
X241808Y591312D01*
X251968Y601472D01*
X251968Y623824D01*
X247904Y627888D01*
X229616Y627888D01*
X215392Y613664D01*
X241808Y566928D02*
X240538Y565150D01*
X215870Y613000D02*
X215392Y613664D01*
X207264Y619760D02*
X178816Y619760D01*
X207264Y619760D02*
X213360Y613664D01*
X178816Y619760D02*
X177800Y621000D01*
X213360Y613664D02*
X215870Y613000D01*
X573024Y256032D02*
X573024Y247904D01*
X573024Y211328D01*
X572800Y209550D01*
X573024Y256032D02*
X571500Y257100D01*
X587248Y837184D02*
X615696Y837184D01*
X587248Y837184D02*
X585500Y838200D01*
X615696Y837184D02*
X615950Y836900D01*
X587248Y863600D02*
X587248Y887984D01*
X587248Y863600D02*
X585500Y863600D01*
X587248Y887984D02*
X585500Y889000D01*
X584200Y711200D02*
X583184Y711200D01*
X280416Y883920D02*
X280416Y914400D01*
X280416Y883920D02*
X280700Y882650D01*
X280416Y914400D02*
X279400Y914400D01*
X603504Y950976D02*
X633984Y950976D01*
X603504Y950976D02*
X603250Y951200D01*
X633984Y950976D02*
X635000Y952500D01*
X268224Y367792D02*
X266700Y367000D01*
X286512Y877824D02*
X316992Y877824D01*
X286512Y877824D02*
X282448Y881888D01*
X316992Y877824D02*
X317500Y877600D01*
X282448Y881888D02*
X280700Y882650D01*
X286512Y762000D02*
X285750Y761238D01*
X587248Y890016D02*
X615696Y890016D01*
X587248Y890016D02*
X585500Y889000D01*
X615696Y890016D02*
X615950Y889000D01*
X617728Y837184D02*
X625856Y837184D01*
X642112Y853440D01*
X650240Y853440D01*
X652272Y855472D01*
X652272Y871728D01*
X648208Y875792D01*
X629920Y875792D01*
X617728Y887984D01*
X617728Y837184D02*
X615950Y836900D01*
X617728Y887984D02*
X615950Y889000D01*
X571500Y257100D02*
X573024Y247904D01*
X636016Y953008D02*
X735584Y953008D01*
X736200Y952500D01*
X636016Y953008D02*
X635000Y952500D01*
X239776Y564896D02*
X235712Y564896D01*
X221488Y550672D01*
X221488Y396240D01*
X220599Y395351D02*
X207264Y382016D01*
X220599Y395351D02*
X221488Y396240D01*
X239776Y564896D02*
X240538Y565150D01*
X207264Y382016D02*
X206500Y381150D01*
D51*
X566166Y739394D03*
D50*
X266700Y367000D02*
X248950Y367000D01*
X220599Y395351D01*
X302200Y367000D02*
X311150Y367000D01*
X310358Y367792D01*
X268224Y367792D01*
X285750Y761238D02*
X314612Y790100D01*
X330200Y790100D01*
X735584Y940816D02*
X762000Y914400D01*
X735584Y940816D02*
X735584Y953008D01*
X584200Y736600D02*
X556100Y736600D01*
X539750Y720250D01*
X548800Y711200D02*
X584200Y711200D01*
X548800Y711200D02*
X539750Y720250D01*
X571500Y257100D02*
X637176Y257100D01*
X664276Y230000D01*
X665000Y230000D01*
X741680Y629920D02*
X747776Y629920D01*
X751840Y633984D01*
X751840Y640080D01*
X747776Y644144D01*
X741680Y644144D01*
X741680Y629920D02*
X741426Y629350D01*
X741680Y644144D02*
X741426Y645350D01*
X625856Y638048D02*
X603504Y638048D01*
X625856Y638048D02*
X627888Y636016D01*
X603504Y638048D02*
X603250Y639200D01*
X627888Y636016D02*
X628650Y635000D01*
X780288Y707136D02*
X792480Y707136D01*
X780288Y707136D02*
X776224Y711200D01*
X792480Y707136D02*
X793750Y707000D01*
X776224Y711200D02*
X774700Y711200D01*
X845312Y707136D02*
X859536Y707136D01*
X863600Y711200D01*
X845312Y707136D02*
X844550Y707000D01*
X654304Y636016D02*
X629920Y636016D01*
X654304Y636016D02*
X655574Y637350D01*
X629920Y636016D02*
X628650Y635000D01*
X723900Y849376D02*
X735584Y849376D01*
X723900Y849376D02*
X713232Y849376D01*
X735584Y849376D02*
X739648Y845312D01*
X713232Y849376D02*
X712500Y850900D01*
X739648Y845312D02*
X740000Y845000D01*
X751840Y633984D02*
X753872Y633984D01*
X617474Y466090D02*
X615950Y464850D01*
X550672Y325120D02*
X546608Y325120D01*
X550672Y325120D02*
X564896Y310896D01*
X601472Y310896D01*
X619760Y329184D01*
X546608Y325120D02*
X546100Y327100D01*
X619760Y329184D02*
X620000Y330000D01*
D51*
X753872Y633984D03*
D50*
X723900Y850900D02*
X762000Y889000D01*
X723900Y850900D02*
X723900Y849376D01*
X617728Y489712D02*
X617728Y465328D01*
X617728Y489712D02*
X660400Y532384D01*
X617728Y465328D02*
X615950Y464850D01*
X660400Y532384D02*
X660400Y533400D01*
X863600Y711200D02*
X874494Y700306D01*
X874494Y605553D01*
X272288Y814832D02*
X262128Y814832D01*
X260350Y813562D01*
X272288Y814832D02*
X273050Y813562D01*
X272288Y759968D02*
X272288Y753872D01*
X254000Y781050D02*
X254000Y806704D01*
X254000Y781050D02*
X254000Y776224D01*
X254000Y806704D02*
X260096Y812800D01*
X273050Y761238D02*
X272288Y759968D01*
X260096Y812800D02*
X260350Y813562D01*
X298704Y808736D02*
X329184Y808736D01*
X298704Y808736D02*
X288544Y798576D01*
X282448Y798576D01*
X274320Y806704D01*
X274320Y812800D01*
X329184Y808736D02*
X330200Y810100D01*
X274320Y812800D02*
X273050Y813562D01*
X304800Y646176D02*
X304800Y591312D01*
X304800Y646176D02*
X256032Y694944D01*
X239776Y694944D01*
X223520Y711200D01*
X304800Y591312D02*
X306100Y590550D01*
X223520Y711200D02*
X222250Y711200D01*
X243840Y776224D02*
X254000Y776224D01*
X243840Y776224D02*
X223520Y755904D01*
X223520Y711200D01*
X222250Y711200D01*
X124438Y726948D02*
X116862Y726948D01*
X111506Y721592D01*
X156464Y599948D02*
X191262Y565150D01*
X140186Y711200D02*
X124438Y726948D01*
X111506Y721592D02*
X111506Y697786D01*
X156464Y652828D01*
X156464Y599948D01*
X146050Y711200D02*
X140186Y711200D01*
X254000Y781050D02*
X260223Y774827D01*
X264450Y774827D01*
X273050Y766227D01*
X273050Y761238D01*
X785030Y416730D02*
X800100Y431800D01*
X785030Y416730D02*
X785030Y370670D01*
X800100Y431800D02*
X800100Y532100D01*
X785030Y370670D02*
X793800Y361900D01*
X793800Y330000D01*
X831088Y341376D02*
X831088Y530352D01*
X831088Y341376D02*
X820928Y331216D01*
X831088Y530352D02*
X831850Y532100D01*
X820928Y331216D02*
X819200Y330000D01*
X845312Y384048D02*
X863600Y402336D01*
X863600Y532100D01*
X845312Y330712D02*
X844600Y330000D01*
X845312Y330712D02*
X845312Y384048D01*
X780161Y534289D02*
X790448Y544576D01*
X780161Y534289D02*
X778256Y532384D01*
X790448Y544576D02*
X873760Y544576D01*
X881888Y536448D01*
X881888Y398272D01*
X894080Y386080D01*
X894080Y353568D01*
X871728Y331216D01*
X870000Y330000D01*
X780161Y534289D02*
X770539Y534289D01*
X768350Y532100D01*
X727456Y573024D02*
X727456Y597408D01*
X727456Y573024D02*
X733552Y566928D01*
X733552Y528320D02*
X733552Y467360D01*
X731520Y465328D01*
X727456Y597408D02*
X726500Y598424D01*
X731520Y465328D02*
X730250Y464850D01*
D51*
X733552Y566928D03*
X733552Y528320D03*
D50*
X753872Y24384D02*
X759968Y24384D01*
X772160Y12192D01*
X824992Y12192D01*
X871728Y58928D01*
X753872Y24384D02*
X752300Y25400D01*
X870000Y60000D02*
X871728Y58928D01*
X615696Y24384D02*
X607568Y24384D01*
X615696Y24384D02*
X633984Y6096D01*
X715264Y6096D01*
X747776Y38608D01*
X824992Y38608D01*
X845312Y58928D01*
X607568Y24384D02*
X607300Y25400D01*
X844600Y60000D02*
X845312Y58928D01*
X432816Y36576D02*
X430784Y38608D01*
X432816Y36576D02*
X453136Y36576D01*
X475488Y58928D01*
X475488Y69088D01*
X483616Y77216D01*
X603504Y77216D01*
X729488Y83312D02*
X798576Y83312D01*
X820928Y60960D01*
X819200Y60000D01*
D51*
X603504Y77216D03*
X729488Y83312D03*
D50*
X430784Y38608D02*
X330708Y38608D01*
X317500Y25400D01*
X640080Y12192D02*
X713232Y12192D01*
D51*
X491744Y8128D03*
X640080Y12192D03*
X713232Y12192D03*
D50*
X491744Y8128D02*
X195072Y8128D01*
X177800Y25400D01*
X483616Y24384D02*
X499872Y8128D01*
X617728Y8128D01*
D51*
X617728Y8128D03*
D50*
X483616Y24384D02*
X451016Y24384D01*
X450000Y25400D01*
X731520Y71120D02*
X741680Y60960D01*
X731520Y71120D02*
X731520Y73152D01*
X721360Y83312D01*
X483616Y83312D01*
X463296Y62992D01*
X741680Y60960D02*
X743000Y60000D01*
X463296Y62992D02*
X462300Y63500D01*
X516128Y65024D02*
X542544Y38608D01*
X489224Y65024D02*
X487700Y63500D01*
X489224Y65024D02*
X516128Y65024D01*
X542544Y38608D02*
X696208Y38608D01*
X717600Y60000D01*
X144272Y60960D02*
X121920Y60960D01*
X120000Y60000D01*
X144272Y60960D02*
X145400Y60000D01*
X172720Y60960D02*
X195072Y60960D01*
X172720Y60960D02*
X170800Y60000D01*
X195072Y60960D02*
X196200Y60000D01*
X170688Y60960D02*
X146304Y60960D01*
X145400Y60000D01*
X170688Y60960D02*
X170800Y60000D01*
X144272Y329184D02*
X121920Y329184D01*
X120000Y330000D01*
X144272Y329184D02*
X145400Y330000D01*
X172720Y329184D02*
X195072Y329184D01*
X172720Y329184D02*
X170800Y330000D01*
X195072Y329184D02*
X196200Y330000D01*
X170688Y329184D02*
X146304Y329184D01*
X145400Y330000D01*
X170688Y329184D02*
X170800Y330000D01*
X587248Y920496D02*
X615696Y920496D01*
X587248Y920496D02*
X585500Y920750D01*
X615696Y920496D02*
X615950Y920750D01*
X87376Y676656D02*
X87376Y658368D01*
X87376Y676656D02*
X81280Y682752D01*
X81280Y723392D01*
X115824Y757936D01*
X172720Y757936D01*
X209296Y794512D01*
X88900Y657700D02*
X87376Y658368D01*
X209296Y794512D02*
X210000Y795000D01*
X310896Y753872D02*
X310896Y725424D01*
X310896Y753872D02*
X309850Y755650D01*
X310896Y725424D02*
X309850Y723900D01*
X247904Y725424D02*
X247904Y711200D01*
X247904Y725424D02*
X247904Y759968D01*
X247650Y761238D01*
X247904Y711200D02*
X247650Y711200D01*
X247904Y725424D02*
X308864Y725424D01*
X309850Y723900D01*
X682346Y675386D02*
X683834Y676874D01*
X648573Y709724D02*
X636476Y709724D01*
X648573Y709724D02*
X651764Y706533D01*
X683834Y681610D02*
X686500Y684276D01*
X683834Y681610D02*
X683834Y676874D01*
X682346Y675386D02*
X666654Y675386D01*
X651764Y690276D01*
X651764Y706533D01*
X636476Y709724D02*
X635000Y711200D01*
X741426Y621350D02*
X752421Y621350D01*
X769512Y604258D01*
X819477Y605553D02*
X846494Y605553D01*
X819477Y605553D02*
X818183Y604258D01*
M02*
