G75*
%MOIN*%
%OFA0B0*%
%FSLAX25Y25*%
%IPPOS*%
%LPD*%
%AMOC8*
5,1,8,0,0,1.08239X$1,22.5*
%
%ADD10R,0.03937X0.04331*%
%ADD11R,0.07087X0.06299*%
%ADD12R,0.06299X0.07087*%
%ADD13R,0.02400X0.08700*%
%ADD14R,0.06299X0.07874*%
%ADD15R,0.07874X0.06299*%
%ADD16R,0.03543X0.07874*%
%ADD17R,0.05118X0.07874*%
%ADD18R,0.04600X0.06300*%
%ADD19R,0.07800X0.02200*%
%ADD20R,0.05000X0.02200*%
%ADD21R,0.02200X0.05000*%
%ADD22R,0.04724X0.02165*%
%ADD23R,0.12205X0.03150*%
%ADD24R,0.05000X0.10000*%
%ADD25R,0.06299X0.03937*%
%ADD26R,0.24409X0.21260*%
%ADD27R,0.09449X0.09449*%
%ADD28R,0.05000X0.05000*%
D10*
X0257169Y0277954D03*
X0257169Y0284646D03*
X0207169Y0287954D03*
X0207169Y0294646D03*
X0327169Y0297954D03*
X0327169Y0304646D03*
X0347169Y0304646D03*
X0347169Y0297954D03*
D11*
X0264669Y0355788D03*
X0264669Y0366812D03*
X0262169Y0400788D03*
X0262169Y0411812D03*
X0077169Y0281812D03*
X0077169Y0270788D03*
D12*
X0161657Y0308800D03*
X0172681Y0308800D03*
X0132681Y0376300D03*
X0121657Y0376300D03*
X0241657Y0376300D03*
X0241657Y0366300D03*
X0241657Y0356300D03*
X0252681Y0356300D03*
X0252681Y0366300D03*
X0252681Y0376300D03*
X0291657Y0361300D03*
X0302681Y0361300D03*
D13*
X0134669Y0346600D03*
X0129669Y0346600D03*
X0124669Y0346600D03*
X0119669Y0346600D03*
X0119669Y0326000D03*
X0124669Y0326000D03*
X0129669Y0326000D03*
X0134669Y0326000D03*
D14*
X0132681Y0361300D03*
X0121657Y0361300D03*
X0161657Y0296300D03*
X0172681Y0296300D03*
X0176657Y0243800D03*
X0187681Y0243800D03*
X0162681Y0211300D03*
X0151657Y0211300D03*
X0112681Y0256300D03*
X0101657Y0256300D03*
X0241657Y0388800D03*
X0252681Y0388800D03*
X0316657Y0261300D03*
X0327681Y0261300D03*
X0262681Y0196300D03*
X0251657Y0196300D03*
X0242681Y0111300D03*
X0231657Y0111300D03*
D15*
X0127169Y0170788D03*
X0127169Y0181812D03*
X0077169Y0245788D03*
X0077169Y0256812D03*
X0097169Y0270788D03*
X0097169Y0281812D03*
X0132169Y0281812D03*
X0132169Y0270788D03*
X0147169Y0270788D03*
X0147169Y0281812D03*
X0192169Y0280788D03*
X0192169Y0291812D03*
X0192169Y0310788D03*
X0192169Y0321812D03*
X0242169Y0306812D03*
X0242169Y0295788D03*
X0242169Y0286812D03*
X0242169Y0275788D03*
X0267169Y0246812D03*
X0267169Y0235788D03*
X0267169Y0221812D03*
X0267169Y0210788D03*
X0247169Y0210788D03*
X0247169Y0221812D03*
X0287169Y0221812D03*
X0287169Y0210788D03*
X0307169Y0210788D03*
X0307169Y0221812D03*
X0317169Y0235788D03*
X0317169Y0246812D03*
X0332169Y0246812D03*
X0332169Y0235788D03*
X0347169Y0235788D03*
X0347169Y0246812D03*
X0362169Y0246812D03*
X0362169Y0235788D03*
X0147169Y0360788D03*
X0147169Y0371812D03*
D16*
X0206657Y0305139D03*
X0217681Y0305139D03*
X0117681Y0267639D03*
X0106657Y0267639D03*
D17*
X0112169Y0284961D03*
X0212169Y0322461D03*
D18*
X0244169Y0246300D03*
X0250169Y0246300D03*
D19*
X0116869Y0238800D03*
X0116869Y0233800D03*
X0116869Y0228800D03*
X0116869Y0223800D03*
X0097469Y0223800D03*
X0097469Y0228800D03*
X0097469Y0233800D03*
X0097469Y0238800D03*
D20*
X0265269Y0270276D03*
X0265269Y0273426D03*
X0265269Y0276576D03*
X0265269Y0279725D03*
X0265269Y0282875D03*
X0265269Y0286024D03*
X0265269Y0289174D03*
X0265269Y0292324D03*
X0299069Y0292324D03*
X0299069Y0289174D03*
X0299069Y0286024D03*
X0299069Y0282875D03*
X0299069Y0279725D03*
X0299069Y0276576D03*
X0299069Y0273426D03*
X0299069Y0270276D03*
D21*
X0293193Y0264400D03*
X0290043Y0264400D03*
X0286894Y0264400D03*
X0283744Y0264400D03*
X0280594Y0264400D03*
X0277445Y0264400D03*
X0274295Y0264400D03*
X0271146Y0264400D03*
X0271146Y0298200D03*
X0274295Y0298200D03*
X0277445Y0298200D03*
X0280594Y0298200D03*
X0283744Y0298200D03*
X0286894Y0298200D03*
X0290043Y0298200D03*
X0293193Y0298200D03*
D22*
X0227288Y0295040D03*
X0227288Y0291300D03*
X0227288Y0287560D03*
X0217051Y0287560D03*
X0217051Y0291300D03*
X0217051Y0295040D03*
D23*
X0212602Y0151261D03*
X0212602Y0138662D03*
X0212602Y0130001D03*
X0212602Y0121339D03*
X0191736Y0121339D03*
X0191736Y0130001D03*
X0191736Y0138662D03*
X0191736Y0151261D03*
D24*
X0237169Y0155080D03*
X0247169Y0155080D03*
X0247169Y0127520D03*
X0237169Y0127520D03*
D25*
X0283272Y0392324D03*
X0283272Y0410276D03*
D26*
X0312012Y0401300D03*
D27*
X0210831Y0166300D03*
X0193508Y0166300D03*
D28*
X0322169Y0376300D03*
X0322169Y0386300D03*
M02*
