%
M48
M72
T01C0.01181
T02C0.02500
T03C0.02756
T04C0.03150
T05C0.03200
T06C0.03543
T07C0.03937
T08C0.04000
T09C0.04400
T10C0.04724
T11C0.04921
T12C0.05118
T13C0.07874
T14C0.11024
%
T01
X184829Y130001
X263769Y42300
X283769Y31100
X298169Y43900
X302969Y39100
X312569Y35100
X313369Y39100
X330969Y31100
X333369Y39100
X291769Y227100
X286769Y250600
X286969Y259900
X301269Y257400
X301369Y263000
X283769Y274300
X274169Y273500
X270969Y273500
X267769Y263900
X255869Y267800
X252169Y276300
X247069Y286500
X251169Y299000
X265369Y300700
X280569Y287100
X286169Y287100
X286969Y293500
X293369Y292700
X326169Y254300
X338969Y247100
X323097Y235788
X356242Y235788
X202169Y298800
X176657Y249728
X147169Y286300
T02
X152012Y246300
X152012Y231300
X132327Y231300
X132327Y246300
T03
X327169Y281300
X347169Y281300
T04
X301106Y376300
X293232Y376300
X246106Y406300
X238232Y406300
X177169Y345237
X177169Y337363
X152169Y337363
X152169Y345237
X163232Y366300
X171106Y366300
X131106Y401300
X123232Y401300
X57169Y285237
X57169Y277363
X127169Y210237
X127169Y202363
X199335Y36300
X219020Y36300
T05
X214177Y51300
X204177Y51300
X157169Y36300
X147169Y36300
X102169Y36300
X92169Y36300
X261264Y36300
X271264Y36300
X318350Y36300
X328350Y36300
X309177Y186300
X309177Y196300
X324669Y211300
X332169Y206300
X332169Y216300
X142169Y306300
X132169Y306300
X122169Y306300
X112169Y306300
X102169Y306300
X92169Y306300
X82169Y306300
X72169Y306300
T06
X122169Y386300
X132169Y386300
X272169Y401300
X272169Y411300
X274669Y368800
X274669Y358800
T07
X313508Y358977
X313508Y349135
X313508Y339292
X219020Y341261
X209177Y341261
X199335Y341261
X199335Y254646
X209177Y254646
X219020Y254646
X104846Y339292
X104846Y349135
X104846Y358977
T08
X196377Y200200
X196377Y182400
X221977Y182400
X221977Y200200
X282169Y236300
X297169Y236300
X304689Y156221
X314689Y156221
X324689Y156221
X334689Y156221
X344689Y156221
X354689Y156221
X364689Y156221
X364689Y49922
X354689Y49922
X344689Y49922
X334689Y49922
X324689Y49922
X314689Y49922
X304689Y49922
X264669Y376300
X264669Y388800
T09
X69413Y49922
X79413Y49922
X89413Y49922
X99413Y49922
X99413Y156221
X89413Y156221
X79413Y156221
X69413Y156221
X233705Y196221
X247169Y336300
X257169Y336300
X267169Y336300
X277169Y336300
X287169Y336300
X297169Y336300
X238705Y49922
T10
X222957Y46143
X195398Y46143
T11
X107602Y97166
X62720Y73544
T12
X72563Y79450
X72563Y91261
X85161Y91261
X85161Y79450
X97760Y79450
X97760Y91261
X103469Y112461
X53469Y112461
X53469Y176359
X103469Y176359
X314965Y176359
X364965Y176359
X364965Y112461
X314965Y112461
T13
X226500Y227087
X191854Y227087
X77287Y331812
X77287Y366457
X191854Y368820
X226500Y368820
X341067Y366457
X341067Y331812
T14
X341067Y404253
X77287Y404253
M30
